<svg width="60" height="60" viewBox="0 0 60 60" fill="none" xmlns="http://www.w3.org/2000/svg">
<rect width="60" height="60" rx="16" fill="white"/>
<path d="M30.0063 15.2446C34.816 15.2446 35.3806 15.266 37.2816 15.3518C39.0397 15.4304 39.9902 15.7234 40.6262 15.9735C41.4695 16.3023 42.0698 16.6882 42.6987 17.3171C43.3276 17.946 43.7207 18.5463 44.0423 19.3896C44.2853 20.0257 44.5855 20.9762 44.6641 22.7343C44.7498 24.6353 44.7713 25.1998 44.7713 30.0095C44.7713 34.8192 44.7498 35.3838 44.6641 37.2848C44.5855 39.0429 44.2924 39.9934 44.0423 40.6294C43.7136 41.4727 43.3276 42.0731 42.6987 42.702C42.0698 43.3309 41.4695 43.7239 40.6262 44.0455C39.9902 44.2885 39.0397 44.5887 37.2816 44.6673C35.3806 44.753 34.816 44.7745 30.0063 44.7745C25.1966 44.7745 24.632 44.753 22.731 44.6673C20.9729 44.5887 20.0224 44.2957 19.3864 44.0455C18.5431 43.7168 17.9428 43.3309 17.3139 42.702C16.685 42.0731 16.2919 41.4727 15.9703 40.6294C15.7273 39.9934 15.4271 39.0429 15.3485 37.2848C15.2628 35.3838 15.2413 34.8192 15.2413 30.0095C15.2413 25.1998 15.2628 24.6353 15.3485 22.7343C15.4271 20.9762 15.7202 20.0257 15.9703 19.3896C16.299 18.5463 16.685 17.946 17.3139 17.3171C17.9428 16.6882 18.5431 16.2951 19.3864 15.9735C20.0224 15.7305 20.9729 15.4304 22.731 15.3518C24.632 15.2589 25.2038 15.2446 30.0063 15.2446ZM30.0063 12C25.118 12 24.5034 12.0214 22.5809 12.1072C20.6656 12.193 19.3578 12.5003 18.2143 12.9434C17.028 13.4007 16.0275 14.0225 15.0269 15.023C14.0264 16.0236 13.4118 17.0312 12.9473 18.2104C12.5042 19.3539 12.1969 20.6617 12.1111 22.5842C12.0253 24.4995 12.0039 25.1141 12.0039 30.0024C12.0039 34.8907 12.0253 35.5053 12.1111 37.4277C12.1969 39.343 12.5042 40.6509 12.9473 41.8015C13.4046 42.9878 14.0264 43.9884 15.0269 44.9889C16.0275 45.9894 17.0351 46.604 18.2143 47.0686C19.3578 47.5116 20.6656 47.8189 22.5881 47.9047C24.5105 47.9905 25.118 48.0119 30.0134 48.0119C34.9089 48.0119 35.5164 47.9905 37.4388 47.9047C39.3541 47.8189 40.6619 47.5116 41.8126 47.0686C42.9989 46.6112 43.9994 45.9894 45 44.9889C46.0005 43.9884 46.6151 42.9807 47.0796 41.8015C47.5227 40.658 47.83 39.3502 47.9158 37.4277C48.0015 35.5053 48.023 34.8978 48.023 30.0024C48.023 25.1069 48.0015 24.4995 47.9158 22.577C47.83 20.6617 47.5227 19.3539 47.0796 18.2033C46.6222 17.0169 46.0005 16.0164 45 15.0159C43.9994 14.0154 42.9918 13.4007 41.8126 12.9362C40.6691 12.4931 39.3613 12.1858 37.4388 12.1001C35.5092 12.0214 34.8946 12 30.0063 12Z" fill="#39B969"/>
<path d="M30.0056 20.7617C24.9029 20.7617 20.7578 24.8996 20.7578 30.0095C20.7578 35.1193 24.8957 39.2572 30.0056 39.2572C35.1154 39.2572 39.2533 35.1193 39.2533 30.0095C39.2533 24.8996 35.1154 20.7617 30.0056 20.7617ZM30.0056 36.0055C26.6895 36.0055 24.0024 33.3184 24.0024 30.0023C24.0024 26.6863 26.6895 23.9991 30.0056 23.9991C33.3216 23.9991 36.0087 26.6863 36.0087 30.0023C36.0087 33.3184 33.3216 36.0055 30.0056 36.0055Z" fill="#39B969"/>
<path d="M39.6173 22.547C40.8093 22.547 41.7756 21.5807 41.7756 20.3888C41.7756 19.1968 40.8093 18.2305 39.6173 18.2305C38.4253 18.2305 37.459 19.1968 37.459 20.3888C37.459 21.5807 38.4253 22.547 39.6173 22.547Z" fill="#39B969"/>
</svg>
