<svg width="60" height="60" viewBox="0 0 60 60" fill="none" xmlns="http://www.w3.org/2000/svg">
<rect width="60" height="60" rx="16" fill="white"/>
<path fill-rule="evenodd" clip-rule="evenodd" d="M12.4886 27.9148C22.2059 23.6811 28.6857 20.89 31.9279 19.5415C41.1849 15.6912 43.1084 15.0223 44.3621 15.0002C44.6379 14.9954 45.2544 15.0637 45.6538 15.3878C45.991 15.6614 46.0838 16.0311 46.1282 16.2905C46.1726 16.5499 46.2279 17.1409 46.184 17.6027C45.6823 22.8735 43.5117 35.6643 42.4074 41.5677C41.9402 44.0656 41.0201 44.9032 40.1294 44.9851C38.1937 45.1633 36.7238 43.7059 34.8489 42.4769C31.9152 40.5538 30.2578 39.3566 27.41 37.48C24.119 35.3113 26.2524 34.1193 28.128 32.1712C28.6188 31.6614 37.1477 23.9038 37.3128 23.2C37.3334 23.112 37.3526 22.7839 37.1577 22.6107C36.9628 22.4375 36.6751 22.4967 36.4675 22.5438C36.1733 22.6106 31.4866 25.7084 22.4073 31.8371C21.077 32.7506 19.8721 33.1957 18.7924 33.1723C17.6023 33.1466 15.3129 32.4994 13.6109 31.9462C11.5234 31.2676 9.8643 30.9088 10.0088 29.7564C10.084 29.1562 10.9106 28.5423 12.4886 27.9148Z" fill="#39B969"/>
</svg>
