<svg width="228" height="50" viewBox="0 0 228 50" fill="none" xmlns="http://www.w3.org/2000/svg">
<path fill-rule="evenodd" clip-rule="evenodd" d="M72.2349 3.32772C72.2349 1.63334 73.6234 0.259766 75.3364 0.259766H80.7396C81.9588 0.259766 83.1404 0.677691 84.083 1.4424L85.7267 2.77567L85.7678 2.81275C85.8057 2.8001 85.8436 2.78773 85.8817 2.77567C88.8471 1.83617 92.4449 1.6575 96.1169 1.6575C99.789 1.6575 103.387 1.83617 106.352 2.77567C106.39 2.78773 106.428 2.8001 106.466 2.81275L106.507 2.77567L108.151 1.4424C109.094 0.677691 110.275 0.259766 111.494 0.259766H116.897C118.61 0.259766 119.999 1.63334 119.999 3.32772V5.22428C119.999 6.69166 119.374 8.09116 118.278 9.07945L116.952 10.2746C116.304 10.858 115.527 11.2826 114.683 11.5141L114.37 11.6001C115.598 14.5001 116.277 17.5998 116.277 20.1074C116.277 30.1945 109.968 34.5509 104.408 38.3895C100.03 41.4124 96.1169 44.114 96.1169 49.0403C96.1169 44.114 92.204 41.4124 87.8258 38.3895C82.2663 34.5509 75.9567 30.1945 75.9567 20.1074C75.9567 17.5998 76.6355 14.5001 77.8641 11.6001L77.5505 11.5141C76.7066 11.2826 75.9296 10.858 75.2823 10.2746L73.9563 9.07945C72.8597 8.09116 72.2349 6.69166 72.2349 5.22428V3.32772ZM100.149 28.354C100.149 28.8359 99.9366 29.298 99.5585 29.6388C99.1805 29.9796 98.6677 30.171 98.1329 30.171C97.6713 30.171 97.226 30.0282 96.8696 29.7699C97.4762 31.376 99.0285 32.8979 101.39 30.4505C103.474 28.1765 101.297 23.3803 99.176 20.5342C98.469 19.5855 97.3084 19.129 96.1169 19.129C94.9255 19.129 93.7649 19.5855 93.0579 20.5342C90.9369 23.3803 88.7599 28.1765 90.8442 30.4505C93.2053 32.8979 94.7577 31.376 95.3643 29.7699C95.0079 30.0282 94.5625 30.171 94.101 30.171C93.5662 30.171 93.0534 29.9796 92.6754 29.6388C92.2973 29.298 92.0849 28.8359 92.0849 28.354H100.149ZM88.3966 14.1563H82.7802L87.2065 17.662C88.1805 18.4334 89.6041 18.1868 90.2068 17.1423C90.9678 15.8235 89.9571 14.1563 88.3966 14.1563ZM103.837 14.1563H109.454L105.027 17.662C104.053 18.4334 102.63 18.1868 102.027 17.1423C101.266 15.8235 102.277 14.1563 103.837 14.1563Z" fill="#C2C2C2"/>
<path d="M126.689 34.8124H131.665V16.0441H126.689V34.8124ZM126.689 13.1172H131.665V8.65381H126.689V13.1172Z" fill="#C2C2C2"/>
<path d="M134.871 40.9591H139.846V32.6908H139.919C140.98 34.3005 142.7 35.3615 145.334 35.3615C150.163 35.3615 153.456 31.52 153.456 25.4469C153.456 19.5932 150.273 15.5322 145.297 15.5322C142.736 15.5322 140.98 16.7395 139.773 18.3859H139.663V16.0444H134.871V40.9591ZM144.273 31.2273C141.31 31.2273 139.736 28.9956 139.736 25.5932C139.736 22.2273 140.98 19.5566 144.09 19.5566C147.163 19.5566 148.407 22.0444 148.407 25.5932C148.407 29.142 146.797 31.2273 144.273 31.2273Z" fill="#C2C2C2"/>
<path d="M163.382 35.3615C168.064 35.3615 171.284 33.0932 171.284 29.3249C171.284 24.9347 167.808 24.0566 164.662 23.3981C161.991 22.8493 159.504 22.703 159.504 21.0932C159.504 19.7395 160.784 19.0078 162.723 19.0078C164.845 19.0078 166.125 19.7395 166.345 21.7517H170.845C170.479 17.9834 167.735 15.5322 162.796 15.5322C158.516 15.5322 155.15 17.4712 155.15 21.5322C155.15 25.6298 158.443 26.5444 161.808 27.203C164.369 27.7152 166.747 27.8981 166.747 29.6908C166.747 31.0078 165.504 31.8493 163.308 31.8493C161.077 31.8493 159.54 30.8981 159.211 28.7395H154.601C154.894 32.7273 157.93 35.3615 163.382 35.3615Z" fill="#C2C2C2"/>
<path d="M190.176 34.8127V16.0444H185.2V26.8737C185.2 29.3615 183.774 31.1176 181.432 31.1176C179.31 31.1176 178.322 29.9103 178.322 27.7152V16.0444H173.383V28.5566C173.383 32.6542 175.725 35.3249 179.895 35.3249C182.53 35.3249 183.993 34.3371 185.274 32.6176H185.383V34.8127H190.176Z" fill="#C2C2C2"/>
<path d="M193.394 34.8127H198.37V23.9103C198.37 21.4225 199.723 19.8127 201.736 19.8127C203.565 19.8127 204.626 20.9103 204.626 23.0322V34.8127H209.601V23.9103C209.601 21.4225 210.882 19.8127 212.967 19.8127C214.796 19.8127 215.857 20.9103 215.857 23.0322V34.8127H220.833V22.1908C220.833 18.0932 218.601 15.5322 214.65 15.5322C212.272 15.5322 210.296 16.7761 209.016 18.8249H208.943C208.028 16.8493 206.126 15.5322 203.748 15.5322C201.15 15.5322 199.321 16.8493 198.296 18.5688H198.187V16.0444H193.394V34.8127Z" fill="#C2C2C2"/>
<path d="M1.07178 34.8128H6.04738V8.6543H1.07178V34.8128Z" fill="#C2C2C2"/>
<path d="M18.2136 35.3615C24.0307 35.3615 28.0185 31.0444 28.0185 25.4469C28.0185 19.8493 24.0307 15.5322 18.2136 15.5322C12.3965 15.5322 8.40869 19.8493 8.40869 25.4469C8.40869 31.0444 12.3965 35.3615 18.2136 35.3615ZM18.2136 31.5566C15.1405 31.5566 13.4575 29.1054 13.4575 25.4469C13.4575 21.7883 15.1405 19.3005 18.2136 19.3005C21.2502 19.3005 22.9697 21.7883 22.9697 25.4469C22.9697 29.1054 21.2502 31.5566 18.2136 31.5566Z" fill="#C2C2C2"/>
<path d="M38.5994 41.2152C41.3799 41.2152 43.7946 40.5566 45.3677 39.0932C46.758 37.8127 47.5994 36.02 47.5994 33.3859V16.0444H42.8067V18.02H42.7336C41.5994 16.4469 39.8799 15.5322 37.5385 15.5322C32.7824 15.5322 29.4165 19.1176 29.4165 24.7152C29.4165 30.3859 33.5141 33.6786 37.6848 33.6786C40.0628 33.6786 41.4897 32.7273 42.5872 31.4834H42.697V33.5322C42.697 36.0932 41.3433 37.4469 38.5263 37.4469C36.2214 37.4469 35.1604 36.5322 34.758 35.3615H29.8189C30.3311 39.02 33.4775 41.2152 38.5994 41.2152ZM38.5263 29.6908C35.9653 29.6908 34.2824 27.8249 34.2824 24.642C34.2824 21.4956 35.9653 19.52 38.4897 19.52C41.4897 19.52 42.9531 21.8615 42.9531 24.6054C42.9531 27.3859 41.6726 29.6908 38.5263 29.6908Z" fill="#C2C2C2"/>
<path d="M59.694 35.3615C65.5111 35.3615 69.4989 31.0444 69.4989 25.4469C69.4989 19.8493 65.5111 15.5322 59.694 15.5322C53.877 15.5322 49.8892 19.8493 49.8892 25.4469C49.8892 31.0444 53.877 35.3615 59.694 35.3615ZM59.694 31.5566C56.6209 31.5566 54.9379 29.1054 54.9379 25.4469C54.9379 21.7883 56.6209 19.3005 59.694 19.3005C62.7306 19.3005 64.4501 21.7883 64.4501 25.4469C64.4501 29.1054 62.7306 31.5566 59.694 31.5566Z" fill="#C2C2C2"/>
<path d="M220.609 11.9468C220.609 11.1049 221.291 10.4224 222.133 10.4224H225.182C226.024 10.4224 226.706 11.1049 226.706 11.9468C226.706 12.7886 226.024 13.4712 225.182 13.4712H222.133C221.291 13.4712 220.609 12.7886 220.609 11.9468Z" fill="#C2C2C2"/>
</svg>
