<svg width="170" height="44" viewBox="0 0 170 44" fill="none" xmlns="http://www.w3.org/2000/svg">
<path d="M27.3613 20.707C27.3167 15.8725 31.4213 13.5205 31.609 13.411C29.2844 10.1065 25.6813 9.65499 24.4152 9.61899C21.389 9.30849 18.4537 11.3845 16.9121 11.3845C15.3398 11.3845 12.966 9.64899 10.4075 9.69999C7.11519 9.74949 4.03519 11.608 2.34596 14.494C-1.14019 20.3785 1.45981 29.026 4.79981 33.7825C6.47058 36.112 8.42288 38.713 10.9783 38.6215C13.4783 38.521 14.4121 37.0675 17.429 37.0675C20.4183 37.0675 21.2952 38.6215 23.9013 38.563C26.5844 38.521 28.2737 36.223 29.886 33.8725C31.8167 31.2025 32.5921 28.573 32.6229 28.438C32.5598 28.417 27.4121 26.5015 27.3613 20.707Z" fill="white"/>
<path d="M22.4383 6.48999C23.7829 4.85049 24.7029 2.61999 24.4475 0.356491C22.5013 0.440491 20.0675 1.66899 18.666 3.27249C17.426 4.68549 16.3183 7.00149 16.6044 9.17949C18.7906 9.33849 21.0352 8.10399 22.4383 6.48999Z" fill="white"/>
<path d="M56.838 5.536C56.838 7.3015 56.2949 8.6305 55.2103 9.523C54.2057 10.3465 52.778 10.759 50.9288 10.759C50.0119 10.759 49.2272 10.72 48.5703 10.642V0.995496C49.4272 0.860496 50.3503 0.791496 51.3472 0.791496C53.1088 0.791496 54.4365 1.165 55.3319 1.912C56.3349 2.7565 56.838 3.964 56.838 5.536ZM55.138 5.5795C55.138 4.435 54.8272 3.5575 54.2057 2.9455C53.5842 2.335 52.6765 2.029 51.4811 2.029C50.9734 2.029 50.5411 2.062 50.1826 2.131V9.4645C50.3811 9.4945 50.7442 9.508 51.2719 9.508C52.5057 9.508 53.458 9.1735 54.1288 8.5045C54.7996 7.8355 55.138 6.8605 55.138 5.5795Z" fill="white"/>
<path d="M65.8521 7.078C65.8521 8.1655 65.5336 9.0565 64.8967 9.7555C64.229 10.474 63.3444 10.8325 62.2398 10.8325C61.1752 10.8325 60.3275 10.489 59.6952 9.799C59.0644 9.1105 58.749 8.242 58.749 7.195C58.749 6.1 59.0736 5.2015 59.7259 4.504C60.3783 3.8065 61.2552 3.457 62.3598 3.457C63.4244 3.457 64.2798 3.8005 64.9275 4.489C65.5429 5.158 65.8521 6.022 65.8521 7.078ZM64.1798 7.129C64.1798 6.4765 64.0352 5.917 63.7475 5.4505C63.409 4.8865 62.9275 4.6045 62.3013 4.6045C61.6536 4.6045 61.1613 4.8865 60.8229 5.4505C60.5336 5.917 60.3906 6.4855 60.3906 7.1575C60.3906 7.81 60.5352 8.3695 60.8229 8.836C61.1721 9.4 61.6583 9.682 62.286 9.682C62.9013 9.682 63.3844 9.3955 63.7321 8.821C64.0306 8.3455 64.1798 7.7815 64.1798 7.129Z" fill="white"/>
<path d="M77.9383 3.60099L75.6691 10.672H74.1922L73.2522 7.60149C73.0137 6.83499 72.8199 6.07299 72.6691 5.31699H72.6399C72.4999 6.09399 72.306 6.85449 72.0568 7.60149L71.0584 10.672H69.5645L67.4307 3.60099H69.0876L69.9076 6.96249C70.106 7.75749 70.2691 8.51499 70.3999 9.23199H70.4291C70.5491 8.64099 70.7476 7.88799 71.0276 6.97749L72.0568 3.60249H73.3707L74.3568 6.90549C74.5953 7.71099 74.7891 8.48649 74.9383 9.23349H74.983C75.0922 8.50599 75.2568 7.73049 75.4753 6.90549L76.3553 3.60249H77.9383V3.60099Z" fill="white"/>
<path d="M86.2964 10.672H84.6841V6.62201C84.6841 5.37401 84.1979 4.75001 83.2225 4.75001C82.7441 4.75001 82.3579 4.92101 82.0579 5.26451C81.761 5.60801 81.6102 6.01301 81.6102 6.47651V10.6705H79.9979V5.62151C79.9979 5.00051 79.9779 4.32701 79.9395 3.59801H81.3564L81.4318 4.70351H81.4764C81.6641 4.36001 81.9441 4.07651 82.3118 3.85001C82.7487 3.58601 83.2379 3.45251 83.7733 3.45251C84.4502 3.45251 85.0133 3.66551 85.461 4.09301C86.0179 4.61651 86.2964 5.39801 86.2964 6.43601V10.672Z" fill="white"/>
<path d="M90.7426 10.672H89.1318V0.356491H90.7426V10.672Z" fill="white"/>
<path d="M100.235 7.078C100.235 8.1655 99.9165 9.0565 99.2795 9.7555C98.6118 10.474 97.7257 10.8325 96.6226 10.8325C95.5565 10.8325 94.7088 10.489 94.078 9.799C93.4472 9.1105 93.1318 8.242 93.1318 7.195C93.1318 6.1 93.4565 5.2015 94.1088 4.504C94.7611 3.8065 95.638 3.457 96.7411 3.457C97.8072 3.457 98.6611 3.8005 99.3103 4.489C99.9257 5.158 100.235 6.022 100.235 7.078ZM98.5611 7.129C98.5611 6.4765 98.4165 5.917 98.1288 5.4505C97.7918 4.8865 97.3088 4.6045 96.6841 4.6045C96.0349 4.6045 95.5426 4.8865 95.2057 5.4505C94.9165 5.917 94.7734 6.4855 94.7734 7.1575C94.7734 7.81 94.918 8.3695 95.2057 8.836C95.5549 9.4 96.0411 9.682 96.6688 9.682C97.2842 9.682 97.7657 9.3955 98.1134 8.821C98.4134 8.3455 98.5611 7.7815 98.5611 7.129Z" fill="white"/>
<path d="M108.038 10.672H106.59L106.47 9.8575H106.426C105.93 10.507 105.224 10.8325 104.307 10.8325C103.622 10.8325 103.069 10.618 102.652 10.192C102.273 9.805 102.084 9.3235 102.084 8.752C102.084 7.888 102.453 7.2295 103.196 6.7735C103.938 6.3175 104.981 6.094 106.324 6.1045V5.9725C106.324 5.041 105.822 4.576 104.818 4.576C104.102 4.576 103.472 4.7515 102.927 5.0995L102.599 4.0675C103.273 3.661 104.106 3.457 105.087 3.457C106.982 3.457 107.933 4.432 107.933 6.382V8.986C107.933 9.6925 107.969 10.255 108.038 10.672ZM106.364 8.242V7.1515C104.586 7.1215 103.696 7.597 103.696 8.5765C103.696 8.9455 103.798 9.2215 104.006 9.406C104.213 9.5905 104.478 9.682 104.793 9.682C105.147 9.682 105.478 9.5725 105.779 9.355C106.082 9.136 106.269 8.8585 106.338 8.518C106.355 8.4415 106.364 8.3485 106.364 8.242Z" fill="white"/>
<path d="M117.199 10.672H115.769L115.693 9.53649H115.649C115.192 10.4005 114.413 10.8325 113.319 10.8325C112.446 10.8325 111.718 10.498 111.141 9.82899C110.564 9.15999 110.276 8.29149 110.276 7.22499C110.276 6.08049 110.589 5.15349 111.216 4.44549C111.824 3.78549 112.569 3.45549 113.455 3.45549C114.429 3.45549 115.11 3.77499 115.498 4.41549H115.529V0.356491H117.143V8.76699C117.143 9.45549 117.161 10.09 117.199 10.672ZM115.529 7.68999V6.51099C115.529 6.30699 115.513 6.14199 115.484 6.01599C115.393 5.63799 115.198 5.31999 114.901 5.06349C114.601 4.80699 114.239 4.67799 113.823 4.67799C113.221 4.67799 112.75 4.91049 112.404 5.37699C112.061 5.84349 111.887 6.43899 111.887 7.16649C111.887 7.86549 112.052 8.43249 112.383 8.86899C112.732 9.33399 113.203 9.56649 113.792 9.56649C114.321 9.56649 114.744 9.37299 115.066 8.98449C115.376 8.62599 115.529 8.19399 115.529 7.68999Z" fill="white"/>
<path d="M130.989 7.078C130.989 8.1655 130.67 9.0565 130.033 9.7555C129.366 10.474 128.483 10.8325 127.377 10.8325C126.313 10.8325 125.466 10.489 124.832 9.799C124.201 9.1105 123.886 8.242 123.886 7.195C123.886 6.1 124.21 5.2015 124.863 4.504C125.515 3.8065 126.392 3.457 127.498 3.457C128.561 3.457 129.418 3.8005 130.064 4.489C130.68 5.158 130.989 6.022 130.989 7.078ZM129.318 7.129C129.318 6.4765 129.173 5.917 128.886 5.4505C128.546 4.8865 128.066 4.6045 127.438 4.6045C126.792 4.6045 126.3 4.8865 125.96 5.4505C125.67 5.917 125.527 6.4855 125.527 7.1575C125.527 7.81 125.672 8.3695 125.96 8.836C126.309 9.4 126.795 9.682 127.423 9.682C128.038 9.682 128.523 9.3955 128.87 8.821C129.167 8.3455 129.318 7.7815 129.318 7.129Z" fill="white"/>
<path d="M139.658 10.672H138.047V6.62201C138.047 5.37401 137.561 4.75001 136.584 4.75001C136.106 4.75001 135.72 4.92101 135.421 5.26451C135.123 5.60801 134.973 6.01301 134.973 6.47651V10.6705H133.36V5.62151C133.36 5.00051 133.341 4.32701 133.303 3.59801H134.718L134.794 4.70351H134.838C135.027 4.36001 135.307 4.07651 135.673 3.85001C136.112 3.58601 136.6 3.45251 137.137 3.45251C137.812 3.45251 138.375 3.66551 138.823 4.09301C139.381 4.61651 139.658 5.39801 139.658 6.43601V10.672Z" fill="white"/>
<path d="M150.509 4.7785H148.733V8.2135C148.733 9.0865 149.049 9.523 149.673 9.523C149.963 9.523 150.203 9.499 150.392 9.4495L150.433 10.642C150.115 10.759 149.696 10.8175 149.181 10.8175C148.544 10.8175 148.049 10.6285 147.69 10.2505C147.33 9.8725 147.152 9.2365 147.152 8.344V4.7785H146.092V3.601H147.152V2.305L148.732 1.84V3.5995H150.507V4.7785H150.509Z" fill="white"/>
<path d="M159.045 10.672H157.431V6.65199C157.431 5.38449 156.945 4.74999 155.971 4.74999C155.223 4.74999 154.712 5.11749 154.432 5.85249C154.385 6.00699 154.357 6.19599 154.357 6.41799V10.6705H152.746V0.356491H154.357V4.61799H154.388C154.895 3.84249 155.623 3.45549 156.566 3.45549C157.234 3.45549 157.786 3.66849 158.225 4.09599C158.771 4.62849 159.045 5.42049 159.045 6.46749V10.672Z" fill="white"/>
<path d="M167.849 6.80199C167.849 7.08399 167.828 7.32099 167.789 7.51449H162.954C162.975 8.21349 163.206 8.74599 163.654 9.11499C164.063 9.44499 164.591 9.60999 165.237 9.60999C165.952 9.60999 166.604 9.49899 167.192 9.27549L167.444 10.3675C166.757 10.6585 165.948 10.804 165.011 10.804C163.888 10.804 163.003 10.4815 162.363 9.83649C161.72 9.19149 161.401 8.32599 161.401 7.23999C161.401 6.17349 161.698 5.28549 162.297 4.57749C162.921 3.82149 163.766 3.44349 164.832 3.44349C165.875 3.44349 166.668 3.82149 167.203 4.57749C167.635 5.17749 167.849 5.91999 167.849 6.80199ZM166.311 6.39549C166.323 5.92899 166.217 5.52699 165.998 5.18799C165.718 4.75149 165.292 4.53249 164.715 4.53249C164.189 4.53249 163.76 4.74549 163.432 5.17299C163.164 5.51349 163.006 5.91999 162.954 6.39549H166.311Z" fill="white"/>
<path d="M63.9077 37.7785H60.4138L58.5 31.915H51.8477L50.0246 37.7785H46.623L53.2138 17.8165H57.2846L63.9077 37.7785ZM57.923 29.455L56.1923 24.2425C56.0092 23.71 55.6661 22.456 55.16 20.482H55.0984C54.8969 21.331 54.5723 22.585 54.1261 24.2425L52.4261 29.455H57.923Z" fill="white"/>
<path d="M80.8566 30.4045C80.8566 32.8525 80.1781 34.7875 78.8212 36.208C77.6058 37.4725 76.0966 38.104 74.295 38.104C72.3504 38.104 70.9535 37.423 70.1027 36.061H70.0412V43.6435H66.7612V28.123C66.7612 26.584 66.7196 25.0045 66.6396 23.3845H69.5243L69.7073 25.666H69.7689C70.8627 23.947 72.5227 23.089 74.7504 23.089C76.492 23.089 77.9458 23.7595 79.1089 25.102C80.275 26.446 80.8566 28.213 80.8566 30.4045ZM77.515 30.5215C77.515 29.1205 77.192 27.9655 76.5427 27.0565C75.8335 26.1085 74.8812 25.6345 73.6873 25.6345C72.8781 25.6345 72.1427 25.8985 71.4858 26.419C70.8273 26.944 70.3966 27.6295 70.195 28.4785C70.0935 28.8745 70.0427 29.1985 70.0427 29.4535V31.8535C70.0427 32.9005 70.372 33.784 71.0304 34.5055C71.6889 35.227 72.5443 35.587 73.5966 35.587C74.832 35.587 75.7935 35.122 76.4812 34.195C77.1704 33.2665 77.515 32.0425 77.515 30.5215Z" fill="white"/>
<path d="M97.8365 30.4045C97.8365 32.8525 97.158 34.7875 95.7996 36.208C94.5857 37.4725 93.0765 38.104 91.2749 38.104C89.3303 38.104 87.9334 37.423 87.0842 36.061H87.0226V43.6435H83.7426V28.123C83.7426 26.584 83.7011 25.0045 83.6211 23.3845H86.5057L86.6888 25.666H86.7503C87.8426 23.947 89.5026 23.089 91.7319 23.089C93.4719 23.089 94.9257 23.7595 96.0919 25.102C97.2534 26.446 97.8365 28.213 97.8365 30.4045ZM94.4949 30.5215C94.4949 29.1205 94.1703 27.9655 93.5211 27.0565C92.8119 26.1085 91.8626 25.6345 90.6673 25.6345C89.8565 25.6345 89.1226 25.8985 88.4642 26.419C87.8057 26.944 87.3765 27.6295 87.1749 28.4785C87.0749 28.8745 87.0226 29.1985 87.0226 29.4535V31.8535C87.0226 32.9005 87.3519 33.784 88.0072 34.5055C88.6657 35.2255 89.5211 35.587 90.5765 35.587C91.8119 35.587 92.7734 35.122 93.4611 34.195C94.1503 33.2665 94.4949 32.0425 94.4949 30.5215Z" fill="white"/>
<path d="M116.822 32.1805C116.822 33.8785 116.217 35.26 115.003 36.3265C113.669 37.492 111.812 38.074 109.426 38.074C107.223 38.074 105.457 37.66 104.12 36.8305L104.88 34.165C106.32 35.014 107.9 35.44 109.622 35.44C110.857 35.44 111.819 35.167 112.509 34.624C113.197 34.081 113.54 33.352 113.54 32.443C113.54 31.633 113.257 30.9505 112.689 30.397C112.125 29.8435 111.182 29.329 109.865 28.8535C106.28 27.55 104.489 25.6405 104.489 23.1295C104.489 21.4885 105.117 20.143 106.374 19.096C107.626 18.0475 109.297 17.524 111.386 17.524C113.249 17.524 114.797 17.8405 116.032 18.472L115.212 21.079C114.059 20.467 112.754 20.161 111.294 20.161C110.14 20.161 109.239 20.4385 108.592 20.9905C108.046 21.484 107.772 22.0855 107.772 22.798C107.772 23.587 108.085 24.2395 108.712 24.7525C109.259 25.2265 110.251 25.7395 111.691 26.293C113.452 26.9845 114.746 27.793 115.579 28.72C116.408 29.644 116.822 30.8005 116.822 32.1805Z" fill="white"/>
<path d="M127.667 25.7845H124.051V32.773C124.051 34.5505 124.688 35.4385 125.965 35.4385C126.551 35.4385 127.037 35.389 127.422 35.29L127.513 37.7185C126.867 37.954 126.016 38.0725 124.962 38.0725C123.667 38.0725 122.654 37.687 121.923 36.9175C121.196 36.1465 120.83 34.8535 120.83 33.037V25.7815H118.676V23.3815H120.83V20.746L124.051 19.798V23.3815H127.667V25.7845Z" fill="white"/>
<path d="M143.979 30.463C143.979 32.6755 143.329 34.492 142.034 35.9125C140.675 37.375 138.872 38.104 136.625 38.104C134.459 38.104 132.734 37.4035 131.448 36.0025C130.162 34.6015 129.519 32.833 129.519 30.7015C129.519 28.471 130.18 26.644 131.508 25.2235C132.832 23.8015 134.62 23.0905 136.868 23.0905C139.034 23.0905 140.777 23.791 142.092 25.1935C143.351 26.554 143.979 28.3105 143.979 30.463ZM140.575 30.5665C140.575 29.239 140.285 28.1005 139.695 27.151C139.008 26.002 138.025 25.429 136.751 25.429C135.432 25.429 134.431 26.0035 133.743 27.151C133.154 28.102 132.863 29.2585 132.863 30.6265C132.863 31.954 133.154 33.0925 133.743 34.0405C134.452 35.1895 135.443 35.7625 136.722 35.7625C137.974 35.7625 138.957 35.1775 139.666 34.0105C140.271 33.043 140.575 31.8925 140.575 30.5665Z" fill="white"/>
<path d="M154.64 26.197C154.315 26.1385 153.969 26.1085 153.606 26.1085C152.452 26.1085 151.56 26.533 150.932 27.3835C150.386 28.1335 150.112 29.0815 150.112 30.226V37.7785H146.834L146.864 27.9175C146.864 26.2585 146.823 24.748 146.741 23.386H149.598L149.718 26.14H149.809C150.155 25.1935 150.701 24.4315 151.449 23.86C152.18 23.3455 152.969 23.089 153.82 23.089C154.123 23.089 154.397 23.11 154.64 23.1475V26.197Z" fill="white"/>
<path d="M169.309 29.9005C169.309 30.4735 169.271 30.9565 169.189 31.351H159.349C159.388 32.773 159.863 33.8605 160.777 34.6105C161.606 35.281 162.679 35.617 163.996 35.617C165.453 35.617 166.782 35.3905 167.977 34.936L168.491 37.156C167.094 37.75 165.445 38.0455 163.542 38.0455C161.253 38.0455 159.456 37.3885 158.148 36.076C156.843 34.7635 156.189 33.001 156.189 30.79C156.189 28.6195 156.797 26.812 158.014 25.3705C159.288 23.8315 161.009 23.062 163.176 23.062C165.303 23.062 166.914 23.8315 168.008 25.3705C168.874 26.593 169.309 28.105 169.309 29.9005ZM166.182 29.071C166.203 28.123 165.989 27.304 165.545 26.6125C164.977 25.723 164.105 25.279 162.931 25.279C161.859 25.279 160.986 25.7125 160.32 26.5825C159.774 27.274 159.449 28.1035 159.349 29.0695H166.182V29.071Z" fill="white"/>
</svg>
