<svg width="15" height="15" viewBox="0 0 15 15" fill="none" xmlns="http://www.w3.org/2000/svg">
<path d="M14.7807 13.7194C14.8504 13.789 14.9056 13.8718 14.9433 13.9628C14.9811 14.0539 15.0005 14.1514 15.0005 14.25C15.0005 14.3485 14.9811 14.4461 14.9433 14.5372C14.9056 14.6282 14.8504 14.7109 14.7807 14.7806C14.711 14.8503 14.6283 14.9056 14.5372 14.9433C14.4462 14.981 14.3486 15.0004 14.2501 15.0004C14.1515 15.0004 14.0539 14.981 13.9629 14.9433C13.8718 14.9056 13.7891 14.8503 13.7194 14.7806L7.50005 8.5603L1.28068 14.7806C1.13995 14.9213 0.949074 15.0004 0.750051 15.0004C0.551028 15.0004 0.360156 14.9213 0.219426 14.7806C0.0786953 14.6399 -0.000366207 14.449 -0.000366211 14.25C-0.000366215 14.051 0.0786953 13.8601 0.219426 13.7194L6.43974 7.49999L0.219426 1.28061C0.0786953 1.13988 -0.000366211 0.949013 -0.000366211 0.74999C-0.000366211 0.550967 0.0786953 0.360095 0.219426 0.219365C0.360156 0.0786343 0.551028 -0.000427246 0.750051 -0.000427246C0.949074 -0.000427246 1.13995 0.0786343 1.28068 0.219365L7.50005 6.43968L13.7194 0.219365C13.8602 0.0786343 14.051 -0.00042725 14.2501 -0.000427246C14.4491 -0.000427242 14.6399 0.0786343 14.7807 0.219365C14.9214 0.360095 15.0005 0.550967 15.0005 0.74999C15.0005 0.949013 14.9214 1.13988 14.7807 1.28061L8.56036 7.49999L14.7807 13.7194Z" fill="#C2C2C2"/>
</svg>
