<svg width="26" height="26" viewBox="0 0 26 26" fill="none" xmlns="http://www.w3.org/2000/svg">
<path d="M13 26C20.1797 26 26 20.1797 26 13C26 5.8203 20.1797 0 13 0C5.8203 0 0 5.8203 0 13C0 20.1797 5.8203 26 13 26Z" fill="#CEE6ED"/>
<path d="M1.06641 13.0004C1.06641 6.40873 6.40937 1.06577 13.0011 1.06577C19.5928 1.06577 24.9358 6.40873 24.9358 13.0004C24.9358 19.5921 19.5928 24.9351 13.0011 24.9351C6.40937 24.9351 1.06641 19.5921 1.06641 13.0004Z" fill="#F5F5F5"/>
<path d="M2.76929 13.0004C2.76929 7.35094 7.34843 2.77054 12.9992 2.77054C18.6499 2.77054 23.2291 7.35094 23.2291 13.0004C23.2291 18.6499 18.6487 23.2303 12.9992 23.2303C7.34969 23.2303 2.76929 18.6499 2.76929 13.0004Z" fill="#F2C32F"/>
<g style="mix-blend-mode:overlay" opacity="0.5">
<path d="M9.52838 18.0228C12.4128 19.6648 15.4744 18.6434 17.2922 15.7603C17.4995 19.9487 8.5937 21.4877 8.55225 17.1359H8.59622L9.52838 18.0228Z" fill="#F5F5F5"/>
</g>
<g style="mix-blend-mode:overlay" opacity="0.5">
<path d="M9.44727 20.5431C5.85807 17.93 5.54777 13.0003 7.26636 10.435C8.85933 8.05939 11.5704 7.46265 13.9661 8.43878C15.5628 9.05939 18.2701 12.876 20.1772 11.4111C20.9762 10.7905 20.9762 9.36969 20.799 8.48275C19.8706 4.77295 15.2236 3.35461 11.8895 3.75285C10.8568 3.87597 9.75631 4.15486 8.82038 4.6222C4.56033 6.7516 2.48496 12.6687 4.57038 17.0167C5.50254 18.925 6.50882 20.175 8.33294 21.3936C9.28646 22.0305 13.0051 23.229 14.8932 21.523C13.3744 21.8521 10.5314 21.332 9.44852 20.5431H9.44727Z" fill="#F5F5F5"/>
</g>
<path d="M13.0786 13.773C13.3425 13.0105 11.8676 12.6411 11.9216 11.9313C12.1842 11.8522 12.4744 12.0105 12.6842 12.1424C12.3161 11.8007 11.8161 11.1688 11.9731 10.5896C12.1578 9.93132 12.5787 10.7743 12.7633 11.0896C12.448 10.5369 12.1842 9.58962 12.605 9.03685C12.8412 9.24791 12.8412 9.64238 12.894 9.93132C12.9467 9.45771 12.9995 9.06323 13.1565 8.616C13.2884 8.32705 13.6302 7.43258 13.8676 7.98409C14.1302 8.58962 13.4204 9.77303 13.2885 10.3522C13.3676 10.0896 13.9995 9.3258 14.1302 9.8258C14.2093 10.1939 13.4455 10.7466 13.2621 11.0356C13.3676 10.8509 14.1038 10.2982 14.2357 10.6939C14.3148 10.9564 13.551 11.6147 13.3676 11.7467C13.5523 11.6411 13.9995 11.3786 14.1829 11.6147C14.4719 11.9037 13.9455 12.1411 13.7621 12.2994C13.394 12.5884 13.1302 13.0105 13.1302 13.5092L13.0774 13.7718L13.0786 13.773Z" fill="#5BC64F"/>
<path d="M13.0271 13.773C13.6854 12.7994 14.316 12.7466 15.4743 12.9313C15.0007 14.1147 14.1326 14.273 13.0535 13.7994L13.0271 13.773Z" fill="#3FA656"/>
<path d="M12.4987 14.141C12.2889 13.9827 11.8668 13.7729 11.6042 13.6937C11.4459 13.6674 10.9195 13.5882 10.868 13.8257C10.8152 14.0355 11.4208 14.1146 11.5791 14.1674C11.211 14.1146 10.1846 14.0091 10.0527 14.5091C10.3429 14.641 10.7637 14.6146 11.0527 14.5618C10.5263 14.641 9.60545 14.9563 9.71098 15.6674C10.1055 15.7465 10.6582 15.2465 10.922 14.9839C10.7901 15.1937 10.6846 15.4576 10.711 15.7201C11.211 15.7465 11.5791 14.852 11.7901 14.4827C11.6318 14.8244 11.6582 15.298 12.0527 14.9035C12.2625 14.6937 12.2097 14.3508 12.4999 14.2189V14.1397L12.4987 14.141Z" fill="#3FA656"/>
<path d="M10.5506 12.7204C9.89232 12.7467 9.47146 12.405 9.52423 11.694C9.97146 11.6676 10.9978 12.194 10.6034 12.694L10.5506 12.7204Z" fill="#3FA656"/>
<path d="M13.4984 14.9314C13.2346 15.5105 13.7082 15.8259 14.2346 15.8786C14.4192 15.1424 14.261 14.9578 13.5763 14.8522L13.4971 14.9314H13.4984Z" fill="#5BC64F"/>
<g style="mix-blend-mode:overlay" opacity="0.5">
<path d="M18.7243 18.0961C19.5232 17.0307 19.9667 16.0106 20.4994 14.8134C20.7657 15.7003 20.9428 16.5433 20.4102 17.3423C20.1439 17.7418 18.4579 18.7619 18.5471 18.2292L18.7243 18.0961Z" fill="#F5F5F5"/>
</g>
<g style="mix-blend-mode:multiply" opacity="0.65">
<path d="M10.1093 7.19892C10.1093 7.37355 9.92467 7.51551 9.69603 7.51551C9.46739 7.51551 9.28271 7.37355 9.28271 7.19892C9.28271 7.0243 9.46739 6.88234 9.69603 6.88234C9.92467 6.88234 10.1093 7.0243 10.1093 7.19892Z" fill="#F2C32F"/>
</g>
<g style="mix-blend-mode:multiply" opacity="0.65">
<path d="M13.6073 5.12597C13.6073 5.26918 13.4917 5.38476 13.351 5.38476C13.2103 5.38476 13.0947 5.26918 13.0947 5.12597C13.0947 4.98275 13.2103 4.86717 13.351 4.86717C13.4917 4.86717 13.6073 4.98275 13.6073 5.12597Z" fill="#F2C32F"/>
</g>
<g style="mix-blend-mode:multiply" opacity="0.65">
<path d="M15.475 5.47142C15.475 5.66238 15.2803 5.8169 15.0416 5.8169C14.8029 5.8169 14.6082 5.66238 14.6082 5.47142C14.6082 5.28047 14.8029 5.12595 15.0416 5.12595C15.2803 5.12595 15.475 5.28047 15.475 5.47142Z" fill="#F2C32F"/>
</g>
<g style="mix-blend-mode:multiply" opacity="0.65">
<path d="M16.4022 5.86725C16.4022 6.00544 16.2754 6.11725 16.1196 6.11725C15.9638 6.11725 15.8369 6.00544 15.8369 5.86725C15.8369 5.72906 15.9638 5.61725 16.1196 5.61725C16.2754 5.61725 16.4022 5.72906 16.4022 5.86725Z" fill="#F2C32F"/>
</g>
<g style="mix-blend-mode:multiply" opacity="0.65">
<path d="M15.1735 6.74912C15.1735 6.82198 15.0466 6.88228 14.8908 6.88228C14.735 6.88228 14.6082 6.82324 14.6082 6.74912C14.6082 6.675 14.735 6.61595 14.8908 6.61595C15.0466 6.61595 15.1735 6.675 15.1735 6.74912Z" fill="#F2C32F"/>
</g>
<g style="mix-blend-mode:multiply" opacity="0.65">
<path d="M19.1654 7.19892C19.1654 7.37355 18.889 7.51551 18.5473 7.51551C18.2056 7.51551 17.9292 7.37355 17.9292 7.19892C17.9292 7.0243 18.2056 6.88234 18.5473 6.88234C18.889 6.88234 19.1654 7.0243 19.1654 7.19892Z" fill="#F2C32F"/>
</g>
<g style="mix-blend-mode:multiply" opacity="0.65">
<path d="M16.1206 10.2933C16.1206 10.3762 15.9761 10.4428 15.7977 10.4428C15.6193 10.4428 15.4749 10.3762 15.4749 10.2933C15.4749 10.2104 15.6193 10.1438 15.7977 10.1438C15.9761 10.1438 16.1206 10.2116 16.1206 10.2933Z" fill="#F2C32F"/>
</g>
<g style="mix-blend-mode:multiply" opacity="0.65">
<path d="M17.0716 10.6161C17.0716 10.7116 16.9221 10.7895 16.7387 10.7895C16.5553 10.7895 16.4058 10.7116 16.4058 10.6161C16.4058 10.5206 16.5553 10.4427 16.7387 10.4427C16.9221 10.4427 17.0716 10.5206 17.0716 10.6161Z" fill="#F2C32F"/>
</g>
<g style="mix-blend-mode:multiply" opacity="0.65">
<path d="M17.0686 11.7907C17.0686 11.9289 16.8563 12.0407 16.595 12.0407C16.3337 12.0407 16.1213 11.9289 16.1213 11.7907C16.1213 11.6525 16.3337 11.5407 16.595 11.5407C16.8563 11.5407 17.0686 11.6525 17.0686 11.7907Z" fill="#F2C32F"/>
</g>
<g style="mix-blend-mode:multiply" opacity="0.65">
<path d="M17.7025 12.5971C17.7025 12.6662 17.5605 12.7215 17.3859 12.7215C17.2113 12.7215 17.0693 12.6662 17.0693 12.5971C17.0693 12.528 17.2113 12.4727 17.3859 12.4727C17.5605 12.4727 17.7025 12.528 17.7025 12.5971Z" fill="#F2C32F"/>
</g>
<g style="mix-blend-mode:multiply" opacity="0.65">
<path d="M15.8358 16.366C15.8358 16.4942 15.7541 16.5984 15.6536 16.5984C15.5531 16.5984 15.4714 16.4942 15.4714 16.366C15.4714 16.2379 15.5531 16.1336 15.6536 16.1336C15.7541 16.1336 15.8358 16.2379 15.8358 16.366Z" fill="#F2C32F"/>
</g>
<g style="mix-blend-mode:multiply" opacity="0.65">
<path d="M16.4011 18.5456C16.4011 18.6838 16.1925 18.7956 15.9363 18.7956C15.68 18.7956 15.4714 18.6838 15.4714 18.5456C15.4714 18.4074 15.68 18.2956 15.9363 18.2956C16.1925 18.2956 16.4011 18.4074 16.4011 18.5456Z" fill="#F2C32F"/>
</g>
<g style="mix-blend-mode:multiply" opacity="0.65">
<path d="M12.999 18.4213C12.999 18.4904 12.9412 18.5456 12.8708 18.5456C12.8005 18.5456 12.7427 18.4904 12.7427 18.4213C12.7427 18.3522 12.8005 18.2969 12.8708 18.2969C12.9412 18.2969 12.999 18.3522 12.999 18.4213Z" fill="#F2C32F"/>
</g>
<g style="mix-blend-mode:multiply" opacity="0.65">
<path d="M12.7415 18.6701C12.7415 18.7392 12.6448 18.7945 12.5254 18.7945C12.4061 18.7945 12.3093 18.7379 12.3093 18.6701C12.3093 18.6023 12.4061 18.5457 12.5254 18.5457C12.6448 18.5457 12.7415 18.6023 12.7415 18.6701Z" fill="#F2C32F"/>
</g>
<g style="mix-blend-mode:multiply" opacity="0.65">
<path d="M10.6962 19.827C10.6962 19.8998 10.514 19.9602 10.2891 19.9602C10.0642 19.9602 9.88208 19.9011 9.88208 19.827C9.88208 19.7529 10.0642 19.6938 10.2891 19.6938C10.514 19.6938 10.6962 19.7529 10.6962 19.827Z" fill="#F2C32F"/>
</g>
<g style="mix-blend-mode:multiply" opacity="0.65">
<path d="M9.28402 18.396C9.28402 18.69 9.03779 18.9287 8.73503 18.9287C8.43227 18.9287 8.18604 18.69 8.18604 18.396C8.18604 18.102 8.43227 17.8634 8.73503 17.8634C9.03779 17.8634 9.28402 18.102 9.28402 18.396Z" fill="#F2C32F"/>
</g>
<g style="mix-blend-mode:multiply" opacity="0.65">
<path d="M6.65568 15.8171C6.65568 15.9918 6.47729 16.1337 6.25619 16.1337C6.03508 16.1337 5.85669 15.9918 5.85669 15.8171C5.85669 15.6425 6.03508 15.5005 6.25619 15.5005C6.47729 15.5005 6.65568 15.6425 6.65568 15.8171Z" fill="#F2C32F"/>
</g>
<g style="mix-blend-mode:multiply" opacity="0.65">
<path d="M13.3508 20.6424C13.3508 20.7618 13.1598 20.8585 12.9249 20.8585C12.69 20.8585 12.499 20.7618 12.499 20.6424C12.499 20.5231 12.69 20.4263 12.9249 20.4263C13.1598 20.4263 13.3508 20.5231 13.3508 20.6424Z" fill="#F2C32F"/>
</g>
<g style="mix-blend-mode:multiply" opacity="0.65">
<path d="M14.2687 20.3596C14.2687 20.396 14.1783 20.4262 14.0677 20.4262C13.9571 20.4262 13.8667 20.396 13.8667 20.3596C13.8667 20.3232 13.9571 20.293 14.0677 20.293C14.1783 20.293 14.2687 20.3232 14.2687 20.3596Z" fill="#F2C32F"/>
</g>
<g style="mix-blend-mode:multiply" opacity="0.65">
<path d="M14.6061 17.9299C14.6061 17.9664 14.5269 17.9965 14.4277 17.9965C14.3284 17.9965 14.2493 17.9664 14.2493 17.9299C14.2493 17.8935 14.3284 17.8634 14.4277 17.8634C14.5269 17.8634 14.6061 17.8935 14.6061 17.9299Z" fill="#F2C32F"/>
</g>
<g style="mix-blend-mode:multiply" opacity="0.65">
<path d="M22.2048 10.4666C22.2048 10.645 22.0314 10.7907 21.8179 10.7907C21.6043 10.7907 21.4297 10.6463 21.4297 10.4666C21.4297 10.287 21.6031 10.1425 21.8179 10.1425C22.0327 10.1425 22.2048 10.287 22.2048 10.4666Z" fill="#F2C32F"/>
</g>
<g style="mix-blend-mode:multiply" opacity="0.65">
<path d="M21.4296 10.1022C21.4296 10.2077 21.3027 10.2931 21.1469 10.2931C20.9911 10.2931 20.8643 10.2077 20.8643 10.1022C20.8643 9.99665 20.9911 9.91122 21.1469 9.91122C21.3027 9.91122 21.4296 9.99665 21.4296 10.1022Z" fill="#F2C32F"/>
</g>
<g style="mix-blend-mode:multiply" opacity="0.65">
<path d="M21.4296 10.9665C21.4296 11.0632 21.2663 11.1423 21.0641 11.1423C20.8618 11.1423 20.6985 11.0632 20.6985 10.9665C20.6985 10.8697 20.8618 10.7906 21.0641 10.7906C21.2663 10.7906 21.4296 10.8697 21.4296 10.9665Z" fill="#F2C32F"/>
</g>
<g style="mix-blend-mode:multiply" opacity="0.65">
<path d="M5.85555 10.8786C5.85555 11.0231 5.696 11.1412 5.50002 11.1412C5.30404 11.1412 5.14575 11.0231 5.14575 10.8786C5.14575 10.7341 5.30404 10.616 5.50002 10.616C5.696 10.616 5.85555 10.7341 5.85555 10.8786Z" fill="#F2C32F"/>
</g>
<g style="mix-blend-mode:multiply" opacity="0.65">
<path d="M6.25619 10.1022C6.25619 10.2077 6.16699 10.2931 6.05644 10.2931C5.94588 10.2931 5.85669 10.2077 5.85669 10.1022C5.85669 9.99665 5.94588 9.91122 6.05644 9.91122C6.16699 9.91122 6.25619 9.99665 6.25619 10.1022Z" fill="#F2C32F"/>
</g>
<g style="mix-blend-mode:multiply" opacity="0.65">
<path d="M7.85178 11.1161C7.85178 11.2467 7.72238 11.3522 7.56283 11.3522C7.40328 11.3522 7.27515 11.2467 7.27515 11.1161C7.27515 10.9854 7.40454 10.8799 7.56283 10.8799C7.72112 10.8799 7.85178 10.9854 7.85178 11.1161Z" fill="#F2C32F"/>
</g>
<g style="mix-blend-mode:multiply" opacity="0.65">
<path d="M7.27636 8.46895C7.27636 8.64106 7.13692 8.77925 6.96606 8.77925C6.79521 8.77925 6.65576 8.6398 6.65576 8.46895C6.65576 8.29809 6.79521 8.15865 6.96606 8.15865C7.13692 8.15865 7.27636 8.29809 7.27636 8.46895Z" fill="#F2C32F"/>
</g>
<g style="mix-blend-mode:multiply" opacity="0.65">
<path d="M5.14467 12.8208C5.14467 12.9439 4.90598 13.0444 4.61201 13.0444C4.31804 13.0444 4.07935 12.9439 4.07935 12.8208C4.07935 12.6976 4.31804 12.5971 4.61201 12.5971C4.90598 12.5971 5.14467 12.6976 5.14467 12.8208Z" fill="#F2C32F"/>
</g>
<g style="mix-blend-mode:multiply" opacity="0.65">
<path d="M5.50002 12.2567C5.50002 12.3761 5.42088 12.4728 5.32289 12.4728C5.2249 12.4728 5.14575 12.3761 5.14575 12.2567C5.14575 12.1374 5.2249 12.0407 5.32289 12.0407C5.42088 12.0407 5.50002 12.1374 5.50002 12.2567Z" fill="#F2C32F"/>
</g>
<g style="mix-blend-mode:multiply" opacity="0.65">
<path d="M8.73384 13.5167C8.73384 13.6587 8.47254 13.773 8.14842 13.773C7.8243 13.773 7.56299 13.6587 7.56299 13.5167C7.56299 13.3748 7.82555 13.2605 8.14842 13.2605C8.47128 13.2605 8.73384 13.3748 8.73384 13.5167Z" fill="#F2C32F"/>
</g>
<g style="mix-blend-mode:multiply" opacity="0.65">
<path d="M9.28337 13.0406C9.28337 13.1612 9.16025 13.2605 9.00824 13.2605C8.85623 13.2605 8.73438 13.1625 8.73438 13.0406C8.73438 12.9188 8.85749 12.8208 9.00824 12.8208C9.159 12.8208 9.28337 12.9188 9.28337 13.0406Z" fill="#F2C32F"/>
</g>
<g style="mix-blend-mode:multiply" opacity="0.65">
<path d="M10.6943 10.5419C10.6943 10.6788 10.5637 10.7906 10.4016 10.7906C10.2395 10.7906 10.1089 10.6788 10.1089 10.5419C10.1089 10.405 10.2395 10.2932 10.4016 10.2932C10.5637 10.2932 10.6943 10.4037 10.6943 10.5419Z" fill="#F2C32F"/>
</g>
<g style="mix-blend-mode:multiply" opacity="0.65">
<path d="M8.18374 15.6299C8.18374 15.7016 8.10962 15.7593 8.01666 15.7593C7.9237 15.7593 7.85083 15.7016 7.85083 15.6299C7.85083 15.5583 7.92495 15.5005 8.01666 15.5005C8.10837 15.5005 8.18374 15.5583 8.18374 15.6299Z" fill="#F2C32F"/>
</g>
<g style="mix-blend-mode:multiply" opacity="0.65">
<path d="M5.14692 15.1085C5.14692 15.2505 5.02757 15.3648 4.88059 15.3648C4.7336 15.3648 4.61426 15.2505 4.61426 15.1085C4.61426 14.9666 4.7336 14.8522 4.88059 14.8522C5.02757 14.8522 5.14692 14.9666 5.14692 15.1085Z" fill="#F2C32F"/>
</g>
<g style="mix-blend-mode:multiply" opacity="0.65">
<path d="M3.74657 14.9603C3.74657 15.042 3.65235 15.1073 3.53552 15.1073C3.41868 15.1073 3.32446 15.0407 3.32446 14.9603C3.32446 14.8799 3.41868 14.8133 3.53552 14.8133C3.65235 14.8133 3.74657 14.8799 3.74657 14.9603Z" fill="#F2C32F"/>
</g>
<g style="mix-blend-mode:multiply" opacity="0.65">
<path d="M5.85444 17.3647C5.85444 17.4501 5.73509 17.5205 5.58811 17.5205C5.44112 17.5205 5.32178 17.4514 5.32178 17.3647C5.32178 17.278 5.44112 17.2089 5.58811 17.2089C5.73509 17.2089 5.85444 17.278 5.85444 17.3647Z" fill="#F2C32F"/>
</g>
<g style="mix-blend-mode:multiply" opacity="0.65">
<path d="M19.646 15.0897C19.646 15.2417 19.5379 15.3661 19.4047 15.3661C19.2716 15.3661 19.1648 15.243 19.1648 15.0897C19.1648 14.9364 19.2728 14.8133 19.4047 14.8133C19.5367 14.8133 19.646 14.9364 19.646 15.0897Z" fill="#F2C32F"/>
</g>
<g style="mix-blend-mode:multiply" opacity="0.65">
<path d="M20.2742 14.1424C20.2742 14.1939 20.2051 14.2366 20.1196 14.2366C20.0342 14.2366 19.9639 14.1952 19.9639 14.1424C19.9639 14.0897 20.033 14.0482 20.1196 14.0482C20.2063 14.0482 20.2742 14.0909 20.2742 14.1424Z" fill="#F2C32F"/>
</g>
<g style="mix-blend-mode:multiply" opacity="0.65">
<path d="M17.0716 14.4162C17.0716 14.5682 16.9221 14.6901 16.7387 14.6901C16.5553 14.6901 16.4058 14.567 16.4058 14.4162C16.4058 14.2655 16.5553 14.1424 16.7387 14.1424C16.9221 14.1424 17.0716 14.2655 17.0716 14.4162Z" fill="#F2C32F"/>
</g>
<g style="mix-blend-mode:multiply" opacity="0.65">
<path d="M18.1905 14.3259C18.1905 14.3762 18.1327 14.4164 18.0599 14.4164C17.987 14.4164 17.9292 14.3762 17.9292 14.3259C17.9292 14.2757 17.987 14.2355 18.0599 14.2355C18.1327 14.2355 18.1905 14.2757 18.1905 14.3259Z" fill="#F2C32F"/>
</g>
<g style="mix-blend-mode:multiply" opacity="0.65">
<path d="M15.0428 11.3407C15.0428 11.4513 14.9448 11.5405 14.8255 11.5405C14.7061 11.5405 14.6082 11.4513 14.6082 11.3407C14.6082 11.2302 14.7049 11.141 14.8255 11.141C14.9461 11.141 15.0428 11.2302 15.0428 11.3407Z" fill="#F2C32F"/>
</g>
<g style="mix-blend-mode:multiply" opacity="0.65">
<path d="M11.5364 12.5971C11.5364 12.6662 11.4397 12.7215 11.3203 12.7215C11.201 12.7215 11.1042 12.6662 11.1042 12.5971C11.1042 12.528 11.201 12.4727 11.3203 12.4727C11.4397 12.4727 11.5364 12.528 11.5364 12.5971Z" fill="#F2C32F"/>
</g>
<g style="mix-blend-mode:multiply" opacity="0.65">
<path d="M12.743 15.1348C12.743 15.2617 12.5884 15.3647 12.3975 15.3647C12.2065 15.3647 12.052 15.2617 12.052 15.1348C12.052 15.008 12.2065 14.9049 12.3975 14.9049C12.5884 14.9049 12.743 15.008 12.743 15.1348Z" fill="#F2C32F"/>
</g>
<g style="mix-blend-mode:multiply" opacity="0.65">
<path d="M12.743 16.9038C12.743 17.0721 12.5884 17.209 12.3975 17.209C12.2065 17.209 12.052 17.0721 12.052 16.9038C12.052 16.7354 12.2065 16.5985 12.3975 16.5985C12.5884 16.5985 12.743 16.7354 12.743 16.9038Z" fill="#F2C32F"/>
</g>
<g style="mix-blend-mode:multiply" opacity="0.65">
<path d="M16.4019 20.4677C16.4019 20.5644 16.2662 20.6423 16.0992 20.6423C15.9321 20.6423 15.7964 20.5644 15.7964 20.4677C15.7964 20.3709 15.9321 20.293 16.0992 20.293C16.2662 20.293 16.4019 20.3709 16.4019 20.4677Z" fill="#F2C32F"/>
</g>
<g style="mix-blend-mode:multiply" opacity="0.65">
<path d="M18.0593 20.4087C18.0593 20.6574 17.8382 20.8584 17.5643 20.8584C17.2904 20.8584 17.0693 20.6574 17.0693 20.4087C17.0693 20.1599 17.2904 19.9589 17.5643 19.9589C17.8382 19.9589 18.0593 20.1599 18.0593 20.4087Z" fill="#F2C32F"/>
</g>
<g style="mix-blend-mode:multiply" opacity="0.65">
<path d="M18.8107 20.126C18.8107 20.2177 18.7114 20.2931 18.5883 20.2931C18.4652 20.2931 18.366 20.219 18.366 20.126C18.366 20.0331 18.4652 19.9602 18.5883 19.9602C18.7114 19.9602 18.8107 20.0343 18.8107 20.126Z" fill="#F2C32F"/>
</g>
<g style="mix-blend-mode:multiply" opacity="0.65">
<path d="M19.6465 19.0671C19.6465 19.1437 19.5925 19.2053 19.5259 19.2053C19.4593 19.2053 19.4053 19.1425 19.4053 19.0671C19.4053 18.9917 19.4593 18.9289 19.5259 18.9289C19.5925 18.9289 19.6465 18.9905 19.6465 19.0671Z" fill="#F2C32F"/>
</g>
<g style="mix-blend-mode:multiply" opacity="0.65">
<path d="M19.646 15.562C19.646 15.6712 19.5379 15.7592 19.4047 15.7592C19.2716 15.7592 19.1648 15.6712 19.1648 15.562C19.1648 15.4527 19.2728 15.3647 19.4047 15.3647C19.5367 15.3647 19.646 15.4527 19.646 15.562Z" fill="#F2C32F"/>
</g>
<g style="mix-blend-mode:multiply" opacity="0.65">
<path d="M21.8161 14.6149C21.8161 14.7242 21.6654 14.8134 21.4807 14.8134C21.296 14.8134 21.1453 14.7242 21.1453 14.6149C21.1453 14.5056 21.296 14.4164 21.4807 14.4164C21.6654 14.4164 21.8161 14.5056 21.8161 14.6149Z" fill="#F2C32F"/>
</g>
<g style="mix-blend-mode:multiply" opacity="0.65">
<path d="M22.2048 13.3509C22.2048 13.5218 22.0314 13.6612 21.8179 13.6612C21.6043 13.6612 21.4297 13.5231 21.4297 13.3509C21.4297 13.1788 21.6031 13.0419 21.8179 13.0419C22.0327 13.0419 22.2048 13.1801 22.2048 13.3509Z" fill="#F2C32F"/>
</g>
<path d="M8.3147 5.8873C8.38002 5.78931 8.576 5.6574 8.67525 5.59207C8.87123 5.85338 9.00314 6.18127 9.19912 6.44383C9.06846 6.50916 8.87123 6.50916 8.90389 6.50916L8.3147 5.8873Z" fill="#C17C4D"/>
<path d="M18.6285 9.19527C18.5631 9.12994 18.5305 8.99803 18.4978 8.9327C18.7264 8.86738 18.989 8.76939 19.2177 8.63873C19.2503 8.73672 19.3156 9.03195 19.3156 8.99929L18.6285 9.19652V9.19527Z" fill="#C17C4D"/>
<path d="M10.4766 17.7102C10.5419 17.7428 10.6399 17.7428 10.7379 17.7428C10.7052 17.4149 10.6399 17.0883 10.6399 16.7604C10.5419 16.7278 10.41 16.6951 10.312 16.7278L10.4753 17.7102H10.4766Z" fill="#C17C4D"/>
<path d="M17.5031 18.7681C17.6048 18.7681 17.733 18.7429 17.8347 18.7165C17.7066 18.4615 17.6048 18.1801 17.5533 17.9C17.4516 17.9251 17.2983 17.9251 17.2217 17.9766L17.5018 18.7681H17.5031Z" fill="#C17C4D"/>
<path d="M17.7869 17.44C17.8384 17.5166 17.9401 17.5681 17.9916 17.6448C18.0683 17.6196 18.17 17.5681 18.2215 17.4664C18.1198 17.3646 17.9665 17.2365 17.8648 17.1598L17.7881 17.4412L17.7869 17.44Z" fill="#C17C4D"/>
<path d="M4.53534 11.7995C4.61197 11.7995 4.6886 11.7744 4.73885 11.748C4.71373 11.493 4.61071 11.238 4.56046 10.9829C4.48383 11.0081 4.35569 11.0081 4.27905 11.0344L4.53408 11.8008L4.53534 11.7995Z" fill="#C17C4D"/>
<path d="M6.40225 18.0532C6.32561 18.028 6.24898 17.9514 6.19873 17.8748V17.8497C6.40225 17.7215 6.63215 17.5683 6.86205 17.4929C6.88717 17.5444 6.96381 17.621 6.96381 17.6713L6.40225 18.0544V18.0532Z" fill="#C17C4D"/>
<path d="M6.50433 17.0068C6.47921 16.9552 6.50433 16.8535 6.50433 16.7769C6.78574 16.7769 7.09101 16.802 7.37242 16.802C7.37242 16.8786 7.37242 17.0319 7.3473 17.057L6.50433 17.0055V17.0068Z" fill="#C17C4D"/>
<path d="M18.9583 12.5392C18.9583 12.5907 18.9834 12.6925 18.9834 12.7691C19.2899 12.744 19.6982 12.7691 20.0047 12.6925C20.0047 12.6158 20.0047 12.5392 19.9796 12.4626L18.9583 12.5392Z" fill="#C17C4D"/>
<path d="M19.5474 13.1776C19.624 13.126 19.7258 13.1776 19.8024 13.1009C19.8275 13.2793 19.9041 13.4326 19.9557 13.611C19.879 13.611 19.8275 13.6612 19.7773 13.6612L19.5474 13.1763V13.1776Z" fill="#C17C4D"/>
<path d="M16.7037 7.68134C16.6045 7.61476 16.4713 7.48159 16.3381 7.41501C16.4374 7.24918 16.6371 7.11601 16.8042 6.98285C16.9374 7.0821 17.1698 7.28184 17.2364 7.34843L16.7037 7.68134Z" fill="#C13838"/>
<path d="M16.1382 15.2014C16.2713 15.1349 16.4711 15.1022 16.6043 15.0683C16.6369 15.268 16.7035 15.5004 16.7701 15.7002C16.6043 15.7668 16.3379 15.8334 16.2374 15.8334L16.1382 15.2014Z" fill="#C13838"/>
<path d="M9.24902 19.327C9.44877 19.2278 9.6146 19.0933 9.81435 18.9941C9.88093 19.1938 10.0141 19.3597 10.1133 19.5594C9.9136 19.5921 9.71385 19.6926 9.54802 19.7592L9.24902 19.327Z" fill="#C13838"/>
<path d="M5.85437 7.68144C5.98754 7.64752 6.18729 7.64752 6.32045 7.61485C6.35312 7.8146 6.35312 8.04701 6.42095 8.24676C6.22121 8.24676 5.88829 8.31335 5.75513 8.31335L5.85437 7.68144Z" fill="#C13838"/>
<path d="M21.2605 15.4339C21.2605 15.6663 21.2605 15.9 21.2266 16.0997C21.4929 16.0658 21.7919 16.0331 22.0256 16.1324C22.0256 15.9326 22.0582 15.5997 22.0582 15.4666L21.2592 15.4339H21.2605Z" fill="#C13838"/>
<path d="M5.55338 14.7643C5.30966 14.6248 5.03076 14.3811 5.03076 14.067C5.2393 14.067 5.69282 14.1022 5.76317 14.1374L5.55463 14.7643H5.55338Z" fill="#E2749C"/>
<path d="M11.9369 3.5056C11.7623 3.68022 11.5877 3.88877 11.4834 4.09856C11.8314 4.27319 12.4947 4.62118 12.3201 3.92394L11.9369 3.5056Z" fill="#E2749C"/>
<path d="M14.2695 16.9954C14.4442 16.9264 14.6188 16.8208 14.757 16.7166H14.7921C14.8964 16.8912 15.0359 17.0997 15.1062 17.3095C14.8273 17.6575 14.3399 17.6927 14.2695 17.1349V16.9954Z" fill="#E2749C"/>
<path d="M21.101 8.59473C20.8925 8.59473 20.7178 8.6299 20.5432 8.6299C20.4038 9.25679 21.3447 9.22287 21.1701 8.76935L21.101 8.59473Z" fill="#E2749C"/>
<path d="M16.3989 19.3648C16.5384 19.1902 16.6778 19.1211 16.8524 19.2253C17.2708 19.4691 16.6778 19.8874 16.4341 19.5042L16.3989 19.3648Z" fill="#E2749C"/>
<path d="M13.1106 13.5267C13.0842 13.1749 13.0452 12.8269 13.0151 12.4764C12.9812 12.1246 12.9761 11.7704 12.9912 11.4174C13.0088 11.0643 13.044 10.7113 13.1081 10.3633C13.1395 10.19 13.1746 10.0166 13.2148 9.84449C13.2588 9.67364 13.3015 9.50278 13.353 9.33444C13.3015 9.68369 13.245 10.0292 13.2035 10.3772C13.1621 10.7251 13.1307 11.0731 13.1156 11.4224C13.098 11.7716 13.0993 12.1209 13.1106 12.4714L13.1244 12.999C13.1244 13.1749 13.1244 13.352 13.1093 13.5279L13.1106 13.5267Z" fill="#3FA656"/>
<path d="M13.0655 13.7931C13.2037 13.714 13.3532 13.6587 13.5039 13.6135C13.6547 13.567 13.8079 13.5318 13.9587 13.4954C14.2627 13.4263 14.5617 13.3597 14.8619 13.2617C14.7351 13.3572 14.5893 13.4276 14.4411 13.4841C14.2929 13.5406 14.1396 13.5821 13.9863 13.6185C13.6785 13.6889 13.3733 13.7328 13.0642 13.7944L13.0655 13.7931Z" fill="#5BC64F"/>
<path d="M10.5367 14.9903C10.852 14.8383 11.1296 14.6411 11.4362 14.469C11.5894 14.3848 11.749 14.3057 11.9186 14.2517C12.0882 14.1964 12.2691 14.1713 12.4437 14.1914C12.097 14.2517 11.7967 14.4087 11.4965 14.5783C11.3457 14.6612 11.1949 14.7491 11.0354 14.8233C10.8771 14.8986 10.7088 14.9615 10.5354 14.9903H10.5367Z" fill="#5BC64F"/>
<path d="M13.5979 14.8797C13.6193 14.9677 13.662 15.0355 13.7122 15.1008C13.7625 15.1649 13.819 15.2252 13.8781 15.2843C13.9358 15.3446 13.9974 15.4036 14.0565 15.4677C14.1155 15.5317 14.1745 15.5983 14.2185 15.6775C14.0602 15.5946 13.9145 15.4991 13.7876 15.3709C13.7261 15.3056 13.667 15.234 13.6281 15.1498C13.5879 15.0682 13.5652 14.9652 13.5979 14.8785V14.8797Z" fill="#3FA656"/>
</svg>
