<svg width="24" height="25" viewBox="0 0 24 25" fill="none" xmlns="http://www.w3.org/2000/svg">
<path d="M21.375 16.9063C21.2893 16.9551 21.1948 16.9866 21.097 16.9989C20.9991 17.0112 20.8998 17.0041 20.8047 16.978C20.7097 16.9518 20.6207 16.9072 20.5428 16.8467C20.465 16.7861 20.3999 16.7108 20.3512 16.625L18.57 13.5125C17.5344 14.2127 16.392 14.7402 15.1875 15.0744L15.7378 18.3763C15.754 18.4735 15.7509 18.5729 15.7287 18.6689C15.7065 18.7649 15.6656 18.8556 15.6083 18.9358C15.551 19.016 15.4784 19.0841 15.3948 19.1363C15.3112 19.1884 15.2181 19.2236 15.1209 19.2397C15.0809 19.2462 15.0405 19.2497 15 19.25C14.8225 19.2498 14.6509 19.1866 14.5157 19.0718C14.3804 18.9569 14.2903 18.7979 14.2612 18.6228L13.7203 15.381C12.5795 15.5397 11.4223 15.5397 10.2815 15.381L9.74058 18.6228C9.71147 18.7982 9.62103 18.9575 9.48538 19.0724C9.34974 19.1872 9.1777 19.2502 8.99995 19.25C8.9585 19.2498 8.91712 19.2464 8.8762 19.2397C8.77898 19.2236 8.6859 19.1884 8.60227 19.1363C8.51864 19.0841 8.44611 19.016 8.38882 18.9358C8.33153 18.8556 8.29061 18.7649 8.26839 18.6689C8.24617 18.5729 8.24309 18.4735 8.25933 18.3763L8.81245 15.0744C7.60835 14.7391 6.46664 14.2107 5.43183 13.5097L3.6562 16.625C3.55675 16.7983 3.39252 16.925 3.19965 16.9772C3.00678 17.0294 2.80107 17.0029 2.62776 16.9035C2.45446 16.804 2.32777 16.6398 2.27555 16.4469C2.22333 16.254 2.24987 16.0483 2.34933 15.875L4.22433 12.5938C3.56573 12.0248 2.96013 11.3972 2.41495 10.7188C2.34696 10.6429 2.29516 10.5539 2.2627 10.4573C2.23024 10.3607 2.2178 10.2585 2.22616 10.1569C2.23451 10.0554 2.26347 9.95657 2.31127 9.86657C2.35908 9.77657 2.42472 9.69726 2.5042 9.63347C2.58367 9.56969 2.67531 9.52277 2.77353 9.49558C2.87174 9.46839 2.97446 9.4615 3.07542 9.47533C3.17639 9.48916 3.27347 9.52342 3.36075 9.57602C3.44804 9.62862 3.52368 9.69846 3.58308 9.78127C5.13933 11.7069 7.86183 14 12 14C16.1381 14 18.8606 11.7041 20.4168 9.78127C20.4755 9.69676 20.551 9.62525 20.6386 9.57117C20.7261 9.51708 20.8238 9.4816 20.9257 9.46691C21.0275 9.45222 21.1313 9.45865 21.2306 9.48579C21.3298 9.51293 21.4224 9.56021 21.5026 9.62468C21.5828 9.68915 21.6489 9.76943 21.6968 9.86054C21.7446 9.95164 21.7732 10.0516 21.7807 10.1542C21.7883 10.2569 21.7746 10.3599 21.7406 10.4571C21.7066 10.5542 21.653 10.6433 21.5831 10.7188C21.0379 11.3972 20.4323 12.0248 19.7737 12.5938L21.6487 15.875C21.699 15.9606 21.7319 16.0552 21.7454 16.1535C21.7588 16.2519 21.7527 16.3519 21.7272 16.4478C21.7017 16.5437 21.6575 16.6337 21.597 16.7123C21.5366 16.791 21.4611 16.857 21.375 16.9063Z" fill="#C2C2C2"/>
</svg>
