<svg width="26" height="26" viewBox="0 0 26 26" fill="none" xmlns="http://www.w3.org/2000/svg">
<path d="M13 26C20.1797 26 26 20.1797 26 13C26 5.8203 20.1797 0 13 0C5.8203 0 0 5.8203 0 13C0 20.1797 5.8203 26 13 26Z" fill="#CEE6ED"/>
<path d="M1.06641 13.0004C1.06641 6.40873 6.40937 1.06577 13.0011 1.06577C19.5928 1.06577 24.9358 6.40873 24.9358 13.0004C24.9358 19.5921 19.5928 24.9351 13.0011 24.9351C6.40937 24.9351 1.06641 19.5921 1.06641 13.0004Z" fill="#F5F5F5"/>
<path d="M13.6447 20.4792C13.6447 20.4792 11.2173 22.1136 8.97488 19.885C8.97488 19.885 5.69096 19.8789 5.8034 13.8257C5.8034 13.8257 5.27722 5.97869 8.7984 6.37087C8.7984 6.37087 10.3758 5.0068 12.4552 6.863C12.4552 6.863 14.6188 6.28959 16.0141 7.9108C16.0141 7.9108 18.7791 7.17582 19.7037 10.1659C19.7037 10.1659 22.9266 11.3837 17.2839 20.2055C17.2839 20.2055 15.7851 22.4239 13.645 20.4804L13.6447 20.4792Z" fill="#EB2F41"/>
<path d="M19.7063 10.1651C19.8507 10.3001 19.9882 10.4063 20.1204 10.4919C19.9066 10.2411 19.7063 10.1651 19.7063 10.1651Z" fill="#EA0A2A"/>
<path d="M11.7479 7.84524C15.3349 8.51604 16.501 8.83601 16.501 8.83601C16.501 8.83601 17.6387 8.23436 19.7044 10.1648C18.7803 7.17542 16.0148 7.90971 16.0148 7.90971C14.6201 6.28861 12.456 6.86191 12.456 6.86191C10.3765 5.00572 8.79913 6.36979 8.79913 6.36979C5.27785 5.97819 5.80414 13.8246 5.80414 13.8246C5.7245 18.1163 7.35188 19.3684 8.30528 19.7334L8.36723 19.433C8.36723 19.433 7.4125 16.4 8.13641 13.0516C8.13641 13.0516 8.16046 7.17376 11.7476 7.84398L11.7479 7.84524Z" fill="#E20E37"/>
<path d="M17.0296 12.5578C17.0296 12.5578 17.1881 10.1413 15.82 9.02118C15.82 9.02118 18.9819 9.50208 17.0296 12.5578Z" fill="#D80524"/>
<path d="M11.7453 7.8447C11.7453 7.8447 10.9173 6.47619 8.79693 6.36992C8.79693 6.36992 11.6513 5.34538 11.7453 7.8447Z" fill="#B0130C"/>
<path d="M16.2391 8.78981C16.2391 8.78981 17.9193 8.36046 19.702 10.1643C19.702 10.1643 18.8255 7.33605 16.2391 8.78981Z" fill="#B0130C"/>
<path d="M12.7217 7.94018L12.4539 6.86142C12.4539 6.86142 13.6371 6.64977 14.3519 6.92847C15.0667 7.20718 12.7224 7.9397 12.7224 7.9397L12.7217 7.94018Z" fill="#B0130C"/>
<path d="M16.3381 8.76888C15.8933 8.69045 15.8166 9.02056 15.8166 9.02056C15.1749 8.54461 14.2128 8.58512 14.2128 8.58512L12.8947 8.69634L11.7464 7.84428C11.7464 7.84428 11.7292 7.40181 12.7717 7.66226C12.7717 7.66226 13.1193 7.85707 13.5842 7.06076C14.0491 6.26446 15.2048 3.06829 18.0567 4.98466L17.363 6.10402C17.363 6.10402 16.4683 5.54515 16.2429 5.84905C16.2429 5.84905 16.3726 6.19641 15.9486 6.21744C15.9486 6.21744 16.1276 6.61179 15.6567 6.68143C15.6567 6.68143 15.8705 7.96082 15.744 8.24384L16.3387 8.76898L16.3381 8.76888Z" fill="#3A9300"/>
<path d="M16.78 20.7373C16.3503 20.9064 16.0163 21.1164 15.6288 20.9307C14.4547 20.3674 15.1951 17.9003 15.1951 17.9003C15.1951 17.9003 14.0655 21.1897 10.617 20.9043C12.2608 21.4079 13.6453 20.4792 13.6453 20.4792C15.0438 21.7495 16.1684 21.242 16.78 20.7373Z" fill="#B0130C"/>
<path d="M8.02512 15.0346C8.04071 14.447 8.07577 13.7898 8.13455 13.0524C8.13455 13.0524 7.19611 18.1063 8.07078 19.631C8.45459 19.8208 8.77179 19.8689 8.90506 19.8804C8.09572 19.2348 7.94522 17.1446 8.0258 15.0341L8.02512 15.0346Z" fill="#B0130C"/>
<path d="M8.34943 19.7501L7.70345 17.8521C7.70345 17.8521 7.7433 18.811 7.44987 19.2155C7.77045 19.4923 8.08783 19.6548 8.34953 19.7495L8.34943 19.7501Z" fill="#B0130C"/>
<path d="M14.213 8.58506C14.213 8.58506 15.175 8.54456 15.8167 9.02051C15.8167 9.02051 15.894 8.6905 16.3382 8.76883L15.7435 8.24368C15.7871 8.146 15.7899 7.92977 15.7749 7.68884C15.6011 7.53726 15.5044 6.99876 15.5044 6.99876C15.5044 6.99876 15.5713 8.13728 15.0777 7.68744C14.5841 7.23759 14.8867 6.64139 14.8867 6.64139C14.8867 6.64139 14.1714 7.73777 13.8685 7.3976C13.6487 7.15049 14.2966 5.92727 14.6669 5.27713C14.1201 5.9135 13.7867 6.71443 13.5842 7.06129C13.1193 7.85759 12.7717 7.66279 12.7717 7.66279C11.7291 7.40292 11.7464 7.84481 11.7464 7.84481L13.1226 8.81309L14.2135 8.58517L14.213 8.58506Z" fill="#338200"/>
<path d="M15.8156 9.02038C15.8156 9.02038 15.129 8.36468 14.2119 8.58493C13.2398 8.81824 13.0001 8.52393 12.8651 8.42408C12.7301 8.32365 11.7429 7.42396 10.2719 7.96684C10.2719 7.96684 11.6644 7.86873 12.0564 8.24318C12.449 8.61772 12.3379 9.24771 13.3443 9.38685C14.5283 9.55073 14.2199 8.31873 15.8156 9.02038Z" fill="#B0130C"/>
<path opacity="0.64" d="M15.7446 6.2293C15.72 6.27705 15.6017 6.52322 15.6578 6.68039C16.1248 6.60946 15.9468 6.21647 15.9468 6.21647C16.3708 6.19544 16.241 5.84807 16.241 5.84807C16.4665 5.54417 17.3611 6.10305 17.3611 6.10305L18.0548 4.98368C16.8708 4.18819 15.9802 4.27483 15.3088 4.70424C14.9572 5.13316 14.2288 6.06202 14.2257 6.4093C14.2216 6.86718 15.2667 5.77806 15.2667 5.77806C15.2667 5.77806 14.9436 6.81608 15.1991 6.81024C15.4365 6.80481 15.7069 6.30049 15.7441 6.22862L15.7446 6.2293Z" fill="#45AF00"/>
<path d="M18.0534 4.97917C18.0534 4.97917 17.9358 4.83451 17.4456 5.42101C17.2718 5.62923 17.3636 6.10342 17.3636 6.10342C17.3636 6.10342 17.4436 6.18937 17.7212 5.86115C17.8898 5.66217 18.1745 5.07656 18.0534 4.97917Z" fill="#97C12F"/>
<path d="M17.7711 5.19589C17.6775 5.28535 17.5055 5.47353 17.4507 5.60398C17.396 5.73442 17.3937 5.89327 17.4355 5.94494C17.4773 5.99661 17.707 5.66832 17.8196 5.53551C17.9322 5.40271 18.1082 4.87336 17.7711 5.19589Z" fill="#8EAF28"/>
<path d="M15.8772 8.36065C15.7227 8.419 15.5405 8.45393 15.4531 8.34513C15.2856 8.13719 14.8327 8.10822 14.2675 8.13607C13.7022 8.16391 13.4786 8.27717 13.2212 8.00247C13.1229 7.89773 12.9933 7.78387 12.8703 7.68317C12.8072 7.68161 12.7717 7.66218 12.7717 7.66218C11.7291 7.40231 11.7464 7.84419 11.7464 7.84419L13.1226 8.81248L14.2135 8.58455C14.2135 8.58455 15.1756 8.54405 15.8173 9.02C15.8173 9.02 15.8946 8.68999 16.3388 8.76832L15.8762 8.35986L15.8772 8.36065Z" fill="#276300"/>
<path opacity="0.65" d="M19.257 10.3151C19.257 10.3151 20.3524 10.8902 20.3933 12.2468C20.4343 13.6035 18.5243 18.0796 17.6516 18.8423C16.7784 19.6049 17.3432 18.279 18.0174 16.7677C18.6915 15.2569 19.818 12.9087 19.5088 12.0651C19.199 11.2214 18.0572 9.4665 19.2571 10.3145L19.257 10.3151Z" fill="#D80524"/>
<path d="M14.213 8.58506C14.213 8.58506 15.175 8.54456 15.8167 9.02051C15.8167 9.02051 15.894 8.6905 16.3382 8.76883L15.7435 8.24368C15.7871 8.146 15.7899 7.92977 15.7749 7.68884C15.6011 7.53726 15.5044 6.99876 15.5044 6.99876C15.5044 6.99876 15.5713 8.13728 15.0777 7.68744C14.5841 7.23759 14.8867 6.64139 14.8867 6.64139C14.8867 6.64139 14.1714 7.73777 13.8685 7.3976C13.6487 7.15049 14.2966 5.92727 14.6669 5.27713C14.1201 5.9135 13.7867 6.71443 13.5842 7.06129C13.1193 7.85759 12.7717 7.66279 12.7717 7.66279C11.7291 7.40292 11.7464 7.84481 11.7464 7.84481L13.1226 8.81309L14.2135 8.58517L14.213 8.58506Z" fill="#338200"/>
</svg>
