<svg width="180" height="42" viewBox="0 0 180 42" fill="none" xmlns="http://www.w3.org/2000/svg">
<path d="M1.5992 1.60122C1.14728 2.06246 0.885742 2.78059 0.885742 3.71059V36.8831C0.885742 37.8131 1.14728 38.5312 1.5992 38.9925L1.71074 39.0937L20.7761 20.5125V20.0737L1.71074 1.49247L1.5992 1.60122Z" fill="url(#paint0_linear_992_2258)"/>
<path d="M27.1244 26.7093L20.7764 20.5125V20.0737L27.1321 13.8768L27.2744 13.9575L34.8014 18.1331C36.9494 19.3181 36.9494 21.2681 34.8014 22.4606L27.2744 26.6287L27.1244 26.7093Z" fill="url(#paint1_linear_992_2258)"/>
<path d="M27.2746 26.6287L20.7765 20.2931L1.59961 38.9925C2.31307 39.7237 3.47653 39.8118 4.79961 39.0806L27.2746 26.6287Z" fill="url(#paint2_linear_992_2258)"/>
<path d="M27.2746 13.9575L4.79961 1.5056C3.47653 0.781855 2.31307 0.869978 1.59961 1.60123L20.7765 20.2931L27.2746 13.9575Z" fill="url(#paint3_linear_992_2258)"/>
<path d="M58.4948 5.65874C58.4948 6.91124 58.1102 7.91436 57.3525 8.66249C56.4814 9.54936 55.3468 9.99561 53.9564 9.99561C52.6275 9.99561 51.4929 9.54186 50.5621 8.64748C49.6294 7.73998 49.1641 6.62624 49.1641 5.29311C49.1641 3.95999 49.6294 2.84624 50.5621 1.94624C51.4929 1.04436 52.6275 0.590614 53.9564 0.590614C54.6179 0.590614 55.2487 0.723739 55.8506 0.971239C56.4506 1.22061 56.9391 1.55811 57.2929 1.97436L56.4891 2.76561C55.8718 2.05499 55.0314 1.70437 53.9564 1.70437C52.9871 1.70437 52.1468 2.03436 51.4333 2.69999C50.7275 3.36749 50.3737 4.23186 50.3737 5.29311C50.3737 6.35436 50.7275 7.22623 51.4333 7.89373C52.1468 8.55186 52.9871 8.88936 53.9564 8.88936C54.9852 8.88936 55.8506 8.55186 56.5333 7.88623C56.9833 7.44561 57.2391 6.83811 57.3064 6.06186H53.9564V4.97811H58.4256C58.4794 5.21249 58.4948 5.43936 58.4948 5.65874Z" fill="white" stroke="white" stroke-width="0.16" stroke-miterlimit="10"/>
<path d="M65.5848 1.90123H61.3867V4.75123H65.1713V5.83497H61.3867V8.68497H65.5848V9.78935H60.1982V0.796852H65.5848V1.90123Z" fill="white" stroke="white" stroke-width="0.16" stroke-miterlimit="10"/>
<path d="M70.5887 9.78935H69.4002V1.90123H66.8252V0.796852H73.1656V1.90123H70.5887V9.78935Z" fill="white" stroke="white" stroke-width="0.16" stroke-miterlimit="10"/>
<path d="M77.7549 9.78935V0.796852H78.9414V9.78935H77.7549Z" fill="white" stroke="white" stroke-width="0.16" stroke-miterlimit="10"/>
<path d="M84.201 9.78935H83.0221V1.90123H80.4375V0.796852H86.7856V1.90123H84.201V9.78935Z" fill="white" stroke="white" stroke-width="0.16" stroke-miterlimit="10"/>
<path d="M98.789 8.63248C97.8794 9.54186 96.7525 9.99561 95.4082 9.99561C94.0563 9.99561 92.9294 9.54186 92.0198 8.63248C91.1121 7.72499 90.6602 6.61124 90.6602 5.29311C90.6602 3.97499 91.1121 2.86124 92.0198 1.95374C92.9294 1.04436 94.0563 0.590614 95.4082 0.590614C96.7448 0.590614 97.8717 1.04436 98.7813 1.96124C99.6967 2.87624 100.149 3.98249 100.149 5.29311C100.149 6.61124 99.6967 7.72499 98.789 8.63248ZM92.8986 7.87873C93.5832 8.55186 94.4159 8.88936 95.4082 8.88936C96.3928 8.88936 97.2332 8.55186 97.9102 7.87873C98.5929 7.20561 98.939 6.34124 98.939 5.29311C98.939 4.24499 98.5929 3.38061 97.9102 2.70749C97.2332 2.03436 96.3928 1.69686 95.4082 1.69686C94.4159 1.69686 93.5832 2.03436 92.8986 2.70749C92.2159 3.38061 91.8698 4.24499 91.8698 5.29311C91.8698 6.34124 92.2159 7.20561 92.8986 7.87873Z" fill="white" stroke="white" stroke-width="0.16" stroke-miterlimit="10"/>
<path d="M101.816 9.78935V0.796852H103.259L107.743 7.7906H107.795L107.743 6.06185V0.796852H108.93V9.78935H107.691L102.995 2.4506H102.943L102.995 4.18685V9.78935H101.816Z" fill="white" stroke="white" stroke-width="0.16" stroke-miterlimit="10"/>
<path d="M90.3682 22.9219C86.7547 22.9219 83.8028 25.6031 83.8028 29.3025C83.8028 32.9719 86.7547 35.6813 90.3682 35.6813C93.9893 35.6813 96.9413 32.9719 96.9413 29.3025C96.9413 25.6031 93.9893 22.9219 90.3682 22.9219ZM90.3682 33.1688C88.3855 33.1688 86.6797 31.5731 86.6797 29.3025C86.6797 27.0019 88.3855 25.4344 90.3682 25.4344C92.3509 25.4344 94.0643 27.0019 94.0643 29.3025C94.0643 31.5731 92.3509 33.1688 90.3682 33.1688ZM76.0432 22.9219C72.422 22.9219 69.4778 25.6031 69.4778 29.3025C69.4778 32.9719 72.422 35.6813 76.0432 35.6813C79.6624 35.6813 82.6086 32.9719 82.6086 29.3025C82.6086 25.6031 79.6624 22.9219 76.0432 22.9219ZM76.0432 33.1688C74.0586 33.1688 72.347 31.5731 72.347 29.3025C72.347 27.0019 74.0586 25.4344 76.0432 25.4344C78.0259 25.4344 79.7317 27.0019 79.7317 29.3025C79.7317 31.5731 78.0259 33.1688 76.0432 33.1688ZM58.997 24.8775V27.5888H65.6374C65.4432 29.1038 64.924 30.2175 64.1278 30.9938C63.1586 31.9313 61.649 32.9719 58.997 32.9719C54.9105 32.9719 51.7105 29.7563 51.7105 25.7719C51.7105 21.7875 54.9105 18.5719 58.997 18.5719C61.2067 18.5719 62.8144 19.4138 64.0009 20.505L65.9605 18.5944C64.3009 17.0494 62.0932 15.8625 58.997 15.8625C53.3932 15.8625 48.6836 20.3081 48.6836 25.7719C48.6836 31.2356 53.3932 35.6813 58.997 35.6813C62.0259 35.6813 64.3009 34.7138 66.0894 32.8988C67.922 31.1119 68.4932 28.5994 68.4932 26.5706C68.4932 25.9406 68.4394 25.3613 68.3432 24.8775H58.997ZM128.701 26.9794C128.16 25.5525 126.493 22.9219 123.097 22.9219C119.732 22.9219 116.93 25.5075 116.93 29.3025C116.93 32.8763 119.703 35.6813 123.42 35.6813C126.426 35.6813 128.16 33.8944 128.874 32.8538L126.643 31.4044C125.899 32.4656 124.885 33.1688 123.42 33.1688C121.964 33.1688 120.92 32.5181 120.251 31.2356L129.003 27.705L128.701 26.9794ZM119.778 29.1038C119.703 26.6438 121.737 25.3838 123.195 25.3838C124.337 25.3838 125.307 25.9406 125.63 26.7375L119.778 29.1038ZM112.664 35.2931H115.541V16.5431H112.664V35.2931ZM107.953 24.3431H107.857C107.21 23.5969 105.978 22.9219 104.416 22.9219C101.139 22.9219 98.1432 25.7269 98.1432 29.3231C98.1432 32.8988 101.139 35.6813 104.416 35.6813C105.978 35.6813 107.21 35.0006 107.857 34.2319H107.953V35.1469C107.953 37.5863 106.616 38.8969 104.46 38.8969C102.703 38.8969 101.612 37.6594 101.162 36.6188L98.6605 37.6369C99.3816 39.3281 101.291 41.4094 104.46 41.4094C107.834 41.4094 110.68 39.4744 110.68 34.7663V23.31H107.953V24.3431ZM104.662 33.1688C102.68 33.1688 101.02 31.5506 101.02 29.3231C101.02 27.075 102.68 25.4344 104.662 25.4344C106.616 25.4344 108.157 27.075 108.157 29.3231C108.157 31.5506 106.616 33.1688 104.662 33.1688ZM142.17 16.5431H135.289V35.2931H138.159V28.1888H142.17C145.357 28.1888 148.482 25.9406 148.482 22.365C148.482 18.7913 145.349 16.5431 142.17 16.5431ZM142.245 25.5806H138.159V19.1513H142.245C144.387 19.1513 145.61 20.8856 145.61 22.365C145.61 23.8163 144.387 25.5806 142.245 25.5806ZM159.982 22.8863C157.909 22.8863 155.753 23.7788 154.866 25.7569L157.412 26.7975C157.96 25.7569 158.968 25.4194 160.034 25.4194C161.522 25.4194 163.032 26.2913 163.055 27.8306V28.0275C162.535 27.735 161.424 27.3019 160.057 27.3019C157.314 27.3019 154.52 28.7738 154.52 31.5206C154.52 34.0331 156.766 35.6513 159.291 35.6513C161.222 35.6513 162.287 34.8019 162.957 33.8138H163.055V35.2631H165.826V28.0706C165.826 24.7463 163.28 22.8863 159.982 22.8863ZM159.635 33.1613C158.697 33.1613 157.389 32.7075 157.389 31.5731C157.389 30.1219 159.02 29.565 160.432 29.565C161.695 29.565 162.287 29.8369 163.055 30.195C162.83 31.9313 161.297 33.1613 159.635 33.1613ZM175.922 23.2969L172.624 31.425H172.526L169.116 23.2969H166.022L171.145 34.6556L168.222 40.9763H171.22L179.114 23.2969H175.922ZM150.059 35.2931H152.935V16.5431H150.059V35.2931Z" fill="white"/>
<defs>
<linearGradient id="paint0_linear_992_2258" x1="19.0833" y1="37.2285" x2="-6.08219" y2="11.4178" gradientUnits="userSpaceOnUse">
<stop stop-color="#00A0FF"/>
<stop offset="0.0066" stop-color="#00A1FF"/>
<stop offset="0.2601" stop-color="#00BEFF"/>
<stop offset="0.5122" stop-color="#00D2FF"/>
<stop offset="0.7604" stop-color="#00DFFF"/>
<stop offset="1" stop-color="#00E3FF"/>
</linearGradient>
<linearGradient id="paint1_linear_992_2258" x1="37.5985" y1="20.291" x2="0.372529" y2="20.291" gradientUnits="userSpaceOnUse">
<stop stop-color="#FFE000"/>
<stop offset="0.4087" stop-color="#FFBD00"/>
<stop offset="0.7754" stop-color="#FFA500"/>
<stop offset="1" stop-color="#FF9C00"/>
</linearGradient>
<linearGradient id="paint2_linear_992_2258" x1="23.7411" y1="16.849" x2="-10.3854" y2="-18.1526" gradientUnits="userSpaceOnUse">
<stop stop-color="#FF3A44"/>
<stop offset="1" stop-color="#C31162"/>
</linearGradient>
<linearGradient id="paint3_linear_992_2258" x1="-3.22762" y1="50.0288" x2="12.0114" y2="34.3992" gradientUnits="userSpaceOnUse">
<stop stop-color="#32A071"/>
<stop offset="0.0685" stop-color="#2DA771"/>
<stop offset="0.4762" stop-color="#15CF74"/>
<stop offset="0.8009" stop-color="#06E775"/>
<stop offset="1" stop-color="#00F076"/>
</linearGradient>
</defs>
</svg>
