<svg width="177" height="44" viewBox="0 0 177 44" fill="none" xmlns="http://www.w3.org/2000/svg">
<rect width="92" height="44" rx="8" fill="#39B969"/>
<path d="M11.4062 11.1818H18.7784L23.8494 23.5398H24.1051L29.1761 11.1818H36.5483V33H30.7528V20.3864H30.5824L25.7244 32.8295H22.2301L17.3722 20.3011H17.2017V33H11.4062V11.1818ZM39.3555 33V11.1818H48.8157C50.4776 11.1818 51.8732 11.4055 53.0025 11.853C54.1388 12.3004 54.9947 12.9325 55.57 13.7493C56.1523 14.5661 56.4435 15.5284 56.4435 16.6364C56.4435 17.4389 56.266 18.1705 55.9109 18.831C55.5629 19.4915 55.0728 20.0455 54.4407 20.4929C53.8086 20.9332 53.07 21.2386 52.2248 21.4091V21.6222C53.1623 21.6577 54.0146 21.8956 54.7816 22.3359C55.5487 22.7692 56.1594 23.3693 56.614 24.1364C57.0685 24.8963 57.2958 25.7912 57.2958 26.821C57.2958 28.0142 56.9833 29.076 56.3583 30.0064C55.7404 30.9368 54.8597 31.6683 53.7163 32.201C52.5728 32.7337 51.2092 33 49.6254 33H39.3555ZM45.2788 28.2699H48.0487C49.043 28.2699 49.7887 28.0852 50.2859 27.7159C50.783 27.3395 51.0316 26.7855 51.0316 26.054C51.0316 25.5426 50.9144 25.1094 50.68 24.7543C50.4457 24.3991 50.1119 24.1293 49.6786 23.9446C49.2525 23.7599 48.7376 23.6676 48.1339 23.6676H45.2788V28.2699ZM45.2788 20.0028H47.7077C48.2262 20.0028 48.6843 19.9212 49.082 19.7578C49.4798 19.5945 49.7887 19.3601 50.0089 19.0547C50.2362 18.7422 50.3498 18.3622 50.3498 17.9148C50.3498 17.2401 50.1083 16.7251 49.6254 16.37C49.1424 16.0078 48.5316 15.8267 47.793 15.8267H45.2788V20.0028ZM73.5636 18.3835C73.4712 18.0071 73.3256 17.6768 73.1268 17.3928C72.9279 17.1016 72.6793 16.8565 72.381 16.6577C72.0898 16.4517 71.7489 16.299 71.3583 16.1996C70.9748 16.093 70.5522 16.0398 70.0906 16.0398C69.0962 16.0398 68.2475 16.2777 67.5444 16.7536C66.8484 17.2294 66.3157 17.9148 65.9464 18.8097C65.5842 19.7045 65.4031 20.7841 65.4031 22.0483C65.4031 23.3267 65.5771 24.4205 65.9251 25.3295C66.2731 26.2386 66.7915 26.9347 67.4805 27.4176C68.1694 27.9006 69.0252 28.142 70.0479 28.142C70.9499 28.142 71.6992 28.0107 72.2958 27.7479C72.8995 27.4851 73.3505 27.1122 73.6488 26.6293C73.9471 26.1463 74.0962 25.5781 74.0962 24.9247L75.119 25.0312H70.1332V20.8125H79.8065V23.8381C79.8065 25.8267 79.3839 27.5277 78.5387 28.9411C77.7006 30.3473 76.543 31.4268 75.0657 32.1797C73.5955 32.9254 71.9087 33.2983 70.0053 33.2983C67.8817 33.2983 66.0174 32.8473 64.4123 31.9453C62.8072 31.0433 61.5536 29.7578 60.6516 28.0888C59.7567 26.4197 59.3093 24.4347 59.3093 22.1335C59.3093 20.3295 59.5827 18.7315 60.1296 17.3395C60.6836 15.9474 61.4506 14.772 62.4308 13.8132C63.4109 12.8473 64.5437 12.1193 65.8292 11.6293C67.1147 11.1321 68.4925 10.8835 69.9627 10.8835C71.2553 10.8835 72.4556 11.0682 73.5636 11.4375C74.6786 11.7997 75.6623 12.3182 76.5146 12.9929C77.3739 13.6605 78.0664 14.4524 78.592 15.3686C79.1175 16.2848 79.4371 17.2898 79.5508 18.3835H73.5636Z" fill="white"/>
<path d="M114.449 21.9631H109.037C109.009 21.6293 108.891 21.3416 108.685 21.1001C108.479 20.8587 108.213 20.674 107.886 20.5462C107.567 20.4112 107.212 20.3438 106.821 20.3438C106.317 20.3438 105.884 20.4361 105.521 20.6207C105.159 20.8054 104.982 21.0682 104.989 21.4091C104.982 21.6506 105.085 21.8743 105.298 22.0803C105.518 22.2862 105.94 22.446 106.565 22.5597L109.889 23.1562C111.565 23.4616 112.812 23.9766 113.629 24.701C114.452 25.4183 114.868 26.3807 114.875 27.5881C114.868 28.7528 114.52 29.7649 113.831 30.6243C113.149 31.4766 112.215 32.1371 111.029 32.6058C109.85 33.0675 108.504 33.2983 106.991 33.2983C104.491 33.2983 102.535 32.7869 101.121 31.7642C99.7152 30.7415 98.9304 29.392 98.767 27.7159H104.605C104.683 28.2344 104.939 28.6357 105.372 28.9197C105.813 29.1967 106.366 29.3352 107.034 29.3352C107.574 29.3352 108.018 29.2429 108.366 29.0582C108.721 28.8736 108.902 28.6108 108.909 28.2699C108.902 27.9574 108.746 27.7088 108.44 27.5241C108.142 27.3395 107.673 27.1903 107.034 27.0767L104.136 26.5653C102.467 26.2741 101.217 25.7202 100.386 24.9034C99.5554 24.0866 99.1435 23.0355 99.1506 21.75C99.1435 20.6136 99.4418 19.6513 100.045 18.8629C100.656 18.0675 101.526 17.4638 102.656 17.0518C103.792 16.6328 105.138 16.4233 106.693 16.4233C109.058 16.4233 110.923 16.9134 112.286 17.8935C113.657 18.8736 114.378 20.2301 114.449 21.9631ZM126.887 16.6364V20.8977H116.105V16.6364H126.887ZM118.194 12.7159H124.074V27.7372C124.074 27.9645 124.113 28.1562 124.191 28.3125C124.27 28.4616 124.39 28.5753 124.554 28.6534C124.717 28.7244 124.926 28.7599 125.182 28.7599C125.36 28.7599 125.566 28.7386 125.8 28.696C126.042 28.6534 126.219 28.6179 126.333 28.5895L127.185 32.723C126.922 32.8011 126.546 32.897 126.056 33.0107C125.573 33.1243 124.998 33.1989 124.33 33.2344C122.98 33.3054 121.848 33.1669 120.931 32.8189C120.015 32.4638 119.326 31.9062 118.865 31.1463C118.403 30.3864 118.179 29.4347 118.194 28.2912V12.7159ZM136.994 33.2983C135.219 33.2983 133.699 32.9467 132.434 32.2436C131.17 31.5334 130.201 30.5462 129.526 29.282C128.851 28.0107 128.514 26.5369 128.514 24.8608C128.514 23.1847 128.851 21.7145 129.526 20.4503C130.201 19.179 131.17 18.1918 132.434 17.4886C133.699 16.7784 135.219 16.4233 136.994 16.4233C138.77 16.4233 140.29 16.7784 141.554 17.4886C142.818 18.1918 143.787 19.179 144.462 20.4503C145.137 21.7145 145.474 23.1847 145.474 24.8608C145.474 26.5369 145.137 28.0107 144.462 29.282C143.787 30.5462 142.818 31.5334 141.554 32.2436C140.29 32.9467 138.77 33.2983 136.994 33.2983ZM137.037 28.9517C137.534 28.9517 137.964 28.7848 138.326 28.451C138.688 28.1172 138.969 27.6413 139.167 27.0234C139.366 26.4055 139.466 25.6705 139.466 24.8182C139.466 23.9588 139.366 23.2237 139.167 22.6129C138.969 21.995 138.688 21.5192 138.326 21.1854C137.964 20.8516 137.534 20.6847 137.037 20.6847C136.511 20.6847 136.06 20.8516 135.684 21.1854C135.307 21.5192 135.02 21.995 134.821 22.6129C134.622 23.2237 134.523 23.9588 134.523 24.8182C134.523 25.6705 134.622 26.4055 134.821 27.0234C135.02 27.6413 135.307 28.1172 135.684 28.451C136.06 28.7848 136.511 28.9517 137.037 28.9517ZM147.861 33V16.6364H153.571V19.7472H153.741C154.04 18.5966 154.512 17.755 155.158 17.2223C155.812 16.6896 156.575 16.4233 157.449 16.4233C157.704 16.4233 157.956 16.4446 158.205 16.4872C158.461 16.5227 158.706 16.576 158.94 16.647V21.6648C158.649 21.5653 158.29 21.4908 157.864 21.4411C157.438 21.3913 157.072 21.3665 156.767 21.3665C156.192 21.3665 155.673 21.4979 155.211 21.7607C154.757 22.0163 154.398 22.3786 154.135 22.8473C153.873 23.3089 153.741 23.8523 153.741 24.4773V33H147.861ZM167.772 33.2983C166.025 33.2983 164.519 32.9645 163.255 32.2969C161.998 31.6222 161.028 30.6562 160.346 29.3991C159.672 28.1349 159.334 26.6222 159.334 24.8608C159.334 23.1705 159.675 21.6932 160.357 20.429C161.039 19.1648 162.001 18.1811 163.244 17.478C164.487 16.7749 165.954 16.4233 167.644 16.4233C168.88 16.4233 169.998 16.6151 171 16.9986C172.001 17.3821 172.857 17.9396 173.567 18.6712C174.278 19.3956 174.824 20.2763 175.208 21.3132C175.591 22.3501 175.783 23.5185 175.783 24.8182V26.1818H161.167V22.9432H170.371C170.364 22.4744 170.243 22.0625 170.009 21.7074C169.782 21.3452 169.473 21.0646 169.082 20.8658C168.699 20.6598 168.262 20.5568 167.772 20.5568C167.296 20.5568 166.859 20.6598 166.461 20.8658C166.064 21.0646 165.744 21.3416 165.503 21.6967C165.268 22.0518 165.144 22.4673 165.13 22.9432V26.4375C165.13 26.9631 165.24 27.4318 165.46 27.8438C165.68 28.2557 165.996 28.5788 166.408 28.8132C166.82 29.0476 167.317 29.1648 167.9 29.1648C168.305 29.1648 168.674 29.108 169.008 28.9943C169.349 28.8807 169.64 28.7173 169.881 28.5043C170.123 28.2841 170.3 28.0213 170.414 27.7159H175.783C175.599 28.8523 175.162 29.8395 174.473 30.6776C173.784 31.5085 172.871 32.1548 171.735 32.6165C170.606 33.071 169.285 33.2983 167.772 33.2983Z" fill="#232323"/>
</svg>
