<svg width="137" height="50" viewBox="0 0 137 50" fill="none" xmlns="http://www.w3.org/2000/svg">
<path d="M31.5009 29.4129L29.3494 30.1455L29.2321 30.1857L28.5098 30.4313L8.52637 37.2325L16.9023 48.8007C18.0602 50.4002 20.4428 50.3993 21.6008 48.8007L34.2455 31.3282C35.1458 30.2122 35.9238 28.9935 36.5588 27.6918L31.5009 29.4129Z" fill="#F8A137"/>
<path d="M5.85297 16.5524L7.93518 19.4297L0.203686 22.0605C0.069322 21.1439 0 20.2059 0 19.2508C0 14.038 2.07195 9.30876 5.43789 5.84183L6.70707 9.89671C5.57225 10.7525 4.83711 12.1107 4.83711 13.6392C4.83711 14.6944 5.1974 15.7283 5.85211 16.5524H5.85297Z" fill="#23B24D"/>
<path d="M13.8998 32.8721L7.05577 35.2008L4.1939 31.2478L3.13696 29.7886L3.13525 29.786C2.06547 28.1531 1.23789 26.349 0.702148 24.4226L9.405 21.4606L9.71738 21.3545L10.2386 21.1773L13.8998 32.873V32.8721Z" fill="#F0602B"/>
<path d="M24.1383 13.9148L12.1482 17.9954L13.2206 16.5148L13.4568 16.1879L13.4722 16.1596C13.9532 15.4074 14.2082 14.5361 14.2082 13.6384C14.2082 11.0555 12.1055 8.95361 9.52259 8.95361C9.32404 8.95361 9.12805 8.96645 8.93549 8.99041L7.39844 4.08056C10.6651 1.52337 14.7808 0 19.2516 0C19.4296 0 19.6067 0.00257415 19.7847 0.00685326L24.1383 13.9148Z" fill="#F8A137"/>
<path d="M25.156 25.797L27.0397 28.3996L16.169 32.0993L12.5078 20.4036L24.8548 16.2024L25.8218 19.2928C24.7948 20.152 24.141 21.4435 24.141 22.8838C24.141 23.939 24.5013 24.9729 25.156 25.797Z" fill="#23B24D"/>
<path d="M36.0592 9.85736L26.4073 13.142L22.3721 0.251617C28.2593 1.21185 33.2496 4.84139 36.0592 9.85736Z" fill="#F0602B"/>
<path d="M38.5029 19.2509C38.5029 21.1696 38.2222 23.0225 37.7001 24.7709L31.7821 26.7847L32.715 25.4949L32.7466 25.4487C33.2464 24.6862 33.51 23.7987 33.51 22.8838C33.51 20.301 31.4081 18.1991 28.8253 18.1991C28.548 18.1991 28.2767 18.223 28.0122 18.2701L27.123 15.4296L37.1028 12.0329C38.0057 14.2623 38.502 16.6988 38.502 19.2509H38.5029Z" fill="#23B24D"/>
<path d="M28.8256 19.3972C28.6733 19.3972 28.5218 19.4066 28.3746 19.4263C27.5213 19.5367 26.7648 19.9552 26.2205 20.5671C25.6728 21.1833 25.3398 21.9955 25.3398 22.8847C25.3398 23.7131 25.6283 24.474 26.1109 25.0722L28.2274 27.9965L28.4251 28.2704C28.6228 28.5434 29.0301 28.5434 29.227 28.2704L30.5646 26.4227L31.5531 25.0576L31.7448 24.7932C31.9245 24.5185 32.0666 24.2181 32.1633 23.898C32.2609 23.5779 32.3131 23.2373 32.3131 22.8855C32.3131 20.9599 30.7521 19.3989 28.8265 19.3989L28.8256 19.3972ZM28.8256 24.3721C27.9433 24.3721 27.2269 23.6566 27.2269 22.7734C27.2269 21.8902 27.9424 21.1756 28.8256 21.1756C29.7088 21.1756 30.4234 21.8902 30.4234 22.7734C30.4234 23.6566 29.7088 24.3721 28.8256 24.3721Z" fill="#23B24D"/>
<path d="M9.52263 10.1526C9.44817 10.1526 9.37457 10.1552 9.30097 10.1595C8.44515 10.2134 7.6732 10.5745 7.09466 11.136C6.44167 11.7701 6.03516 12.6568 6.03516 13.6392C6.03516 14.4677 6.32357 15.2285 6.80625 15.8267L9.12125 19.0258C9.31894 19.2979 9.72546 19.2979 9.92315 19.0258L11.4268 16.9496L12.2501 15.8113L12.441 15.5469C12.7996 14.9991 13.0092 14.3427 13.0092 13.6384C13.0092 11.7128 11.4474 10.1518 9.52177 10.1518L9.52263 10.1526ZM9.51664 15.1566C8.63429 15.1566 7.91882 14.4411 7.91882 13.5579C7.91882 12.6747 8.63343 11.9601 9.51664 11.9601C10.3998 11.9601 11.1153 12.6756 11.1153 13.5579C11.1153 14.4403 10.3998 15.1566 9.51664 15.1566Z" fill="#F0602B"/>
<path d="M100.237 23.523L98.8142 23.9256C98.7248 23.6886 98.5928 23.4582 98.4184 23.2345C98.2484 23.0064 98.0158 22.8186 97.7206 22.6709C97.4254 22.5233 97.0474 22.4495 96.5867 22.4495C95.956 22.4495 95.4304 22.5949 95.01 22.8856C94.594 23.1719 94.386 23.5365 94.386 23.9793C94.386 24.3729 94.5291 24.6838 94.8154 24.9119C95.1016 25.14 95.549 25.3301 96.1573 25.4822L97.687 25.858C98.6085 26.0816 99.2951 26.4238 99.7469 26.8845C100.199 27.3408 100.425 27.929 100.425 28.6491C100.425 29.2396 100.255 29.7674 99.9146 30.2326C99.5791 30.6977 99.1095 31.0645 98.5056 31.3329C97.9018 31.6013 97.1995 31.7355 96.3988 31.7355C95.3477 31.7355 94.4777 31.5074 93.7888 31.0511C93.1 30.5949 92.6639 29.9284 92.4805 29.0517L93.9834 28.676C94.1265 29.2306 94.3972 29.6466 94.7952 29.9239C95.1978 30.2012 95.7234 30.3399 96.372 30.3399C97.11 30.3399 97.696 30.1834 98.1299 29.8702C98.5682 29.5527 98.7874 29.1725 98.7874 28.7296C98.7874 28.3718 98.6622 28.0721 98.4117 27.8306C98.1612 27.5845 97.7765 27.4011 97.2576 27.2804L95.54 26.8778C94.5962 26.6542 93.9029 26.3075 93.4601 25.8378C93.0217 25.3637 92.8025 24.771 92.8025 24.0598C92.8025 23.4783 92.9658 22.9639 93.2923 22.5166C93.6233 22.0693 94.0729 21.7182 94.6409 21.4632C95.2135 21.2083 95.8621 21.0808 96.5867 21.0808C97.6065 21.0808 98.4072 21.3044 98.9887 21.7517C99.5747 22.199 99.9906 22.7895 100.237 23.523Z" fill="#F0602C"/>
<path d="M107.29 21.215V22.5569H101.949V21.215H107.29ZM103.506 18.7459H105.089V28.5686C105.089 29.0159 105.154 29.3514 105.284 29.575C105.418 29.7942 105.588 29.9418 105.794 30.0179C106.004 30.0894 106.225 30.1252 106.458 30.1252C106.632 30.1252 106.776 30.1163 106.887 30.0984C106.999 30.076 107.089 30.0581 107.156 30.0447L107.478 31.4671C107.371 31.5074 107.221 31.5476 107.028 31.5879C106.836 31.6326 106.592 31.655 106.297 31.655C105.85 31.655 105.411 31.5588 104.982 31.3665C104.557 31.1741 104.204 30.8811 103.922 30.4875C103.645 30.0939 103.506 29.5974 103.506 28.998V18.7459Z" fill="#F0602C"/>
<path d="M113.748 31.7355C112.818 31.7355 112.001 31.5141 111.299 31.0712C110.601 30.6284 110.055 30.0089 109.662 29.2127C109.273 28.4165 109.078 27.4861 109.078 26.4216C109.078 25.348 109.273 24.4109 109.662 23.6103C110.055 22.8096 110.601 22.1879 111.299 21.745C112.001 21.3022 112.818 21.0808 113.748 21.0808C114.678 21.0808 115.492 21.3022 116.19 21.745C116.892 22.1879 117.438 22.8096 117.827 23.6103C118.221 24.4109 118.418 25.348 118.418 26.4216C118.418 27.4861 118.221 28.4165 117.827 29.2127C117.438 30.0089 116.892 30.6284 116.19 31.0712C115.492 31.5141 114.678 31.7355 113.748 31.7355ZM113.748 30.3131C114.455 30.3131 115.036 30.1319 115.492 29.7696C115.949 29.4073 116.286 28.9309 116.506 28.3405C116.725 27.75 116.834 27.1104 116.834 26.4216C116.834 25.7327 116.725 25.0908 116.506 24.4959C116.286 23.901 115.949 23.4202 115.492 23.0534C115.036 22.6866 114.455 22.5032 113.748 22.5032C113.041 22.5032 112.46 22.6866 112.003 23.0534C111.547 23.4202 111.21 23.901 110.99 24.4959C110.771 25.0908 110.662 25.7327 110.662 26.4216C110.662 27.1104 110.771 27.75 110.99 28.3405C111.21 28.9309 111.547 29.4073 112.003 29.7696C112.46 30.1319 113.041 30.3131 113.748 30.3131Z" fill="#F0602C"/>
<path d="M120.835 31.5208V21.215H122.365V22.7716H122.472C122.66 22.2617 123 21.8479 123.492 21.5303C123.984 21.2127 124.538 21.054 125.156 21.054C125.272 21.054 125.417 21.0562 125.592 21.0607C125.766 21.0651 125.898 21.0718 125.988 21.0808V22.6911C125.934 22.6777 125.811 22.6575 125.619 22.6307C125.431 22.5994 125.232 22.5837 125.022 22.5837C124.521 22.5837 124.073 22.6888 123.68 22.8991C123.291 23.1048 122.982 23.3911 122.754 23.7579C122.53 24.1202 122.418 24.5339 122.418 24.9991V31.5208H120.835Z" fill="#F0602C"/>
<path d="M131.872 31.7355C130.879 31.7355 130.022 31.5163 129.302 31.078C128.587 30.6351 128.034 30.0179 127.645 29.2261C127.26 28.4299 127.068 27.504 127.068 26.4484C127.068 25.3928 127.26 24.4624 127.645 23.6572C128.034 22.8476 128.575 22.2169 129.269 21.7652C129.966 21.3089 130.781 21.0808 131.711 21.0808C132.248 21.0808 132.778 21.1702 133.301 21.3492C133.824 21.5281 134.301 21.8188 134.73 22.2214C135.16 22.6195 135.502 23.1473 135.757 23.8048C136.012 24.4624 136.139 25.272 136.139 26.2337V26.9046H128.195V25.5359H134.529C134.529 24.9544 134.413 24.4355 134.18 23.9793C133.952 23.523 133.625 23.163 133.2 22.8991C132.78 22.6352 132.284 22.5032 131.711 22.5032C131.08 22.5032 130.535 22.6598 130.074 22.9729C129.618 23.2815 129.266 23.6841 129.02 24.1806C128.774 24.6771 128.651 25.2094 128.651 25.7774V26.6899C128.651 27.4682 128.786 28.128 129.054 28.6692C129.327 29.206 129.705 29.6153 130.188 29.8971C130.671 30.1744 131.232 30.3131 131.872 30.3131C132.288 30.3131 132.664 30.2549 132.999 30.1386C133.339 30.0179 133.632 29.8389 133.878 29.6019C134.124 29.3603 134.314 29.0606 134.448 28.7028L135.978 29.1322C135.817 29.6511 135.547 30.1073 135.166 30.5009C134.786 30.8901 134.316 31.1943 133.757 31.4134C133.198 31.6281 132.57 31.7355 131.872 31.7355Z" fill="#F0602C"/>
<path d="M46.1113 17.7797H48.0973L52.7672 29.1859H52.9282L57.598 17.7797H59.584V31.5208H58.0274V21.0808H57.8932L53.5991 31.5208H52.0962L47.8021 21.0808H47.6679V31.5208H46.1113V17.7797Z" fill="#23B24D"/>
<path d="M62.9203 31.5208V17.7797H67.7243C68.6816 17.7797 69.471 17.9452 70.0928 18.2762C70.7145 18.6027 71.1775 19.0433 71.4817 19.598C71.7858 20.1481 71.9379 20.7587 71.9379 21.4297C71.9379 22.0201 71.8328 22.5077 71.6226 22.8923C71.4168 23.277 71.1439 23.5812 70.804 23.8048C70.4685 24.0285 70.104 24.194 69.7103 24.3013V24.4355C70.1308 24.4624 70.5535 24.61 70.9784 24.8784C71.4034 25.1467 71.759 25.5314 72.0453 26.0324C72.3315 26.5334 72.4747 27.1462 72.4747 27.8708C72.4747 28.5596 72.3181 29.1791 72.005 29.7293C71.6919 30.2795 71.1976 30.7156 70.5222 31.0377C69.8468 31.3597 68.9678 31.5208 67.8854 31.5208H62.9203ZM64.5843 30.0447H67.8854C68.9723 30.0447 69.7439 29.8344 70.2001 29.414C70.6609 28.989 70.8912 28.4747 70.8912 27.8708C70.8912 27.4056 70.7727 26.9762 70.5356 26.5826C70.2985 26.1845 69.9608 25.8669 69.5225 25.6298C69.0841 25.3883 68.5653 25.2675 67.9659 25.2675H64.5843V30.0447ZM64.5843 23.8183H67.6707C68.1716 23.8183 68.6234 23.7198 69.026 23.523C69.433 23.3262 69.7551 23.0489 69.9921 22.6911C70.2337 22.3332 70.3545 21.9128 70.3545 21.4297C70.3545 20.8258 70.1442 20.3137 69.7238 19.8932C69.3033 19.4683 68.6368 19.2558 67.7243 19.2558H64.5843V23.8183Z" fill="#23B24D"/>
<path d="M84.6021 22.0738C84.4545 21.622 84.2599 21.2172 84.0184 20.8594C83.7813 20.497 83.4973 20.1884 83.1663 19.9334C82.8397 19.6785 82.4685 19.4839 82.0525 19.3497C81.6365 19.2155 81.1802 19.1484 80.6837 19.1484C79.8697 19.1484 79.1294 19.3587 78.4629 19.7791C77.7964 20.1996 77.2664 20.8191 76.8727 21.6377C76.4791 22.4562 76.2823 23.4604 76.2823 24.6502C76.2823 25.84 76.4814 26.8442 76.8795 27.6628C77.2776 28.4814 77.8165 29.1009 78.4964 29.5213C79.1763 29.9418 79.9412 30.152 80.7911 30.152C81.5783 30.152 82.2717 29.9843 82.871 29.6488C83.4749 29.3089 83.9446 28.8303 84.28 28.213C84.62 27.5912 84.79 26.8599 84.79 26.019L85.2999 26.1263H81.1668V24.6502H86.4002V26.1263C86.4002 27.258 86.1587 28.2421 85.6756 29.0785C85.197 29.915 84.535 30.5635 83.6896 31.0243C82.8487 31.4805 81.8825 31.7086 80.7911 31.7086C79.5744 31.7086 78.5054 31.4224 77.584 30.8498C76.667 30.2773 75.9513 29.4632 75.4369 28.4076C74.927 27.3519 74.672 26.0995 74.672 24.6502C74.672 23.5633 74.8174 22.5859 75.1081 21.7182C75.4034 20.8459 75.8194 20.1034 76.3561 19.4906C76.8929 18.8778 77.528 18.4082 78.2616 18.0816C78.9952 17.7551 79.8026 17.5918 80.6837 17.5918C81.4084 17.5918 82.0838 17.7014 82.71 17.9206C83.3407 18.1353 83.9021 18.4417 84.3941 18.8398C84.8906 19.2334 85.3044 19.7053 85.6354 20.2555C85.9664 20.8012 86.1945 21.4073 86.3197 22.0738H84.6021Z" fill="#23B24D"/>
</svg>
