<svg width="20" height="18" viewBox="0 0 20 18" fill="none" xmlns="http://www.w3.org/2000/svg">
<path d="M19.4613 1.65854C19.3714 1.58854 19.2668 1.53992 19.1554 1.51636C19.0439 1.49281 18.9286 1.49494 18.8181 1.5226L13.0872 2.9551L7.33563 0.0788546C7.17537 -0.00107695 6.99181 -0.0210294 6.81812 0.0226047L0.818125 1.5226C0.65587 1.56316 0.511827 1.65679 0.408889 1.7886C0.305951 1.92042 0.250025 2.08286 0.25 2.2501V15.7501C0.250017 15.8641 0.276005 15.9765 0.325991 16.0789C0.375976 16.1814 0.448644 16.271 0.538475 16.3412C0.628306 16.4113 0.732937 16.46 0.844422 16.4837C0.955907 16.5073 1.07131 16.5052 1.18187 16.4776L6.91281 15.0451L12.6644 17.9214C12.7688 17.9728 12.8836 17.9998 13 18.0001C13.0613 18.0001 13.1224 17.9925 13.1819 17.9776L19.1819 16.4776C19.3441 16.437 19.4882 16.3434 19.5911 16.2116C19.694 16.0798 19.75 15.9174 19.75 15.7501V2.2501C19.75 2.13603 19.724 2.02346 19.674 1.92095C19.624 1.81844 19.5512 1.7287 19.4613 1.65854ZM7.75 1.96323L12.25 4.21323V16.037L7.75 13.787V1.96323ZM1.75 2.83604L6.25 1.71104V13.6642L1.75 14.7892V2.83604ZM18.25 15.1642L13.75 16.2892V4.33604L18.25 3.21104V15.1642Z" fill="#999999"/>
</svg>
