<svg width="50" height="62" viewBox="0 0 50 62" fill="none" xmlns="http://www.w3.org/2000/svg">
    <g filter="url(#filter0_d_1012_21170)">
        <path d="M28.9992 44.6003L28.6072 44.6798L28.3782 45.0078L25 49.8452L21.6218 45.0078L21.3928 44.6798L21.0008 44.6003C11.8713 42.748 5 34.6753 5 25C5 13.9543 13.9543 5 25 5C36.0457 5 45 13.9543 45 25C45 34.6753 38.1287 42.748 28.9992 44.6003Z" fill="white" stroke="#39B969" stroke-width="2"/>
        <path d="M27 56C27 54.8954 26.1046 54 25 54C23.8954 54 23 54.8954 23 56C23 57.1046 23.8954 58 25 58C26.1046 58 27 57.1046 27 56Z" fill="#39B969"/>
        <path d="M33.9375 22.25C33.9379 22.1861 33.9292 22.1224 33.9117 22.0609L32.6785 17.7469C32.5956 17.4606 32.4224 17.2089 32.1846 17.0292C31.9469 16.8495 31.6574 16.7516 31.3594 16.75H18.6406C18.3426 16.7516 18.0531 16.8495 17.8154 17.0292C17.5776 17.2089 17.4044 17.4606 17.3215 17.7469L16.0891 22.0609C16.0714 22.1224 16.0624 22.186 16.0625 22.25V23.625C16.0625 24.1587 16.1867 24.685 16.4254 25.1623C16.6641 25.6396 17.0106 26.0548 17.4375 26.375V31.875C17.4375 32.2397 17.5824 32.5894 17.8402 32.8473C18.0981 33.1051 18.4478 33.25 18.8125 33.25H31.1875C31.5522 33.25 31.9019 33.1051 32.1598 32.8473C32.4176 32.5894 32.5625 32.2397 32.5625 31.875V26.375C32.9894 26.0548 33.3359 25.6396 33.5746 25.1623C33.8133 24.685 33.9375 24.1587 33.9375 23.625V22.25ZM21.5625 23.625C21.5624 23.9797 21.4708 24.3283 21.2966 24.6373C21.1224 24.9462 20.8715 25.205 20.5681 25.3887C20.2647 25.5723 19.919 25.6747 19.5645 25.6858C19.21 25.6969 18.8587 25.6164 18.5444 25.452C18.4966 25.4148 18.4439 25.3842 18.388 25.3609C18.0967 25.1745 17.857 24.9178 17.6909 24.6144C17.5248 24.3111 17.4377 23.9708 17.4375 23.625V22.9375H21.5625V23.625ZM27.0625 23.625C27.0625 24.172 26.8452 24.6966 26.4584 25.0834C26.0716 25.4702 25.547 25.6875 25 25.6875C24.453 25.6875 23.9284 25.4702 23.5416 25.0834C23.1548 24.6966 22.9375 24.172 22.9375 23.625V22.9375H27.0625V23.625ZM32.5625 23.625C32.5622 23.9709 32.4749 24.3112 32.3087 24.6146C32.1425 24.9179 31.9026 25.1746 31.6112 25.3609C31.5559 25.3842 31.5039 25.4145 31.4565 25.4512C31.1422 25.6157 30.7908 25.6963 30.4363 25.6854C30.0817 25.6744 29.736 25.5722 29.4325 25.3886C29.129 25.205 28.878 24.9463 28.7037 24.6373C28.5294 24.3284 28.4377 23.9797 28.4375 23.625V22.9375H32.5625V23.625Z" fill="#39B969"/>
    </g>
    <defs>
        <filter id="filter0_d_1012_21170" x="0" y="0" width="50" height="62" filterUnits="userSpaceOnUse" color-interpolation-filters="sRGB">
            <feFlood flood-opacity="0" result="BackgroundImageFix"/>
            <feColorMatrix in="SourceAlpha" type="matrix" values="0 0 0 0 0 0 0 0 0 0 0 0 0 0 0 0 0 0 127 0" result="hardAlpha"/>
            <feOffset/>
            <feGaussianBlur stdDeviation="2"/>
            <feComposite in2="hardAlpha" operator="out"/>
            <feColorMatrix type="matrix" values="0 0 0 0 0.08075 0 0 0 0 0.269167 0 0 0 0 0.151406 0 0 0 0.1 0"/>
            <feBlend mode="normal" in2="BackgroundImageFix" result="effect1_dropShadow_1012_21170"/>
            <feBlend mode="normal" in="SourceGraphic" in2="effect1_dropShadow_1012_21170" result="shape"/>
        </filter>
    </defs>
</svg>
