<svg width="26" height="26" viewBox="0 0 26 26" fill="none" xmlns="http://www.w3.org/2000/svg">
<rect y="3" width="26" height="23" rx="8" fill="#E7F2FF"/>
<path d="M18.2542 2.96747C18.2035 3.255 17.9309 3.44726 17.6449 3.39683L11.7946 2.36527C11.5086 2.31484 11.3181 2.04091 11.3688 1.75338L11.5708 0.607858C11.6215 0.320326 11.8942 0.128065 12.1802 0.178494L18.0305 1.21006C18.3165 1.26049 18.5069 1.53441 18.4562 1.82194L18.2542 2.96747Z" fill="#E4E9ED"/>
<path d="M11.4439 1.41536L10.5507 3.51263L18.4406 4.90383L18.327 2.62904L11.4439 1.41536Z" fill="#B0BDC6"/>
<path d="M18.4435 4.87995L10.5544 3.48889L7.17582 22.65L15.0649 24.0411L18.4435 4.87995Z" fill="white"/>
<path d="M14.6093 3.55104C15.3415 3.68016 15.971 3.57611 16.0161 3.32002L16.1719 2.43672L13.5212 1.96934L13.3655 2.85263C13.3202 3.1095 13.877 3.42193 14.6085 3.55091L14.6093 3.55104Z" fill="#808A8E"/>
<path d="M16.1659 2.45888C16.1206 2.71574 15.4905 2.81888 14.759 2.6899C14.0275 2.56092 13.4707 2.24849 13.516 1.99163C13.5613 1.73477 14.1914 1.63162 14.9228 1.7606C15.6543 1.88958 16.211 2.20278 16.1659 2.45888Z" fill="#95A0A3"/>
<path d="M16.1051 2.44857C16.1027 2.46237 16.0972 2.47564 16.0893 2.48926C15.9607 2.26814 15.4778 2.03832 14.8774 1.93246C14.2771 1.8266 13.7809 1.8743 13.5693 2.02515C13.5691 2.01721 13.5697 2.00941 13.571 2.00174C13.605 1.80929 14.1634 1.6864 14.9103 1.81808C15.6571 1.94976 16.1398 2.25625 16.1059 2.44871L16.1051 2.44857Z" fill="#808A8E"/>
<path d="M16.1232 2.63111C15.8875 2.82436 15.2934 2.84451 14.7482 2.74839C14.2031 2.65226 13.6089 2.41231 13.4797 2.13653C13.4942 2.09481 13.5261 2.05696 13.5714 2.02462C13.783 1.87377 14.2991 1.82959 14.8795 1.93193C15.46 2.03428 15.9627 2.26761 16.0914 2.48873C16.1192 2.53712 16.1307 2.5842 16.1225 2.63021L16.1232 2.63111Z" fill="#95A0A3"/>
<path d="M14.9325 1.70233C14.2624 1.58416 13.517 1.64168 13.4571 1.98135C13.4478 2.03426 13.456 2.0863 13.4802 2.13722C13.6087 2.41287 14.1821 2.64916 14.7488 2.74908C15.3154 2.84899 15.8888 2.82518 16.1237 2.6318C16.1781 2.58764 16.213 2.53369 16.2242 2.47005C16.2841 2.13038 15.6041 1.82153 14.9332 1.70323L14.9325 1.70233ZM14.7685 2.63239C14.0516 2.50598 13.5774 2.21839 13.5719 2.02531C13.5717 2.01737 13.5723 2.00957 13.5737 2.0019C13.6076 1.80945 14.1661 1.68656 14.9129 1.81824C15.6597 1.94993 16.1425 2.25642 16.1085 2.44887C16.1061 2.46267 16.1006 2.47593 16.0927 2.48955C15.9927 2.65771 15.4624 2.75475 14.7693 2.63253L14.7685 2.63239Z" fill="#D2EEF7"/>
<path d="M16.3048 17.0004L15.0633 24.0415L7.17416 22.6504L9.01611 12.2042C10.1375 12.7134 11.2113 14.0887 11.8454 14.7254C12.8233 15.7074 13.5033 16.5009 14.9524 16.8284C15.3614 16.921 15.8287 16.9876 16.3049 16.9996L16.3048 17.0004Z" fill="#4A8FCA"/>
<path d="M17.4555 10.4746L16.7273 14.6043C15.1753 14.8556 13.4402 14.4105 12.2796 13.4152C11.2117 12.4996 10.3511 11.7755 9.16768 11.3446L9.6936 8.36198C11.2663 8.89861 12.64 10.0128 14.3291 10.3826C15.436 10.6244 16.4497 10.6546 17.4555 10.4746Z" fill="#4A8FCA"/>
<path d="M12.95 10.9813L12.5873 13.0385C12.5732 13.1182 12.5428 13.1429 12.4592 13.1281L12.2959 13.0993C12.2123 13.0846 12.1922 13.051 12.2062 12.9713L12.3786 11.9937C12.4108 11.8112 12.4698 11.6065 12.5678 11.3692L12.5455 11.3653C12.4235 11.5913 12.3147 11.7373 12.1791 11.9055L11.767 12.4044C11.7216 12.4557 11.6929 12.4704 11.6285 12.4591L11.5257 12.441C11.4583 12.4291 11.4383 12.4121 11.4143 12.3422L11.1921 11.7283C11.1159 11.5236 11.0794 11.3717 11.0481 11.1013L11.0258 11.0974C11.0331 11.3564 11.0158 11.5486 10.9803 11.7503L10.8084 12.7248C10.7944 12.8045 10.7639 12.8292 10.6804 12.8145L10.5262 12.7873C10.4427 12.7726 10.4194 12.7384 10.4335 12.6587L10.7962 10.6015C10.8104 10.521 10.8446 10.4978 10.9274 10.5124L11.0685 10.5372C11.1582 10.553 11.1845 10.5743 11.2078 10.648L11.6639 11.9578L12.5399 10.886C12.5907 10.8222 12.6158 10.8101 12.7024 10.8253L12.8596 10.8531C12.9432 10.8678 12.9633 10.9014 12.9493 10.9811L12.95 10.9813Z" fill="#E4E9ED"/>
<path d="M13.7404 11.2006L13.7353 11.2297C13.7093 11.377 13.6525 11.4167 13.5053 11.3908L13.4831 11.3869C13.3358 11.3609 13.2961 11.3041 13.322 11.1569L13.3271 11.1277C13.3531 10.9805 13.4094 10.9438 13.5566 10.9698L13.5788 10.9737C13.7261 10.9996 13.7664 11.0534 13.7404 11.2006ZM13.6286 11.7224L13.3704 13.1869C13.3574 13.2606 13.3275 13.2822 13.2532 13.269L13.0768 13.238C13.0032 13.225 12.9854 13.1957 12.9985 13.1214L13.2568 11.6569C13.2698 11.5833 13.2959 11.565 13.3695 11.5779L13.5459 11.609C13.6195 11.622 13.6416 11.6488 13.6286 11.7224Z" fill="#E4E9ED"/>
<path d="M14.0019 13.4009L13.8286 13.3703C13.7519 13.3568 13.7334 13.3275 13.7465 13.2531L14.1296 11.0801C14.1426 11.0065 14.1695 10.9844 14.2469 10.998L14.4202 11.0286C14.4938 11.0415 14.5154 11.0714 14.5023 11.1458L14.1191 13.3188C14.1061 13.3924 14.0763 13.414 14.0019 13.4009Z" fill="#E4E9ED"/>
<path d="M15.834 13.7241L15.6707 13.6953C15.5588 13.6756 15.5388 13.6586 15.5163 13.5756L15.3929 13.1142C15.3613 12.9932 15.2987 12.9356 15.1645 12.9119L14.9721 12.878L14.8715 13.4484C14.858 13.5251 14.8311 13.5472 14.7506 13.5331L14.5873 13.5043C14.5076 13.4902 14.4859 13.4603 14.4996 13.3829L14.8815 11.2168C14.8951 11.1401 14.925 11.1185 15.0055 11.1327L15.1688 11.1615C15.2485 11.1756 15.2671 11.2049 15.2534 11.2824L15.033 12.5322L15.1994 12.5615L15.735 12.0709C15.7993 12.0063 15.8285 12.0115 15.9404 12.0312L16.0976 12.0589C16.1973 12.0765 16.2122 12.1218 16.1417 12.1853L15.5522 12.6996C15.6395 12.7648 15.6948 12.8639 15.7361 13.0064L15.9163 13.6161C15.9455 13.7105 15.9276 13.7406 15.8348 13.7242L15.834 13.7241Z" fill="#E4E9ED"/>
<g style="mix-blend-mode:multiply" opacity="0.7">
<path d="M15.9991 18.7405L15.0645 24.041L7.17538 22.65L8.34229 16.0322C8.42817 16.1279 8.51816 16.2229 8.61303 16.3171C10.5817 18.2667 13.3879 19.0896 15.9991 18.7405Z" fill="#4A8FCA"/>
</g>
</svg>
