<svg width="28" height="36" viewBox="0 0 28 36" fill="none" xmlns="http://www.w3.org/2000/svg">
<path d="M22.6794 21.1773L21.1301 21.7046L21.0454 21.7332L20.5256 21.9105L6.1377 26.8072L12.1682 35.1364C13.0018 36.288 14.7176 36.2876 15.5508 35.1364L24.6556 22.5561C25.3036 21.7527 25.8641 20.8751 26.3211 19.9381L22.6794 21.1773Z" fill="#F8A137"/>
<path d="M4.21379 11.9173L5.71332 13.9889L0.14655 15.8833C0.0498195 15.2232 0 14.5477 0 13.8606C0 10.1073 1.49205 6.70218 3.9153 4.20587L4.82905 7.12522C4.01161 7.7413 3.48271 8.7194 3.48271 9.81955C3.48271 10.5793 3.74218 11.3236 4.21379 11.9169V11.9173Z" fill="#23B24D"/>
<path d="M10.0077 23.6679L5.07985 25.3443L3.01904 22.498L2.25807 21.4472L2.25682 21.4456C1.48672 20.2699 0.890974 18.9709 0.504883 17.5834L6.77077 15.4508L6.99578 15.3744L7.37149 15.2465L10.0073 23.6675L10.0077 23.6679Z" fill="#F0602B"/>
<path d="M17.3798 10.0184L8.74717 12.9569L9.51894 11.8908L9.68915 11.6554L9.69995 11.6355C10.0462 11.0937 10.2297 10.4668 10.2297 9.82042C10.2297 7.96054 8.71604 6.44731 6.85616 6.44731C6.71293 6.44731 6.57219 6.45644 6.43353 6.47388L5.32715 2.93845C7.6794 1.09766 10.6423 0 13.8614 0C13.9897 0 14.1172 0.00166041 14.245 0.00498162H14.2454L17.3798 10.0184Z" fill="#F8A137"/>
<path d="M18.1129 18.5739L19.4692 20.4475L11.6423 23.1115L9.0061 14.6906L17.8958 11.6654L18.5924 13.8906C17.8526 14.5096 17.3822 15.4387 17.3822 16.4765C17.3822 17.2363 17.6417 17.9806 18.1133 18.5739H18.1129Z" fill="#23B24D"/>
<path d="M25.9643 7.0974L19.015 9.46252L16.1094 0.180969C20.3481 0.872197 23.9416 3.48558 25.9643 7.0974Z" fill="#F0602B"/>
<path d="M27.7218 13.8607C27.7218 15.2423 27.52 16.5766 27.1439 17.8353L22.8827 19.285L23.5545 18.3563L23.5773 18.3231C23.9372 17.7739 24.127 17.135 24.127 16.4765C24.127 14.6167 22.6137 13.1034 20.7538 13.1034C20.5542 13.1034 20.3586 13.1209 20.1685 13.1545L19.5283 11.1095L26.7142 8.66421C27.3639 10.2696 27.7218 12.0236 27.7218 13.8611V13.8607Z" fill="#23B24D"/>
<path d="M20.7546 13.9661C20.6445 13.9661 20.5362 13.9732 20.4295 13.9869C19.8151 14.0662 19.2708 14.3676 18.8785 14.808C18.4841 15.2514 18.2441 15.8364 18.2441 16.4765C18.2441 17.0731 18.4517 17.6211 18.7992 18.0512L20.3232 20.1569L20.466 20.3541C20.608 20.5508 20.9015 20.5508 21.0435 20.3541L22.0067 19.0239L22.7182 18.0408L22.8561 17.8503C22.9856 17.6522 23.0877 17.4364 23.1575 17.2055C23.2276 16.9747 23.265 16.7298 23.265 16.4761C23.265 15.0895 22.1412 13.9657 20.7546 13.9657V13.9661ZM20.7546 17.548C20.119 17.548 19.6038 17.0328 19.6038 16.3972C19.6038 15.7616 20.119 15.2469 20.7546 15.2469C21.3902 15.2469 21.905 15.7616 21.905 16.3972C21.905 17.0328 21.3902 17.548 20.7546 17.548Z" fill="#23B24D"/>
<path d="M6.85613 7.30961C6.80258 7.30961 6.74985 7.31127 6.69671 7.31459C6.08062 7.3532 5.52473 7.6135 5.10834 8.01744C4.63797 8.47411 4.3457 9.11261 4.3457 9.82003C4.3457 10.4166 4.55328 10.9646 4.90076 11.3951L6.5676 13.6984C6.70958 13.8943 7.00226 13.8943 7.14507 13.6984L8.22737 12.2034L8.82021 11.3839L8.95763 11.1934H8.95805C9.21627 10.799 9.36697 10.3265 9.36697 9.8192C9.36697 8.43259 8.24274 7.30878 6.85613 7.30878V7.30961ZM6.85156 10.9123C6.21597 10.9123 5.70118 10.3971 5.70118 9.7615C5.70118 9.1259 6.21597 8.61111 6.85156 8.61111C7.48716 8.61111 8.00236 9.12631 8.00236 9.7615C8.00236 10.3967 7.48716 10.9123 6.85156 10.9123Z" fill="#F0602B"/>
</svg>
