<svg width="46" height="36" viewBox="0 0 46 36" fill="none" xmlns="http://www.w3.org/2000/svg">
<path d="M10.9869 29.6115H8.18743C8.17273 29.4388 8.11211 29.2901 8.00557 29.1651C7.89903 29.0402 7.76126 28.9447 7.59226 28.8786C7.42694 28.8088 7.24324 28.7739 7.04118 28.7739C6.78033 28.7739 6.55623 28.8216 6.36886 28.9172C6.18149 29.0127 6.08964 29.1486 6.09332 29.325C6.08964 29.4499 6.14292 29.5656 6.25313 29.6721C6.36702 29.7787 6.58562 29.8613 6.90892 29.9201L8.62829 30.2287C9.49533 30.3867 10.1401 30.6531 10.5626 31.0278C10.9888 31.3989 11.2037 31.8967 11.2074 32.5212C11.2037 33.1237 11.0237 33.6473 10.6673 34.0918C10.3146 34.5327 9.83149 34.8743 9.21795 35.1168C8.60809 35.3556 7.91189 35.475 7.12935 35.475C5.83615 35.475 4.82399 35.2105 4.09289 34.6815C3.36546 34.1524 2.9595 33.4544 2.875 32.5874H5.89493C5.93534 32.8555 6.0676 33.0631 6.29171 33.2101C6.51949 33.3534 6.80605 33.425 7.1514 33.425C7.43061 33.425 7.66023 33.3772 7.84025 33.2817C8.02394 33.1862 8.11763 33.0503 8.1213 32.8739C8.11763 32.7123 8.0368 32.5837 7.87882 32.4882C7.72452 32.3926 7.48204 32.3155 7.1514 32.2567L5.65245 31.9922C4.78909 31.8416 4.14249 31.555 3.71264 31.1325C3.2828 30.71 3.06972 30.1663 3.07339 29.5013C3.06972 28.9135 3.22402 28.4157 3.5363 28.0079C3.85225 27.5964 4.3023 27.2841 4.88645 27.071C5.47427 26.8543 6.17047 26.7459 6.97505 26.7459C8.19845 26.7459 9.16284 26.9994 9.86823 27.5064C10.5773 28.0134 10.9502 28.7151 10.9869 29.6115Z" fill="#232323"/>
<path d="M17.4208 26.8561V29.0604H11.8439V26.8561H17.4208ZM12.924 24.8281H15.9659V32.5984C15.9659 32.7159 15.9862 32.8151 16.0266 32.896C16.067 32.9731 16.1294 33.0319 16.2139 33.0723C16.2984 33.109 16.4068 33.1274 16.5391 33.1274C16.6309 33.1274 16.7375 33.1164 16.8587 33.0944C16.9836 33.0723 17.0755 33.0539 17.1342 33.0392L17.5751 35.1774C17.4392 35.2179 17.2445 35.2675 16.991 35.3262C16.7411 35.385 16.4436 35.4236 16.0982 35.442C15.4002 35.4787 14.8142 35.4071 14.3403 35.227C13.8663 35.0433 13.51 34.7549 13.2712 34.3618C13.0324 33.9687 12.9166 33.4764 12.924 32.8849V24.8281Z" fill="#232323"/>
<path d="M22.6492 35.475C21.7307 35.475 20.9445 35.2932 20.2906 34.9295C19.6366 34.5621 19.1351 34.0514 18.7861 33.3974C18.4371 32.7398 18.2626 31.9775 18.2626 31.1105C18.2626 30.2434 18.4371 29.4829 18.7861 28.829C19.1351 28.1714 19.6366 27.6607 20.2906 27.297C20.9445 26.9296 21.7307 26.7459 22.6492 26.7459C23.5677 26.7459 24.3539 26.9296 25.0078 27.297C25.6618 27.6607 26.1633 28.1714 26.5123 28.829C26.8613 29.4829 27.0358 30.2434 27.0358 31.1105C27.0358 31.9775 26.8613 32.7398 26.5123 33.3974C26.1633 34.0514 25.6618 34.5621 25.0078 34.9295C24.3539 35.2932 23.5677 35.475 22.6492 35.475ZM22.6712 33.2266C22.9284 33.2266 23.1507 33.1403 23.338 32.9676C23.5254 32.7949 23.6705 32.5488 23.7734 32.2292C23.8763 31.9095 23.9277 31.5293 23.9277 31.0884C23.9277 30.6439 23.8763 30.2636 23.7734 29.9477C23.6705 29.628 23.5254 29.3819 23.338 29.2092C23.1507 29.0366 22.9284 28.9502 22.6712 28.9502C22.3994 28.9502 22.1661 29.0366 21.9714 29.2092C21.7766 29.3819 21.6279 29.628 21.525 29.9477C21.4221 30.2636 21.3707 30.6439 21.3707 31.0884C21.3707 31.5293 21.4221 31.9095 21.525 32.2292C21.6279 32.5488 21.7766 32.7949 21.9714 32.9676C22.1661 33.1403 22.3994 33.2266 22.6712 33.2266Z" fill="#232323"/>
<path d="M28.2702 35.3207V26.8561H31.224V28.4653H31.3122C31.4665 27.8701 31.7108 27.4347 32.0451 27.1592C32.3831 26.8837 32.7781 26.7459 33.23 26.7459C33.3622 26.7459 33.4926 26.7569 33.6212 26.779C33.7535 26.7973 33.8802 26.8249 34.0015 26.8616V29.4572C33.8508 29.4058 33.6653 29.3672 33.4449 29.3415C33.2245 29.3158 33.0352 29.3029 32.8773 29.3029C32.5797 29.3029 32.3115 29.3709 32.0727 29.5068C31.8376 29.6391 31.652 29.8264 31.5161 30.0689C31.3802 30.3077 31.3122 30.5888 31.3122 30.9121V35.3207H28.2702Z" fill="#232323"/>
<path d="M38.5699 35.475C37.6662 35.475 36.8873 35.3024 36.2334 34.957C35.5831 34.608 35.0816 34.1083 34.7289 33.4581C34.3799 32.8041 34.2054 32.0216 34.2054 31.1105C34.2054 30.2361 34.3817 29.4719 34.7344 28.818C35.0871 28.164 35.5849 27.6552 36.2279 27.2915C36.8708 26.9277 37.6294 26.7459 38.5038 26.7459C39.1431 26.7459 39.7217 26.8451 40.2397 27.0435C40.7577 27.2419 41.2004 27.5303 41.5678 27.9087C41.9352 28.2834 42.2181 28.739 42.4165 29.2754C42.6149 29.8117 42.7141 30.4161 42.7141 31.0884V31.7938H35.1532V30.1185H39.9146C39.9109 29.876 39.8485 29.6629 39.7272 29.4793C39.6097 29.2919 39.4498 29.1468 39.2478 29.0439C39.0494 28.9374 38.8234 28.8841 38.5699 28.8841C38.3238 28.8841 38.0979 28.9374 37.8921 29.0439C37.6864 29.1468 37.5211 29.2901 37.3961 29.4737C37.2749 29.6574 37.2106 29.8724 37.2033 30.1185V31.9261C37.2033 32.1979 37.2602 32.4404 37.3741 32.6535C37.488 32.8666 37.6515 33.0337 37.8646 33.155C38.0776 33.2762 38.3348 33.3368 38.6361 33.3368C38.8455 33.3368 39.0365 33.3074 39.2092 33.2487C39.3856 33.1899 39.5362 33.1054 39.6611 32.9952C39.786 32.8813 39.8778 32.7453 39.9366 32.5874H42.7141C42.6186 33.1752 42.3926 33.6858 42.0363 34.1194C41.6799 34.5492 41.2078 34.8835 40.62 35.1223C40.0358 35.3575 39.3525 35.475 38.5699 35.475Z" fill="#232323"/>
<rect y="0.20166" width="45.7279" height="21.9404" rx="4" fill="#39B969"/>
<path d="M5.17285 5.52878H8.98634L11.6095 11.9213H11.7417L14.3649 5.52878H18.1784V16.8149H15.1805V10.2901H15.0923L12.5794 16.7268H10.7718L8.25891 10.246H8.17074V16.8149H5.17285V5.52878Z" fill="white"/>
<path d="M19.6305 16.8149V5.52878H24.5241C25.3838 5.52878 26.1057 5.64451 26.6898 5.87597C27.2777 6.10742 27.7204 6.4344 28.018 6.85689C28.3192 7.27939 28.4698 7.7772 28.4698 8.35032C28.4698 8.76547 28.378 9.14388 28.1943 9.48555C28.0143 9.82722 27.7608 10.1138 27.4338 10.3452C27.1068 10.573 26.7247 10.731 26.2876 10.8192V10.9294C26.7725 10.9478 27.2134 11.0708 27.6102 11.2986C28.0069 11.5227 28.3229 11.8332 28.558 12.2299C28.7931 12.623 28.9107 13.086 28.9107 13.6187C28.9107 14.2359 28.7491 14.7851 28.4258 15.2664C28.1061 15.7477 27.6506 16.1261 27.0591 16.4016C26.4676 16.6772 25.7622 16.8149 24.9429 16.8149H19.6305ZM22.6945 14.3681H24.1273C24.6417 14.3681 25.0274 14.2726 25.2846 14.0816C25.5418 13.8869 25.6703 13.6003 25.6703 13.2219C25.6703 12.9574 25.6097 12.7333 25.4885 12.5496C25.3672 12.3659 25.1946 12.2263 24.9705 12.1307C24.75 12.0352 24.4837 11.9875 24.1714 11.9875H22.6945V14.3681ZM22.6945 10.0917H23.951C24.2192 10.0917 24.4561 10.0495 24.6619 9.96499C24.8676 9.88049 25.0274 9.75926 25.1413 9.60128C25.2589 9.43963 25.3177 9.24308 25.3177 9.01162C25.3177 8.6626 25.1927 8.39625 24.9429 8.21255C24.6931 8.02519 24.3771 7.9315 23.9951 7.9315H22.6945V10.0917Z" fill="white"/>
<path d="M37.3257 9.2541C37.278 9.05938 37.2027 8.88855 37.0998 8.74159C36.9969 8.59096 36.8683 8.46421 36.714 8.36135C36.5634 8.2548 36.3871 8.17581 36.185 8.12438C35.9866 8.06927 35.768 8.04172 35.5292 8.04172C35.0149 8.04172 34.5758 8.16479 34.2121 8.41094C33.8521 8.65709 33.5765 9.01162 33.3855 9.47453C33.1981 9.93744 33.1044 10.4959 33.1044 11.1498C33.1044 11.8111 33.1945 12.3769 33.3745 12.8472C33.5545 13.3174 33.8227 13.6774 34.179 13.9273C34.5354 14.1771 34.9781 14.302 35.5072 14.302C35.9737 14.302 36.3613 14.234 36.6699 14.0981C36.9822 13.9622 37.2155 13.7693 37.3698 13.5195C37.5241 13.2696 37.6013 12.9757 37.6013 12.6377L38.1303 12.6928H35.5512V10.5106H40.5551V12.0756C40.5551 13.1043 40.3365 13.9842 39.8993 14.7153C39.4658 15.4427 38.8669 16.0012 38.1028 16.3906C37.3423 16.7764 36.4697 16.9692 35.4851 16.9692C34.3866 16.9692 33.4222 16.736 32.5919 16.2694C31.7616 15.8028 31.1132 15.1378 30.6466 14.2745C30.1837 13.4111 29.9523 12.3842 29.9523 11.1939C29.9523 10.2607 30.0937 9.43412 30.3766 8.71404C30.6631 7.99396 31.0599 7.38593 31.5669 6.88996C32.0739 6.39031 32.6599 6.01374 33.3249 5.76024C33.9898 5.50307 34.7026 5.37448 35.4631 5.37448C36.1317 5.37448 36.7526 5.47 37.3257 5.66104C37.9025 5.84841 38.4114 6.1166 38.8522 6.46562C39.2968 6.81097 39.655 7.22061 39.9268 7.69454C40.1987 8.16847 40.364 8.68832 40.4228 9.2541H37.3257Z" fill="white"/>
</svg>
