<svg width="202" height="202" viewBox="0 0 202 202" fill="none" xmlns="http://www.w3.org/2000/svg">
<path d="M1 9C1 6.87827 1.84285 4.84344 3.34315 3.34315C4.84344 1.84285 6.87827 1 9 1V9H1Z" fill="#232323"/>
<path d="M9 1H17V9H9V1Z" fill="#232323"/>
<path d="M17 1H25V9H17V1Z" fill="#232323"/>
<path d="M25 1H33V9H25V1Z" fill="#232323"/>
<path d="M33 1H41V9H33V1Z" fill="#232323"/>
<path d="M41 1H49V9H41V1Z" fill="#232323"/>
<path d="M49 1C51.1217 1 53.1566 1.84285 54.6569 3.34315C56.1571 4.84344 57 6.87827 57 9H49V1Z" fill="#232323"/>
<path d="M77 1C75.9391 1 74.9217 1.42143 74.1716 2.17157C73.4214 2.92172 73 3.93913 73 5C73 6.06087 73.4214 7.07828 74.1716 7.82843C74.9217 8.57857 75.9391 9 77 9H81V1H77Z" fill="#232323"/>
<path d="M85 1C86.0609 1 87.0783 1.42143 87.8284 2.17157C88.5786 2.92172 89 3.93913 89 5C89 6.06087 88.5786 7.07828 87.8284 7.82843C87.0783 8.57857 86.0609 9 85 9H81V1H85Z" fill="#232323"/>
<path d="M125 1C126.061 1 127.078 1.42143 127.828 2.17157C128.579 2.92172 129 3.93913 129 5C129 6.06087 128.579 7.07828 127.828 7.82843C127.078 8.57857 126.061 9 125 9C123.939 9 122.922 8.57857 122.172 7.82843C121.421 7.07828 121 6.06087 121 5C121 3.93913 121.421 2.92172 122.172 2.17157C122.922 1.42143 123.939 1 125 1Z" fill="#232323"/>
<path d="M145 9C145 6.87827 145.843 4.84344 147.343 3.34315C148.843 1.84285 150.878 1 153 1V9H145Z" fill="#232323"/>
<path d="M153 1H161V9H153V1Z" fill="#232323"/>
<path d="M161 1H169V9H161V1Z" fill="#232323"/>
<path d="M169 1H177V9H169V1Z" fill="#232323"/>
<path d="M177 1H185V9H177V1Z" fill="#232323"/>
<path d="M185 1H193V9H185V1Z" fill="#232323"/>
<path d="M193 1C195.122 1 197.157 1.84285 198.657 3.34315C200.157 4.84344 201 6.87827 201 9H193V1Z" fill="#232323"/>
<path d="M1 9H9V17H1V9Z" fill="#232323"/>
<path d="M49 9H57V17H49V9Z" fill="#232323"/>
<path d="M65 13C65 11.9391 65.4214 10.9217 66.1716 10.1716C66.9217 9.42143 67.9391 9 69 9C70.0609 9 71.0783 9.42143 71.8284 10.1716C72.5786 10.9217 73 11.9391 73 13V17H65V13Z" fill="#232323"/>
<path d="M89 17C89 14.8783 89.8429 12.8434 91.3431 11.3431C92.8434 9.84285 94.8783 9 97 9V17H89Z" fill="#232323"/>
<path d="M97 9H105V17H97V9Z" fill="#232323"/>
<path d="M105 9C107.122 9 109.157 9.84285 110.657 11.3431C112.157 12.8434 113 14.8783 113 17H105V9Z" fill="#232323"/>
<path d="M133 9C134.061 9 135.078 9.42143 135.828 10.1716C136.579 10.9217 137 11.9391 137 13C137 14.0609 136.579 15.0783 135.828 15.8284C135.078 16.5786 134.061 17 133 17C131.939 17 130.922 16.5786 130.172 15.8284C129.421 15.0783 129 14.0609 129 13C129 11.9391 129.421 10.9217 130.172 10.1716C130.922 9.42143 131.939 9 133 9Z" fill="#232323"/>
<path d="M145 9H153V17H145V9Z" fill="#232323"/>
<path d="M193 9H201V17H193V9Z" fill="#232323"/>
<path d="M1 17H9V25H1V17Z" fill="#232323"/>
<path d="M17 25C17 22.8783 17.8429 20.8434 19.3431 19.3431C20.8434 17.8429 22.8783 17 25 17V25H17Z" fill="#232323"/>
<path d="M25 17H33V25H25V17Z" fill="#232323"/>
<path d="M33 17C35.1217 17 37.1566 17.8429 38.6569 19.3431C40.1571 20.8434 41 22.8783 41 25H33V17Z" fill="#232323"/>
<path d="M49 17H57V25H49V17Z" fill="#232323"/>
<path d="M65 17H73V25H65V17Z" fill="#232323"/>
<path d="M89 17H97V25H89V17Z" fill="#232323"/>
<path d="M97 17H105V25H97V17Z" fill="#232323"/>
<path d="M105 17H113V25H105V17Z" fill="#232323"/>
<path d="M113 17H121V25H113V17Z" fill="#232323"/>
<path d="M121 17C123.122 17 125.157 17.8429 126.657 19.3431C128.157 20.8434 129 22.8783 129 25H121V17Z" fill="#232323"/>
<path d="M145 17H153V25H145V17Z" fill="#232323"/>
<path d="M161 25C161 22.8783 161.843 20.8434 163.343 19.3431C164.843 17.8429 166.878 17 169 17V25H161Z" fill="#232323"/>
<path d="M169 17H177V25H169V17Z" fill="#232323"/>
<path d="M177 17C179.122 17 181.157 17.8429 182.657 19.3431C184.157 20.8434 185 22.8783 185 25H177V17Z" fill="#232323"/>
<path d="M193 17H201V25H193V17Z" fill="#232323"/>
<path d="M1 25H9V33H1V25Z" fill="#232323"/>
<path d="M17 25H25V33H17V25Z" fill="#232323"/>
<path d="M25 25H33V33H25V25Z" fill="#232323"/>
<path d="M33 25H41V33H33V25Z" fill="#232323"/>
<path d="M49 25H57V33H49V25Z" fill="#232323"/>
<path d="M65 25H73V33H65V25Z" fill="#232323"/>
<path d="M77 25C78.0609 25 79.0783 25.4214 79.8284 26.1716C80.5786 26.9217 81 27.9391 81 29C81 30.0609 80.5786 31.0783 79.8284 31.8284C79.0783 32.5786 78.0609 33 77 33H73V25H77Z" fill="#232323"/>
<path d="M89 25H97V33H89V25Z" fill="#232323"/>
<path d="M121 25C121 27.1217 121.843 29.1566 123.343 30.6569C124.843 32.1571 126.878 33 129 33V25H121Z" fill="#232323"/>
<path d="M133 25C134.061 25 135.078 25.4214 135.828 26.1716C136.579 26.9217 137 27.9391 137 29C137 30.0609 136.579 31.0783 135.828 31.8284C135.078 32.5786 134.061 33 133 33H129V25H133Z" fill="#232323"/>
<path d="M145 25H153V33H145V25Z" fill="#232323"/>
<path d="M161 25H169V33H161V25Z" fill="#232323"/>
<path d="M169 25H177V33H169V25Z" fill="#232323"/>
<path d="M177 25H185V33H177V25Z" fill="#232323"/>
<path d="M193 25H201V33H193V25Z" fill="#232323"/>
<path d="M1 33H9V41H1V33Z" fill="#232323"/>
<path d="M17 33C17 35.1217 17.8429 37.1566 19.3431 38.6569C20.8434 40.1571 22.8783 41 25 41V33H17Z" fill="#232323"/>
<path d="M25 33H33V41H25V33Z" fill="#232323"/>
<path d="M33 41C35.1217 41 37.1566 40.1571 38.6569 38.6569C40.1571 37.1566 41 35.1217 41 33H33V41Z" fill="#232323"/>
<path d="M49 33H57V41H49V33Z" fill="#232323"/>
<path d="M65 33H73V41H65V33Z" fill="#232323"/>
<path d="M85 33C83.9391 33 82.9217 33.4214 82.1716 34.1716C81.4214 34.9217 81 35.9391 81 37C81 38.0609 81.4214 39.0783 82.1716 39.8284C82.9217 40.5786 83.9391 41 85 41H89V33H85Z" fill="#232323"/>
<path d="M89 41C91.1217 41 93.1566 40.1571 94.6569 38.6569C96.1572 37.1566 97 35.1217 97 33H89V41Z" fill="#232323"/>
<path d="M117 33C118.061 33 119.078 33.4214 119.828 34.1716C120.579 34.9217 121 35.9391 121 37C121 38.0609 120.579 39.0783 119.828 39.8284C119.078 40.5786 118.061 41 117 41C115.939 41 114.922 40.5786 114.172 39.8284C113.421 39.0783 113 38.0609 113 37C113 35.9391 113.421 34.9217 114.172 34.1716C114.922 33.4214 115.939 33 117 33Z" fill="#232323"/>
<path d="M145 33H153V41H145V33Z" fill="#232323"/>
<path d="M161 33C161 35.1217 161.843 37.1566 163.343 38.6569C164.843 40.1571 166.878 41 169 41V33H161Z" fill="#232323"/>
<path d="M169 33H177V41H169V33Z" fill="#232323"/>
<path d="M177 41C179.122 41 181.157 40.1571 182.657 38.6569C184.157 37.1566 185 35.1217 185 33H177V41Z" fill="#232323"/>
<path d="M193 33H201V41H193V33Z" fill="#232323"/>
<path d="M1 41H9V49H1V41Z" fill="#232323"/>
<path d="M49 41H57V49H49V41Z" fill="#232323"/>
<path d="M65 41H73V49H65V41Z" fill="#232323"/>
<path d="M109 41C110.061 41 111.078 41.4214 111.828 42.1716C112.579 42.9217 113 43.9391 113 45C113 46.0609 112.579 47.0783 111.828 47.8284C111.078 48.5786 110.061 49 109 49C107.939 49 106.922 48.5786 106.172 47.8284C105.421 47.0783 105 46.0609 105 45C105 43.9391 105.421 42.9217 106.172 42.1716C106.922 41.4214 107.939 41 109 41Z" fill="#232323"/>
<path d="M145 41H153V49H145V41Z" fill="#232323"/>
<path d="M193 41H201V49H193V41Z" fill="#232323"/>
<path d="M1 49C1 51.1217 1.84285 53.1566 3.34315 54.6569C4.84344 56.1571 6.87827 57 9 57V49H1Z" fill="#232323"/>
<path d="M9 49H17V57H9V49Z" fill="#232323"/>
<path d="M17 49H25V57H17V49Z" fill="#232323"/>
<path d="M25 49H33V57H25V49Z" fill="#232323"/>
<path d="M33 49H41V57H33V49Z" fill="#232323"/>
<path d="M41 49H49V57H41V49Z" fill="#232323"/>
<path d="M49 57C51.1217 57 53.1566 56.1571 54.6569 54.6569C56.1571 53.1566 57 51.1217 57 49H49V57Z" fill="#232323"/>
<path d="M65 53C65 54.0609 65.4214 55.0783 66.1716 55.8284C66.9217 56.5786 67.9391 57 69 57C70.0609 57 71.0783 56.5786 71.8284 55.8284C72.5786 55.0783 73 54.0609 73 53V49H65V53Z" fill="#232323"/>
<path d="M85 49C86.0609 49 87.0783 49.4214 87.8284 50.1716C88.5786 50.9217 89 51.9391 89 53C89 54.0609 88.5786 55.0783 87.8284 55.8284C87.0783 56.5786 86.0609 57 85 57C83.9391 57 82.9217 56.5786 82.1716 55.8284C81.4214 55.0783 81 54.0609 81 53C81 51.9391 81.4214 50.9217 82.1716 50.1716C82.9217 49.4214 83.9391 49 85 49Z" fill="#232323"/>
<path d="M101 49C102.061 49 103.078 49.4214 103.828 50.1716C104.579 50.9217 105 51.9391 105 53C105 54.0609 104.579 55.0783 103.828 55.8284C103.078 56.5786 102.061 57 101 57C99.9391 57 98.9217 56.5786 98.1716 55.8284C97.4214 55.0783 97 54.0609 97 53C97 51.9391 97.4214 50.9217 98.1716 50.1716C98.9217 49.4214 99.9391 49 101 49Z" fill="#232323"/>
<path d="M113 53C113 51.9391 113.421 50.9217 114.172 50.1716C114.922 49.4214 115.939 49 117 49C118.061 49 119.078 49.4214 119.828 50.1716C120.579 50.9217 121 51.9391 121 53V57H113V53Z" fill="#232323"/>
<path d="M133 49C134.061 49 135.078 49.4214 135.828 50.1716C136.579 50.9217 137 51.9391 137 53C137 54.0609 136.579 55.0783 135.828 55.8284C135.078 56.5786 134.061 57 133 57C131.939 57 130.922 56.5786 130.172 55.8284C129.421 55.0783 129 54.0609 129 53C129 51.9391 129.421 50.9217 130.172 50.1716C130.922 49.4214 131.939 49 133 49Z" fill="#232323"/>
<path d="M145 49C145 51.1217 145.843 53.1566 147.343 54.6569C148.843 56.1571 150.878 57 153 57V49H145Z" fill="#232323"/>
<path d="M153 49H161V57H153V49Z" fill="#232323"/>
<path d="M161 49H169V57H161V49Z" fill="#232323"/>
<path d="M169 49H177V57H169V49Z" fill="#232323"/>
<path d="M177 49H185V57H177V49Z" fill="#232323"/>
<path d="M185 49H193V57H185V49Z" fill="#232323"/>
<path d="M193 57C195.122 57 197.157 56.1571 198.657 54.6569C200.157 53.1566 201 51.1217 201 49H193V57Z" fill="#232323"/>
<path d="M77 57C78.0609 57 79.0783 57.4214 79.8284 58.1716C80.5786 58.9217 81 59.9391 81 61C81 62.0609 80.5786 63.0783 79.8284 63.8284C79.0783 64.5786 78.0609 65 77 65C75.9391 65 74.9217 64.5786 74.1716 63.8284C73.4214 63.0783 73 62.0609 73 61C73 59.9391 73.4214 58.9217 74.1716 58.1716C74.9217 57.4214 75.9391 57 77 57Z" fill="#232323"/>
<path d="M113 61C113 62.0609 113.421 63.0783 114.172 63.8284C114.922 64.5786 115.939 65 117 65C118.061 65 119.078 64.5786 119.828 63.8284C120.579 63.0783 121 62.0609 121 61V57H113V61Z" fill="#232323"/>
<path d="M21 65C22.0609 65 23.0783 65.4214 23.8284 66.1716C24.5786 66.9217 25 67.9391 25 69C25 70.0609 24.5786 71.0783 23.8284 71.8284C23.0783 72.5786 22.0609 73 21 73C19.9391 73 18.9217 72.5786 18.1716 71.8284C17.4214 71.0783 17 70.0609 17 69C17 67.9391 17.4214 66.9217 18.1716 66.1716C18.9217 65.4214 19.9391 65 21 65Z" fill="#232323"/>
<path d="M45 65C43.9391 65 42.9217 65.4214 42.1716 66.1716C41.4214 66.9217 41 67.9391 41 69C41 70.0609 41.4214 71.0783 42.1716 71.8284C42.9217 72.5786 43.9391 73 45 73H49V65H45Z" fill="#232323"/>
<path d="M49 65H57V73H49V65Z" fill="#232323"/>
<path d="M57 65H65V73H57V65Z" fill="#232323"/>
<path d="M69 65C70.0609 65 71.0783 65.4214 71.8284 66.1716C72.5786 66.9217 73 67.9391 73 69C73 70.0609 72.5786 71.0783 71.8284 71.8284C71.0783 72.5786 70.0609 73 69 73H65V65H69Z" fill="#232323"/>
<path d="M81 69C81 67.9391 81.4214 66.9217 82.1716 66.1716C82.9217 65.4214 83.9391 65 85 65C86.0609 65 87.0783 65.4214 87.8284 66.1716C88.5786 66.9217 89 67.9391 89 69V73H81V69Z" fill="#232323"/>
<path d="M97 73C97 70.8783 97.8429 68.8434 99.3431 67.3431C100.843 65.8429 102.878 65 105 65V73H97Z" fill="#232323"/>
<path d="M109 65C110.061 65 111.078 65.4214 111.828 66.1716C112.579 66.9217 113 67.9391 113 69C113 70.0609 112.579 71.0783 111.828 71.8284C111.078 72.5786 110.061 73 109 73H105V65H109Z" fill="#232323"/>
<path d="M125 65C123.939 65 122.922 65.4214 122.172 66.1716C121.421 66.9217 121 67.9391 121 69C121 70.0609 121.421 71.0783 122.172 71.8284C122.922 72.5786 123.939 73 125 73H129V65H125Z" fill="#232323"/>
<path d="M129 65H137V73H129V65Z" fill="#232323"/>
<path d="M141 65C142.061 65 143.078 65.4214 143.828 66.1716C144.579 66.9217 145 67.9391 145 69C145 70.0609 144.579 71.0783 143.828 71.8284C143.078 72.5786 142.061 73 141 73H137V65H141Z" fill="#232323"/>
<path d="M157 65C155.939 65 154.922 65.4214 154.172 66.1716C153.421 66.9217 153 67.9391 153 69C153 70.0609 153.421 71.0783 154.172 71.8284C154.922 72.5786 155.939 73 157 73H161V65H157Z" fill="#232323"/>
<path d="M161 65H169V73H161V65Z" fill="#232323"/>
<path d="M169 65H177V73H169V65Z" fill="#232323"/>
<path d="M177 65H185V73H177V65Z" fill="#232323"/>
<path d="M185 65C187.122 65 189.157 65.8429 190.657 67.3431C192.157 68.8434 193 70.8783 193 73H185V65Z" fill="#232323"/>
<path d="M13 73C14.0609 73 15.0783 73.4214 15.8284 74.1716C16.5786 74.9217 17 75.9391 17 77C17 78.0609 16.5786 79.0783 15.8284 79.8284C15.0783 80.5786 14.0609 81 13 81C11.9391 81 10.9217 80.5786 10.1716 79.8284C9.42143 79.0783 9 78.0609 9 77C9 75.9391 9.42143 74.9217 10.1716 74.1716C10.9217 73.4214 11.9391 73 13 73Z" fill="#232323"/>
<path d="M73 81C73 78.8783 73.8429 76.8434 75.3431 75.3431C76.8434 73.8429 78.8783 73 81 73V81H73Z" fill="#232323"/>
<path d="M81 73H89V81H81V73Z" fill="#232323"/>
<path d="M89 73H97V81H89V73Z" fill="#232323"/>
<path d="M97 81C99.1217 81 101.157 80.1571 102.657 78.6569C104.157 77.1566 105 75.1217 105 73H97V81Z" fill="#232323"/>
<path d="M117 73C118.061 73 119.078 73.4214 119.828 74.1716C120.579 74.9217 121 75.9391 121 77C121 78.0609 120.579 79.0783 119.828 79.8284C119.078 80.5786 118.061 81 117 81C115.939 81 114.922 80.5786 114.172 79.8284C113.421 79.0783 113 78.0609 113 77C113 75.9391 113.421 74.9217 114.172 74.1716C114.922 73.4214 115.939 73 117 73Z" fill="#232323"/>
<path d="M149 73C150.061 73 151.078 73.4214 151.828 74.1716C152.579 74.9217 153 75.9391 153 77C153 78.0609 152.579 79.0783 151.828 79.8284C151.078 80.5786 150.061 81 149 81C147.939 81 146.922 80.5786 146.172 79.8284C145.421 79.0783 145 78.0609 145 77C145 75.9391 145.421 74.9217 146.172 74.1716C146.922 73.4214 147.939 73 149 73Z" fill="#232323"/>
<path d="M169 77C169 78.0609 169.421 79.0783 170.172 79.8284C170.922 80.5786 171.939 81 173 81C174.061 81 175.078 80.5786 175.828 79.8284C176.579 79.0783 177 78.0609 177 77V73H169V77Z" fill="#232323"/>
<path d="M185 73C185 75.1217 185.843 77.1566 187.343 78.6569C188.843 80.1571 190.878 81 193 81V73H185Z" fill="#232323"/>
<path d="M193 73C195.122 73 197.157 73.8429 198.657 75.3431C200.157 76.8434 201 78.8783 201 81H193V73Z" fill="#232323"/>
<path d="M5 81C6.06087 81 7.07828 81.4214 7.82843 82.1716C8.57857 82.9217 9 83.9391 9 85C9 86.0609 8.57857 87.0783 7.82843 87.8284C7.07828 88.5786 6.06087 89 5 89C3.93913 89 2.92172 88.5786 2.17157 87.8284C1.42143 87.0783 1 86.0609 1 85C1 83.9391 1.42143 82.9217 2.17157 82.1716C2.92172 81.4214 3.93913 81 5 81Z" fill="#232323"/>
<path d="M25 85C25 83.9391 25.4214 82.9217 26.1716 82.1716C26.9217 81.4214 27.9391 81 29 81C30.0609 81 31.0783 81.4214 31.8284 82.1716C32.5786 82.9217 33 83.9391 33 85V89H25V85Z" fill="#232323"/>
<path d="M53 81C51.9391 81 50.9217 81.4214 50.1716 82.1716C49.4214 82.9217 49 83.9391 49 85C49 86.0609 49.4214 87.0783 50.1716 87.8284C50.9217 88.5786 51.9391 89 53 89H57V81H53Z" fill="#232323"/>
<path d="M57 81H65V89H57V81Z" fill="#232323"/>
<path d="M65 81H73V89H65V81Z" fill="#232323"/>
<path d="M73 81H81V89H73V81Z" fill="#232323"/>
<path d="M89 85C89 86.0609 89.4214 87.0783 90.1716 87.8284C90.9217 88.5786 91.9391 89 93 89C94.0609 89 95.0783 88.5786 95.8284 87.8284C96.5786 87.0783 97 86.0609 97 85V81H89V85Z" fill="#232323"/>
<path d="M165 81C166.061 81 167.078 81.4214 167.828 82.1716C168.579 82.9217 169 83.9391 169 85C169 86.0609 168.579 87.0783 167.828 87.8284C167.078 88.5786 166.061 89 165 89C163.939 89 162.922 88.5786 162.172 87.8284C161.421 87.0783 161 86.0609 161 85C161 83.9391 161.421 82.9217 162.172 82.1716C162.922 81.4214 163.939 81 165 81Z" fill="#232323"/>
<path d="M193 81H201V89H193V81Z" fill="#232323"/>
<path d="M13 89C11.9391 89 10.9217 89.4214 10.1716 90.1716C9.42143 90.9217 9 91.9391 9 93C9 94.0609 9.42143 95.0783 10.1716 95.8284C10.9217 96.5786 11.9391 97 13 97H17V89H13Z" fill="#232323"/>
<path d="M17 89H25V97H17V89Z" fill="#232323"/>
<path d="M25 89H33V97H25V89Z" fill="#232323"/>
<path d="M45 89C46.0609 89 47.0783 89.4214 47.8284 90.1716C48.5786 90.9217 49 91.9391 49 93C49 94.0609 48.5786 95.0783 47.8284 95.8284C47.0783 96.5786 46.0609 97 45 97C43.9391 97 42.9217 96.5786 42.1716 95.8284C41.4214 95.0783 41 94.0609 41 93C41 91.9391 41.4214 90.9217 42.1716 90.1716C42.9217 89.4214 43.9391 89 45 89Z" fill="#232323"/>
<path d="M65 89H73V97H65V89Z" fill="#232323"/>
<path d="M73 89H81V97H73V89Z" fill="#232323"/>
<path d="M85 89C86.0609 89 87.0783 89.4214 87.8284 90.1716C88.5786 90.9217 89 91.9391 89 93C89 94.0609 88.5786 95.0783 87.8284 95.8284C87.0783 96.5786 86.0609 97 85 97H81V89H85Z" fill="#232323"/>
<path d="M105 93C105 91.9391 105.421 90.9217 106.172 90.1716C106.922 89.4214 107.939 89 109 89C110.061 89 111.078 89.4214 111.828 90.1716C112.579 90.9217 113 91.9391 113 93V97H105V93Z" fill="#232323"/>
<path d="M125 89C123.939 89 122.922 89.4214 122.172 90.1716C121.421 90.9217 121 91.9391 121 93C121 94.0609 121.421 95.0783 122.172 95.8284C122.922 96.5786 123.939 97 125 97H129V89H125Z" fill="#232323"/>
<path d="M129 89C131.122 89 133.157 89.8429 134.657 91.3431C136.157 92.8434 137 94.8783 137 97H129V89Z" fill="#232323"/>
<path d="M145 93C145 91.9391 145.421 90.9217 146.172 90.1716C146.922 89.4214 147.939 89 149 89C150.061 89 151.078 89.4214 151.828 90.1716C152.579 90.9217 153 91.9391 153 93V97H145V93Z" fill="#232323"/>
<path d="M189 89C187.939 89 186.922 89.4214 186.172 90.1716C185.421 90.9217 185 91.9391 185 93C185 94.0609 185.421 95.0783 186.172 95.8284C186.922 96.5786 187.939 97 189 97H193V89H189Z" fill="#232323"/>
<path d="M193 89H201V97H193V89Z" fill="#232323"/>
<path d="M25 101C25 102.061 25.4214 103.078 26.1716 103.828C26.9217 104.579 27.9391 105 29 105C30.0609 105 31.0783 104.579 31.8284 103.828C32.5786 103.078 33 102.061 33 101V97H25V101Z" fill="#232323"/>
<path d="M53 97C54.0609 97 55.0783 97.4214 55.8284 98.1716C56.5786 98.9217 57 99.9391 57 101C57 102.061 56.5786 103.078 55.8284 103.828C55.0783 104.579 54.0609 105 53 105C51.9391 105 50.9217 104.579 50.1716 103.828C49.4214 103.078 49 102.061 49 101C49 99.9391 49.4214 98.9217 50.1716 98.1716C50.9217 97.4214 51.9391 97 53 97Z" fill="#232323"/>
<path d="M65 97H73V105H65V97Z" fill="#232323"/>
<path d="M73 97H81V105H73V97Z" fill="#232323"/>
<path d="M105 97H113V105H105V97Z" fill="#232323"/>
<path d="M129 97H137V105H129V97Z" fill="#232323"/>
<path d="M145 97H153V105H145V97Z" fill="#232323"/>
<path d="M153 97C155.122 97 157.157 97.8429 158.657 99.3431C160.157 100.843 161 102.878 161 105H153V97Z" fill="#232323"/>
<path d="M169 101C169 99.9391 169.421 98.9217 170.172 98.1716C170.922 97.4214 171.939 97 173 97C174.061 97 175.078 97.4214 175.828 98.1716C176.579 98.9217 177 99.9391 177 101V105H169V101Z" fill="#232323"/>
<path d="M193 97H201V105H193V97Z" fill="#232323"/>
<path d="M21 105C22.0609 105 23.0783 105.421 23.8284 106.172C24.5786 106.922 25 107.939 25 109C25 110.061 24.5786 111.078 23.8284 111.828C23.0783 112.579 22.0609 113 21 113C19.9391 113 18.9217 112.579 18.1716 111.828C17.4214 111.078 17 110.061 17 109C17 107.939 17.4214 106.922 18.1716 106.172C18.9217 105.421 19.9391 105 21 105Z" fill="#232323"/>
<path d="M65 105C65 107.122 65.8429 109.157 67.3431 110.657C68.8434 112.157 70.8783 113 73 113V105H65Z" fill="#232323"/>
<path d="M73 105H81V113H73V105Z" fill="#232323"/>
<path d="M85 105C86.0609 105 87.0783 105.421 87.8284 106.172C88.5786 106.922 89 107.939 89 109C89 110.061 88.5786 111.078 87.8284 111.828C87.0783 112.579 86.0609 113 85 113H81V105H85Z" fill="#232323"/>
<path d="M97 113C97 110.878 97.8429 108.843 99.3431 107.343C100.843 105.843 102.878 105 105 105V113H97Z" fill="#232323"/>
<path d="M105 105H113V113H105V105Z" fill="#232323"/>
<path d="M117 105C118.061 105 119.078 105.421 119.828 106.172C120.579 106.922 121 107.939 121 109C121 110.061 120.579 111.078 119.828 111.828C119.078 112.579 118.061 113 117 113H113V105H117Z" fill="#232323"/>
<path d="M129 105H137V113H129V105Z" fill="#232323"/>
<path d="M145 105H153V113H145V105Z" fill="#232323"/>
<path d="M153 113C155.122 113 157.157 112.157 158.657 110.657C160.157 109.157 161 107.122 161 105H153V113Z" fill="#232323"/>
<path d="M169 105H177V113H169V105Z" fill="#232323"/>
<path d="M177 105H185V113H177V105Z" fill="#232323"/>
<path d="M185 105H193V113H185V105Z" fill="#232323"/>
<path d="M193 105H201V113H193V105Z" fill="#232323"/>
<path d="M5 113C3.93913 113 2.92172 113.421 2.17157 114.172C1.42143 114.922 1 115.939 1 117C1 118.061 1.42143 119.078 2.17157 119.828C2.92172 120.579 3.93913 121 5 121H9V113H5Z" fill="#232323"/>
<path d="M13 113C14.0609 113 15.0783 113.421 15.8284 114.172C16.5786 114.922 17 115.939 17 117C17 118.061 16.5786 119.078 15.8284 119.828C15.0783 120.579 14.0609 121 13 121H9V113H13Z" fill="#232323"/>
<path d="M29 113C30.0609 113 31.0783 113.421 31.8284 114.172C32.5786 114.922 33 115.939 33 117C33 118.061 32.5786 119.078 31.8284 119.828C31.0783 120.579 30.0609 121 29 121C27.9391 121 26.9217 120.579 26.1716 119.828C25.4214 119.078 25 118.061 25 117C25 115.939 25.4214 114.922 26.1716 114.172C26.9217 113.421 27.9391 113 29 113Z" fill="#232323"/>
<path d="M41 121C41 118.878 41.8429 116.843 43.3431 115.343C44.8434 113.843 46.8783 113 49 113V121H41Z" fill="#232323"/>
<path d="M49 113H57V121H49V113Z" fill="#232323"/>
<path d="M61 113C62.0609 113 63.0783 113.421 63.8284 114.172C64.5786 114.922 65 115.939 65 117C65 118.061 64.5786 119.078 63.8284 119.828C63.0783 120.579 62.0609 121 61 121H57V113H61Z" fill="#232323"/>
<path d="M73 113H81V121H73V113Z" fill="#232323"/>
<path d="M93 113C91.9391 113 90.9217 113.421 90.1716 114.172C89.4214 114.922 89 115.939 89 117C89 118.061 89.4214 119.078 90.1716 119.828C90.9217 120.579 91.9391 121 93 121H97V113H93Z" fill="#232323"/>
<path d="M97 113H105V121H97V113Z" fill="#232323"/>
<path d="M105 121C107.122 121 109.157 120.157 110.657 118.657C112.157 117.157 113 115.122 113 113H105V121Z" fill="#232323"/>
<path d="M129 113H137V121H129V113Z" fill="#232323"/>
<path d="M137 113H145V121H137V113Z" fill="#232323"/>
<path d="M145 113H153V121H145V113Z" fill="#232323"/>
<path d="M161 121C161 118.878 161.843 116.843 163.343 115.343C164.843 113.843 166.878 113 169 113V121H161Z" fill="#232323"/>
<path d="M169 113H177V121H169V113Z" fill="#232323"/>
<path d="M193 113H201V121H193V113Z" fill="#232323"/>
<path d="M37 121C35.9391 121 34.9217 121.421 34.1716 122.172C33.4214 122.922 33 123.939 33 125C33 126.061 33.4214 127.078 34.1716 127.828C34.9217 128.579 35.9391 129 37 129H41V121H37Z" fill="#232323"/>
<path d="M41 121H49V129H41V121Z" fill="#232323"/>
<path d="M73 121H81V129H73V121Z" fill="#232323"/>
<path d="M81 121C83.1217 121 85.1566 121.843 86.6569 123.343C88.1572 124.843 89 126.878 89 129H81V121Z" fill="#232323"/>
<path d="M97 125C97 126.061 97.4214 127.078 98.1716 127.828C98.9217 128.579 99.9391 129 101 129C102.061 129 103.078 128.579 103.828 127.828C104.579 127.078 105 126.061 105 125V121H97V125Z" fill="#232323"/>
<path d="M117 121C115.939 121 114.922 121.421 114.172 122.172C113.421 122.922 113 123.939 113 125C113 126.061 113.421 127.078 114.172 127.828C114.922 128.579 115.939 129 117 129H121V121H117Z" fill="#232323"/>
<path d="M121 121H129V129H121V121Z" fill="#232323"/>
<path d="M129 121H137V129H129V121Z" fill="#232323"/>
<path d="M137 121H145V129H137V121Z" fill="#232323"/>
<path d="M145 121H153V129H145V121Z" fill="#232323"/>
<path d="M153 121H161V129H153V121Z" fill="#232323"/>
<path d="M161 121H169V129H161V121Z" fill="#232323"/>
<path d="M169 121H177V129H169V121Z" fill="#232323"/>
<path d="M189 121C187.939 121 186.922 121.421 186.172 122.172C185.421 122.922 185 123.939 185 125C185 126.061 185.421 127.078 186.172 127.828C186.922 128.579 187.939 129 189 129H193V121H189Z" fill="#232323"/>
<path d="M193 121H201V129H193V121Z" fill="#232323"/>
<path d="M5 129C3.93913 129 2.92172 129.421 2.17157 130.172C1.42143 130.922 1 131.939 1 133C1 134.061 1.42143 135.078 2.17157 135.828C2.92172 136.579 3.93913 137 5 137H9V129H5Z" fill="#232323"/>
<path d="M9 129H17V137H9V129Z" fill="#232323"/>
<path d="M21 129C22.0609 129 23.0783 129.421 23.8284 130.172C24.5786 130.922 25 131.939 25 133C25 134.061 24.5786 135.078 23.8284 135.828C23.0783 136.579 22.0609 137 21 137H17V129H21Z" fill="#232323"/>
<path d="M41 129C41 131.122 41.8429 133.157 43.3431 134.657C44.8434 136.157 46.8783 137 49 137V129H41Z" fill="#232323"/>
<path d="M49 129H57V137H49V129Z" fill="#232323"/>
<path d="M57 129H65V137H57V129Z" fill="#232323"/>
<path d="M65 129H73V137H65V129Z" fill="#232323"/>
<path d="M73 129H81V137H73V129Z" fill="#232323"/>
<path d="M81 129H89V137H81V129Z" fill="#232323"/>
<path d="M93 129C94.0609 129 95.0783 129.421 95.8284 130.172C96.5786 130.922 97 131.939 97 133C97 134.061 96.5786 135.078 95.8284 135.828C95.0783 136.579 94.0609 137 93 137H89V129H93Z" fill="#232323"/>
<path d="M129 129H137V137H129V129Z" fill="#232323"/>
<path d="M137 129H145V137H137V129Z" fill="#232323"/>
<path d="M145 129H153V137H145V129Z" fill="#232323"/>
<path d="M153 129H161V137H153V129Z" fill="#232323"/>
<path d="M161 129H169V137H161V129Z" fill="#232323"/>
<path d="M169 129H177V137H169V129Z" fill="#232323"/>
<path d="M193 129H201V137H193V129Z" fill="#232323"/>
<path d="M65 137H73V145H65V137Z" fill="#232323"/>
<path d="M73 137H81V145H73V137Z" fill="#232323"/>
<path d="M129 137H137V145H129V137Z" fill="#232323"/>
<path d="M161 137H169V145H161V137Z" fill="#232323"/>
<path d="M169 137H177V145H169V137Z" fill="#232323"/>
<path d="M189 137C187.939 137 186.922 137.421 186.172 138.172C185.421 138.922 185 139.939 185 141C185 142.061 185.421 143.078 186.172 143.828C186.922 144.579 187.939 145 189 145H193V137H189Z" fill="#232323"/>
<path d="M193 137H201V145H193V137Z" fill="#232323"/>
<path d="M1 153C1 150.878 1.84285 148.843 3.34315 147.343C4.84344 145.843 6.87827 145 9 145V153H1Z" fill="#232323"/>
<path d="M9 145H17V153H9V145Z" fill="#232323"/>
<path d="M17 145H25V153H17V145Z" fill="#232323"/>
<path d="M25 145H33V153H25V145Z" fill="#232323"/>
<path d="M33 145H41V153H33V145Z" fill="#232323"/>
<path d="M41 145H49V153H41V145Z" fill="#232323"/>
<path d="M49 145C51.1217 145 53.1566 145.843 54.6569 147.343C56.1571 148.843 57 150.878 57 153H49V145Z" fill="#232323"/>
<path d="M65 145H73V153H65V145Z" fill="#232323"/>
<path d="M73 153C75.1217 153 77.1566 152.157 78.6569 150.657C80.1571 149.157 81 147.122 81 145H73V153Z" fill="#232323"/>
<path d="M93 145C94.0609 145 95.0783 145.421 95.8284 146.172C96.5786 146.922 97 147.939 97 149C97 150.061 96.5786 151.078 95.8284 151.828C95.0783 152.579 94.0609 153 93 153C91.9391 153 90.9217 152.579 90.1716 151.828C89.4214 151.078 89 150.061 89 149C89 147.939 89.4214 146.922 90.1716 146.172C90.9217 145.421 91.9391 145 93 145Z" fill="#232323"/>
<path d="M113 153C113 150.878 113.843 148.843 115.343 147.343C116.843 145.843 118.878 145 121 145V153H113Z" fill="#232323"/>
<path d="M121 145H129V153H121V145Z" fill="#232323"/>
<path d="M129 145H137V153H129V145Z" fill="#232323"/>
<path d="M149 145C150.061 145 151.078 145.421 151.828 146.172C152.579 146.922 153 147.939 153 149C153 150.061 152.579 151.078 151.828 151.828C151.078 152.579 150.061 153 149 153C147.939 153 146.922 152.579 146.172 151.828C145.421 151.078 145 150.061 145 149C145 147.939 145.421 146.922 146.172 146.172C146.922 145.421 147.939 145 149 145Z" fill="#232323"/>
<path d="M161 145H169V153H161V145Z" fill="#232323"/>
<path d="M169 145H177V153H169V145Z" fill="#232323"/>
<path d="M193 149C193 150.061 193.421 151.078 194.172 151.828C194.922 152.579 195.939 153 197 153C198.061 153 199.078 152.579 199.828 151.828C200.579 151.078 201 150.061 201 149V145H193V149Z" fill="#232323"/>
<path d="M1 153H9V161H1V153Z" fill="#232323"/>
<path d="M49 153H57V161H49V153Z" fill="#232323"/>
<path d="M65 157C65 158.061 65.4214 159.078 66.1716 159.828C66.9217 160.579 67.9391 161 69 161C70.0609 161 71.0783 160.579 71.8284 159.828C72.5786 159.078 73 158.061 73 157V153H65V157Z" fill="#232323"/>
<path d="M101 153C99.9391 153 98.9217 153.421 98.1716 154.172C97.4214 154.922 97 155.939 97 157C97 158.061 97.4214 159.078 98.1716 159.828C98.9217 160.579 99.9391 161 101 161H105V153H101Z" fill="#232323"/>
<path d="M105 153H113V161H105V153Z" fill="#232323"/>
<path d="M113 153H121V161H113V153Z" fill="#232323"/>
<path d="M129 153H137V161H129V153Z" fill="#232323"/>
<path d="M161 153H169V161H161V153Z" fill="#232323"/>
<path d="M169 153H177V161H169V153Z" fill="#232323"/>
<path d="M189 153C190.061 153 191.078 153.421 191.828 154.172C192.579 154.922 193 155.939 193 157C193 158.061 192.579 159.078 191.828 159.828C191.078 160.579 190.061 161 189 161C187.939 161 186.922 160.579 186.172 159.828C185.421 159.078 185 158.061 185 157C185 155.939 185.421 154.922 186.172 154.172C186.922 153.421 187.939 153 189 153Z" fill="#232323"/>
<path d="M1 161H9V169H1V161Z" fill="#232323"/>
<path d="M17 169C17 166.878 17.8429 164.843 19.3431 163.343C20.8434 161.843 22.8783 161 25 161V169H17Z" fill="#232323"/>
<path d="M25 161H33V169H25V161Z" fill="#232323"/>
<path d="M33 161C35.1217 161 37.1566 161.843 38.6569 163.343C40.1571 164.843 41 166.878 41 169H33V161Z" fill="#232323"/>
<path d="M49 161H57V169H49V161Z" fill="#232323"/>
<path d="M81 169C81 166.878 81.8429 164.843 83.3431 163.343C84.8434 161.843 86.8783 161 89 161V169H81Z" fill="#232323"/>
<path d="M93 161C94.0609 161 95.0783 161.421 95.8284 162.172C96.5786 162.922 97 163.939 97 165C97 166.061 96.5786 167.078 95.8284 167.828C95.0783 168.579 94.0609 169 93 169H89V161H93Z" fill="#232323"/>
<path d="M113 161C113 163.122 113.843 165.157 115.343 166.657C116.843 168.157 118.878 169 121 169V161H113Z" fill="#232323"/>
<path d="M121 161H129V169H121V161Z" fill="#232323"/>
<path d="M129 161H137V169H129V161Z" fill="#232323"/>
<path d="M137 161H145V169H137V161Z" fill="#232323"/>
<path d="M145 161H153V169H145V161Z" fill="#232323"/>
<path d="M153 161H161V169H153V161Z" fill="#232323"/>
<path d="M161 161H169V169H161V161Z" fill="#232323"/>
<path d="M169 169C171.122 169 173.157 168.157 174.657 166.657C176.157 165.157 177 163.122 177 161H169V169Z" fill="#232323"/>
<path d="M1 169H9V177H1V169Z" fill="#232323"/>
<path d="M17 169H25V177H17V169Z" fill="#232323"/>
<path d="M25 169H33V177H25V169Z" fill="#232323"/>
<path d="M33 169H41V177H33V169Z" fill="#232323"/>
<path d="M49 169H57V177H49V169Z" fill="#232323"/>
<path d="M73 177C73 174.878 73.8429 172.843 75.3431 171.343C76.8434 169.843 78.8783 169 81 169V177H73Z" fill="#232323"/>
<path d="M81 177C83.1217 177 85.1566 176.157 86.6569 174.657C88.1572 173.157 89 171.122 89 169H81V177Z" fill="#232323"/>
<path d="M101 169C102.061 169 103.078 169.421 103.828 170.172C104.579 170.922 105 171.939 105 173C105 174.061 104.579 175.078 103.828 175.828C103.078 176.579 102.061 177 101 177C99.9391 177 98.9217 176.579 98.1716 175.828C97.4214 175.078 97 174.061 97 173C97 171.939 97.4214 170.922 98.1716 170.172C98.9217 169.421 99.9391 169 101 169Z" fill="#232323"/>
<path d="M121 173C121 174.061 121.421 175.078 122.172 175.828C122.922 176.579 123.939 177 125 177C126.061 177 127.078 176.579 127.828 175.828C128.579 175.078 129 174.061 129 173V169H121V173Z" fill="#232323"/>
<path d="M137 169H145V177H137V169Z" fill="#232323"/>
<path d="M161 169H169V177H161V169Z" fill="#232323"/>
<path d="M177 173C177 171.939 177.421 170.922 178.172 170.172C178.922 169.421 179.939 169 181 169C182.061 169 183.078 169.421 183.828 170.172C184.579 170.922 185 171.939 185 173V177H177V173Z" fill="#232323"/>
<path d="M1 177H9V185H1V177Z" fill="#232323"/>
<path d="M17 177C17 179.122 17.8429 181.157 19.3431 182.657C20.8434 184.157 22.8783 185 25 185V177H17Z" fill="#232323"/>
<path d="M25 177H33V185H25V177Z" fill="#232323"/>
<path d="M33 185C35.1217 185 37.1566 184.157 38.6569 182.657C40.1571 181.157 41 179.122 41 177H33V185Z" fill="#232323"/>
<path d="M49 177H57V185H49V177Z" fill="#232323"/>
<path d="M69 177C67.9391 177 66.9217 177.421 66.1716 178.172C65.4214 178.922 65 179.939 65 181C65 182.061 65.4214 183.078 66.1716 183.828C66.9217 184.579 67.9391 185 69 185H73V177H69Z" fill="#232323"/>
<path d="M73 177H81V185H73V177Z" fill="#232323"/>
<path d="M109 177C107.939 177 106.922 177.421 106.172 178.172C105.421 178.922 105 179.939 105 181C105 182.061 105.421 183.078 106.172 183.828C106.922 184.579 107.939 185 109 185H113V177H109Z" fill="#232323"/>
<path d="M113 177C115.122 177 117.157 177.843 118.657 179.343C120.157 180.843 121 182.878 121 185H113V177Z" fill="#232323"/>
<path d="M137 177H145V185H137V177Z" fill="#232323"/>
<path d="M161 177H169V185H161V177Z" fill="#232323"/>
<path d="M177 177C177 179.122 177.843 181.157 179.343 182.657C180.843 184.157 182.878 185 185 185V177H177Z" fill="#232323"/>
<path d="M185 177H193V185H185V177Z" fill="#232323"/>
<path d="M197 177C198.061 177 199.078 177.421 199.828 178.172C200.579 178.922 201 179.939 201 181C201 182.061 200.579 183.078 199.828 183.828C199.078 184.579 198.061 185 197 185H193V177H197Z" fill="#232323"/>
<path d="M1 185H9V193H1V185Z" fill="#232323"/>
<path d="M49 185H57V193H49V185Z" fill="#232323"/>
<path d="M73 189C73 190.061 73.4214 191.078 74.1716 191.828C74.9217 192.579 75.9391 193 77 193C78.0609 193 79.0783 192.579 79.8284 191.828C80.5786 191.078 81 190.061 81 189V185H73V189Z" fill="#232323"/>
<path d="M101 185C102.061 185 103.078 185.421 103.828 186.172C104.579 186.922 105 187.939 105 189C105 190.061 104.579 191.078 103.828 191.828C103.078 192.579 102.061 193 101 193C99.9391 193 98.9217 192.579 98.1716 191.828C97.4214 191.078 97 190.061 97 189C97 187.939 97.4214 186.922 98.1716 186.172C98.9217 185.421 99.9391 185 101 185Z" fill="#232323"/>
<path d="M113 185H121V193H113V185Z" fill="#232323"/>
<path d="M129 193C129 190.878 129.843 188.843 131.343 187.343C132.843 185.843 134.878 185 137 185V193H129Z" fill="#232323"/>
<path d="M137 185H145V193H137V185Z" fill="#232323"/>
<path d="M145 185H153V193H145V185Z" fill="#232323"/>
<path d="M153 185H161V193H153V185Z" fill="#232323"/>
<path d="M161 185H169V193H161V185Z" fill="#232323"/>
<path d="M169 185C171.122 185 173.157 185.843 174.657 187.343C176.157 188.843 177 190.878 177 193H169V185Z" fill="#232323"/>
<path d="M1 193C1 195.122 1.84285 197.157 3.34315 198.657C4.84344 200.157 6.87827 201 9 201V193H1Z" fill="#232323"/>
<path d="M9 193H17V201H9V193Z" fill="#232323"/>
<path d="M17 193H25V201H17V193Z" fill="#232323"/>
<path d="M25 193H33V201H25V193Z" fill="#232323"/>
<path d="M33 193H41V201H33V193Z" fill="#232323"/>
<path d="M41 193H49V201H41V193Z" fill="#232323"/>
<path d="M49 201C51.1217 201 53.1566 200.157 54.6569 198.657C56.1571 197.157 57 195.122 57 193H49V201Z" fill="#232323"/>
<path d="M85 193C86.0609 193 87.0783 193.421 87.8284 194.172C88.5786 194.922 89 195.939 89 197C89 198.061 88.5786 199.078 87.8284 199.828C87.0783 200.579 86.0609 201 85 201C83.9391 201 82.9217 200.579 82.1716 199.828C81.4214 199.078 81 198.061 81 197C81 195.939 81.4214 194.922 82.1716 194.172C82.9217 193.421 83.9391 193 85 193Z" fill="#232323"/>
<path d="M109 193C107.939 193 106.922 193.421 106.172 194.172C105.421 194.922 105 195.939 105 197C105 198.061 105.421 199.078 106.172 199.828C106.922 200.579 107.939 201 109 201H113V193H109Z" fill="#232323"/>
<path d="M113 201C115.122 201 117.157 200.157 118.657 198.657C120.157 197.157 121 195.122 121 193H113V201Z" fill="#232323"/>
<path d="M129 197C129 198.061 129.421 199.078 130.172 199.828C130.922 200.579 131.939 201 133 201C134.061 201 135.078 200.579 135.828 199.828C136.579 199.078 137 198.061 137 197V193H129V197Z" fill="#232323"/>
<path d="M161 193C161 195.122 161.843 197.157 163.343 198.657C164.843 200.157 166.878 201 169 201V193H161Z" fill="#232323"/>
<path d="M169 201C171.122 201 173.157 200.157 174.657 198.657C176.157 197.157 177 195.122 177 193H169V201Z" fill="#232323"/>
<path d="M197 193C198.061 193 199.078 193.421 199.828 194.172C200.579 194.922 201 195.939 201 197C201 198.061 200.579 199.078 199.828 199.828C199.078 200.579 198.061 201 197 201C195.939 201 194.922 200.579 194.172 199.828C193.421 199.078 193 198.061 193 197C193 195.939 193.421 194.922 194.172 194.172C194.922 193.421 195.939 193 197 193Z" fill="#232323"/>
<path d="M1 9C1 6.87827 1.84285 4.84344 3.34315 3.34315C4.84344 1.84285 6.87827 1 9 1M1 9H9M1 9V17M9 1V9M9 1H17M9 9H17M9 9V17M17 1V9M17 1H25M17 9H25M25 1V9M25 1H33M25 9H33M33 1V9M33 1H41M33 9H41M41 1V9M41 1H49M41 9H49M49 1V9M49 1C51.1217 1 53.1566 1.84285 54.6569 3.34315C56.1571 4.84344 57 6.87827 57 9M49 9H57M49 9V17M57 9V17M81 9H77C75.9391 9 74.9217 8.57857 74.1716 7.82843C73.4214 7.07828 73 6.06087 73 5C73 3.93913 73.4214 2.92172 74.1716 2.17157C74.9217 1.42143 75.9391 1 77 1H81M81 9V1M81 9H85C86.0609 9 87.0783 8.57857 87.8284 7.82843C88.5786 7.07828 89 6.06087 89 5C89 3.93913 88.5786 2.92172 87.8284 2.17157C87.0783 1.42143 86.0609 1 85 1H81M145 9C145 6.87827 145.843 4.84344 147.343 3.34315C148.843 1.84285 150.878 1 153 1M145 9H153M145 9V17M153 1V9M153 1H161M153 9H161M153 9V17M161 1V9M161 1H169M161 9H169M169 1V9M169 1H177M169 9H177M177 1V9M177 1H185M177 9H185M185 1V9M185 1H193M185 9H193M193 1V9M193 1C195.122 1 197.157 1.84285 198.657 3.34315C200.157 4.84344 201 6.87827 201 9M193 9H201M193 9V17M201 9V17M9 17H1M9 17V25M1 17V25M57 17H49M57 17V25M49 17V25M73 17V13C73 11.9391 72.5786 10.9217 71.8284 10.1716C71.0783 9.42143 70.0609 9 69 9C67.9391 9 66.9217 9.42143 66.1716 10.1716C65.4214 10.9217 65 11.9391 65 13V17M73 17H65M73 17V25M65 17V25M89 17C89 14.8783 89.8429 12.8434 91.3431 11.3431C92.8434 9.84285 94.8783 9 97 9M89 17H97M89 17V25M97 9V17M97 9H105M97 17H105M97 17V25M105 9V17M105 9C107.122 9 109.157 9.84285 110.657 11.3431C112.157 12.8434 113 14.8783 113 17M105 17H113M105 17V25M113 17V25M113 17H121M153 17H145M153 17V25M145 17V25M201 17H193M201 17V25M193 17V25M9 25H1M9 25V33M1 25V33M17 25C17 22.8783 17.8429 20.8434 19.3431 19.3431C20.8434 17.8429 22.8783 17 25 17M17 25H25M17 25V33M25 17V25M25 17H33M25 25H33M25 25V33M33 17V25M33 17C35.1217 17 37.1566 17.8429 38.6569 19.3431C40.1571 20.8434 41 22.8783 41 25M33 25H41M33 25V33M41 25V33M57 25H49M57 25V33M49 25V33M73 25H65M73 25V33M73 25H77C78.0609 25 79.0783 25.4214 79.8284 26.1716C80.5786 26.9217 81 27.9391 81 29C81 30.0609 80.5786 31.0783 79.8284 31.8284C79.0783 32.5786 78.0609 33 77 33H73M65 25V33M97 25H89M97 25H105M97 25V33M89 25V33M105 25H113M113 25H121M121 17V25M121 17C123.122 17 125.157 17.8429 126.657 19.3431C128.157 20.8434 129 22.8783 129 25M121 25H129M121 25C121 27.1217 121.843 29.1566 123.343 30.6569C124.843 32.1571 126.878 33 129 33M129 25V33M129 25H133C134.061 25 135.078 25.4214 135.828 26.1716C136.579 26.9217 137 27.9391 137 29C137 30.0609 136.579 31.0783 135.828 31.8284C135.078 32.5786 134.061 33 133 33H129M153 25H145M153 25V33M145 25V33M161 25C161 22.8783 161.843 20.8434 163.343 19.3431C164.843 17.8429 166.878 17 169 17M161 25H169M161 25V33M169 17V25M169 17H177M169 25H177M169 25V33M177 17V25M177 17C179.122 17 181.157 17.8429 182.657 19.3431C184.157 20.8434 185 22.8783 185 25M177 25H185M177 25V33M185 25V33M201 25H193M201 25V33M193 25V33M9 33H1M9 33V41M1 33V41M25 33H17M25 33H33M25 33V41M17 33C17 35.1217 17.8429 37.1566 19.3431 38.6569C20.8434 40.1571 22.8783 41 25 41M33 33H41M33 33V41M41 33C41 35.1217 40.1571 37.1566 38.6569 38.6569C37.1566 40.1571 35.1217 41 33 41M57 33H49M57 33V41M49 33V41M73 33H65M73 33V41M65 33V41M97 33H89M97 33C97 35.1217 96.1571 37.1566 94.6569 38.6569C93.1566 40.1571 91.1217 41 89 41M89 33V41M89 33H85C83.9391 33 82.9217 33.4214 82.1716 34.1716C81.4214 34.9217 81 35.9391 81 37C81 38.0609 81.4214 39.0783 82.1716 39.8284C82.9217 40.5786 83.9391 41 85 41H89M153 33H145M153 33V41M145 33V41M169 33H161M169 33H177M169 33V41M161 33C161 35.1217 161.843 37.1566 163.343 38.6569C164.843 40.1571 166.878 41 169 41M177 33H185M177 33V41M185 33C185 35.1217 184.157 37.1566 182.657 38.6569C181.157 40.1571 179.122 41 177 41M201 33H193M201 33V41M193 33V41M9 41H1M9 41V49M1 41V49M25 41H33M57 41H49M57 41V49M49 41V49M73 41H65M73 41V49M65 41V49M153 41H145M153 41V49M145 41V49M169 41H177M201 41H193M201 41V49M193 41V49M9 49H1M9 49V57M9 49H17M1 49C1 51.1217 1.84285 53.1566 3.34315 54.6569C4.84344 56.1571 6.87827 57 9 57M57 49H49M57 49C57 51.1217 56.1571 53.1566 54.6569 54.6569C53.1566 56.1571 51.1217 57 49 57M49 49H41M49 49V57M73 49H65M73 49V53C73 54.0609 72.5786 55.0783 71.8284 55.8284C71.0783 56.5786 70.0609 57 69 57C67.9391 57 66.9217 56.5786 66.1716 55.8284C65.4214 55.0783 65 54.0609 65 53V49M153 49H145M153 49V57M153 49H161M145 49C145 51.1217 145.843 53.1566 147.343 54.6569C148.843 56.1571 150.878 57 153 57M201 49H193M201 49C201 51.1217 200.157 53.1566 198.657 54.6569C197.157 56.1571 195.122 57 193 57M193 49H185M193 49V57M9 57H17M17 49V57M17 49H25M17 57H25M25 49V57M25 49H33M25 57H33M33 49V57M33 49H41M33 57H41M41 49V57M41 57H49M121 57V53C121 51.9391 120.579 50.9217 119.828 50.1716C119.078 49.4214 118.061 49 117 49C115.939 49 114.922 49.4214 114.172 50.1716C113.421 50.9217 113 51.9391 113 53V57M121 57H113M121 57V61C121 62.0609 120.579 63.0783 119.828 63.8284C119.078 64.5786 118.061 65 117 65C115.939 65 114.922 64.5786 114.172 63.8284C113.421 63.0783 113 62.0609 113 61V57M153 57H161M161 49V57M161 49H169M161 57H169M169 49V57M169 49H177M169 57H177M177 49V57M177 49H185M177 57H185M185 49V57M185 57H193M49 73H45C43.9391 73 42.9217 72.5786 42.1716 71.8284C41.4214 71.0783 41 70.0609 41 69C41 67.9391 41.4214 66.9217 42.1716 66.1716C42.9217 65.4214 43.9391 65 45 65H49M49 73V65M49 73H57M49 65H57M57 65V73M57 65H65M57 73H65M65 65V73M65 65H69C70.0609 65 71.0783 65.4214 71.8284 66.1716C72.5786 66.9217 73 67.9391 73 69C73 70.0609 72.5786 71.0783 71.8284 71.8284C71.0783 72.5786 70.0609 73 69 73H65M89 73V69C89 67.9391 88.5786 66.9217 87.8284 66.1716C87.0783 65.4214 86.0609 65 85 65C83.9391 65 82.9217 65.4214 82.1716 66.1716C81.4214 66.9217 81 67.9391 81 69V73M89 73H81M89 73V81M89 73H97M81 73C78.8783 73 76.8434 73.8429 75.3431 75.3431C73.8429 76.8434 73 78.8783 73 81M81 73V81M97 73C97 70.8783 97.8429 68.8434 99.3431 67.3431C100.843 65.8429 102.878 65 105 65M97 73H105M97 73V81M105 65V73M105 65H109C110.061 65 111.078 65.4214 111.828 66.1716C112.579 66.9217 113 67.9391 113 69C113 70.0609 112.579 71.0783 111.828 71.8284C111.078 72.5786 110.061 73 109 73H105M105 73C105 75.1217 104.157 77.1566 102.657 78.6569C101.157 80.1571 99.1217 81 97 81M129 73H125C123.939 73 122.922 72.5786 122.172 71.8284C121.421 71.0783 121 70.0609 121 69C121 67.9391 121.421 66.9217 122.172 66.1716C122.922 65.4214 123.939 65 125 65H129M129 73V65M129 73H137M129 65H137M137 65V73M137 65H141C142.061 65 143.078 65.4214 143.828 66.1716C144.579 66.9217 145 67.9391 145 69C145 70.0609 144.579 71.0783 143.828 71.8284C143.078 72.5786 142.061 73 141 73H137M161 73H157C155.939 73 154.922 72.5786 154.172 71.8284C153.421 71.0783 153 70.0609 153 69C153 67.9391 153.421 66.9217 154.172 66.1716C154.922 65.4214 155.939 65 157 65H161M161 73V65M161 73H169M161 65H169M169 65V73M169 65H177M169 73H177M169 73V77C169 78.0609 169.421 79.0783 170.172 79.8284C170.922 80.5786 171.939 81 173 81C174.061 81 175.078 80.5786 175.828 79.8284C176.579 79.0783 177 78.0609 177 77V73M177 65V73M177 65H185M177 73H185M185 65V73M185 65C187.122 65 189.157 65.8429 190.657 67.3431C192.157 68.8434 193 70.8783 193 73M185 73H193M185 73C185 75.1217 185.843 77.1566 187.343 78.6569C188.843 80.1571 190.878 81 193 81M193 73V81M193 73C195.122 73 197.157 73.8429 198.657 75.3431C200.157 76.8434 201 78.8783 201 81M73 81H81M73 81H65M73 81V89M81 81H89M81 81V89M89 81H97M89 81V85C89 86.0609 89.4214 87.0783 90.1716 87.8284C90.9217 88.5786 91.9391 89 93 89C94.0609 89 95.0783 88.5786 95.8284 87.8284C96.5786 87.0783 97 86.0609 97 85V81M193 81H201M193 81V89M201 81V89M33 89V85C33 83.9391 32.5786 82.9217 31.8284 82.1716C31.0783 81.4214 30.0609 81 29 81C27.9391 81 26.9217 81.4214 26.1716 82.1716C25.4214 82.9217 25 83.9391 25 85V89M33 89H25M33 89V97M25 89H17M25 89V97M57 89H53C51.9391 89 50.9217 88.5786 50.1716 87.8284C49.4214 87.0783 49 86.0609 49 85C49 83.9391 49.4214 82.9217 50.1716 82.1716C50.9217 81.4214 51.9391 81 53 81H57M57 89V81M57 89H65M57 81H65M65 81V89M65 89H73M65 89V97M73 89H81M73 89V97M81 89V97M81 89H85C86.0609 89 87.0783 89.4214 87.8284 90.1716C88.5786 90.9217 89 91.9391 89 93C89 94.0609 88.5786 95.0783 87.8284 95.8284C87.0783 96.5786 86.0609 97 85 97H81M201 89H193M201 89V97M193 89V97M193 89H189C187.939 89 186.922 89.4214 186.172 90.1716C185.421 90.9217 185 91.9391 185 93C185 94.0609 185.421 95.0783 186.172 95.8284C186.922 96.5786 187.939 97 189 97H193M17 97H13C11.9391 97 10.9217 96.5786 10.1716 95.8284C9.42143 95.0783 9 94.0609 9 93C9 91.9391 9.42143 90.9217 10.1716 90.1716C10.9217 89.4214 11.9391 89 13 89H17M17 97V89M17 97H25M25 97H33M25 97V101C25 102.061 25.4214 103.078 26.1716 103.828C26.9217 104.579 27.9391 105 29 105C30.0609 105 31.0783 104.579 31.8284 103.828C32.5786 103.078 33 102.061 33 101V97M73 97H65M73 97H81M73 97V105M65 97V105M81 97V105M113 97V93C113 91.9391 112.579 90.9217 111.828 90.1716C111.078 89.4214 110.061 89 109 89C107.939 89 106.922 89.4214 106.172 90.1716C105.421 90.9217 105 91.9391 105 93V97M113 97H105M113 97V105M105 97V105M129 97H125C123.939 97 122.922 96.5786 122.172 95.8284C121.421 95.0783 121 94.0609 121 93C121 91.9391 121.421 90.9217 122.172 90.1716C122.922 89.4214 123.939 89 125 89H129M129 97V89M129 97H137M129 97V105M129 89C131.122 89 133.157 89.8429 134.657 91.3431C136.157 92.8434 137 94.8783 137 97M137 97V105M153 97V93C153 91.9391 152.579 90.9217 151.828 90.1716C151.078 89.4214 150.061 89 149 89C147.939 89 146.922 89.4214 146.172 90.1716C145.421 90.9217 145 91.9391 145 93V97M153 97H145M153 97V105M153 97C155.122 97 157.157 97.8429 158.657 99.3431C160.157 100.843 161 102.878 161 105M145 97V105M193 97H201M193 97V105M201 97V105M73 105H65M73 105H81M73 105V113M65 105C65 107.122 65.8429 109.157 67.3431 110.657C68.8434 112.157 70.8783 113 73 113M81 105V113M81 105H85C86.0609 105 87.0783 105.421 87.8284 106.172C88.5786 106.922 89 107.939 89 109C89 110.061 88.5786 111.078 87.8284 111.828C87.0783 112.579 86.0609 113 85 113H81M113 105H105M113 105V113M113 105H117C118.061 105 119.078 105.421 119.828 106.172C120.579 106.922 121 107.939 121 109C121 110.061 120.579 111.078 119.828 111.828C119.078 112.579 118.061 113 117 113H113M105 105C102.878 105 100.843 105.843 99.3431 107.343C97.8429 108.843 97 110.878 97 113M105 105V113M137 105H129M137 105V113M129 105V113M153 105H145M153 105H161M153 105V113M145 105V113M161 105C161 107.122 160.157 109.157 158.657 110.657C157.157 112.157 155.122 113 153 113M177 105V101C177 99.9391 176.579 98.9217 175.828 98.1716C175.078 97.4214 174.061 97 173 97C171.939 97 170.922 97.4214 170.172 98.1716C169.421 98.9217 169 99.9391 169 101V105M177 105H169M177 105V113M177 105H185M169 105V113M201 105H193M201 105V113M193 105H185M193 105V113M73 113H81M73 113V121M81 113V121M97 113H105M97 113V121M97 113H93C91.9391 113 90.9217 113.421 90.1716 114.172C89.4214 114.922 89 115.939 89 117C89 118.061 89.4214 119.078 90.1716 119.828C90.9217 120.579 91.9391 121 93 121H97M105 113H113M105 113V121M113 113C113 115.122 112.157 117.157 110.657 118.657C109.157 120.157 107.122 121 105 121M137 113H129M137 113V121M137 113H145M129 113V121M153 113H145M153 113V121M145 113V121M177 113H169M177 113H185M177 113V121M169 113C166.878 113 164.843 113.843 163.343 115.343C161.843 116.843 161 118.878 161 121M169 113V121M185 105V113M185 113H193M193 113H201M193 113V121M201 113V121M9 121H5C3.93913 121 2.92172 120.579 2.17157 119.828C1.42143 119.078 1 118.061 1 117C1 115.939 1.42143 114.922 2.17157 114.172C2.92172 113.421 3.93913 113 5 113H9M9 121V113M9 121H13C14.0609 121 15.0783 120.579 15.8284 119.828C16.5786 119.078 17 118.061 17 117C17 115.939 16.5786 114.922 15.8284 114.172C15.0783 113.421 14.0609 113 13 113H9M41 121C41 118.878 41.8429 116.843 43.3431 115.343C44.8434 113.843 46.8783 113 49 113M41 121H49M41 121V129M41 121H37C35.9391 121 34.9217 121.421 34.1716 122.172C33.4214 122.922 33 123.939 33 125C33 126.061 33.4214 127.078 34.1716 127.828C34.9217 128.579 35.9391 129 37 129H41M49 113V121M49 113H57M49 121H57M49 121V129M57 113V121M57 113H61C62.0609 113 63.0783 113.421 63.8284 114.172C64.5786 114.922 65 115.939 65 117C65 118.061 64.5786 119.078 63.8284 119.828C63.0783 120.579 62.0609 121 61 121H57M81 121H73M81 121V129M81 121C83.1217 121 85.1566 121.843 86.6569 123.343C88.1571 124.843 89 126.878 89 129M73 121V129M97 121H105M97 121V125C97 126.061 97.4214 127.078 98.1716 127.828C98.9217 128.579 99.9391 129 101 129C102.061 129 103.078 128.579 103.828 127.828C104.579 127.078 105 126.061 105 125V121M137 121H129M137 121H145M137 121V129M129 121H121M129 121V129M145 121H153M145 121V129M153 121V129M153 121H161M161 121H169M161 121V129M169 121H177M169 121V129M177 121V129M201 121H193M201 121V129M193 121V129M193 121H189C187.939 121 186.922 121.421 186.172 122.172C185.421 122.922 185 123.939 185 125C185 126.061 185.421 127.078 186.172 127.828C186.922 128.579 187.939 129 189 129H193M41 129H49M41 129C41 131.122 41.8429 133.157 43.3431 134.657C44.8434 136.157 46.8783 137 49 137M49 129V137M49 129H57M81 129H73M81 129H89M81 129V137M73 129H65M73 129V137M89 129V137M89 129H93C94.0609 129 95.0783 129.421 95.8284 130.172C96.5786 130.922 97 131.939 97 133C97 134.061 96.5786 135.078 95.8284 135.828C95.0783 136.579 94.0609 137 93 137H89M121 129H117C115.939 129 114.922 128.579 114.172 127.828C113.421 127.078 113 126.061 113 125C113 123.939 113.421 122.922 114.172 122.172C114.922 121.421 115.939 121 117 121H121M121 129V121M121 129H129M129 129H137M129 129V137M137 129H145M137 129V137M145 129H153M145 129V137M153 129H161M153 129V137M161 129H169M161 129V137M169 129H177M169 129V137M177 129V137M193 129H201M193 129V137M201 129V137M9 137H5C3.93913 137 2.92172 136.579 2.17157 135.828C1.42143 135.078 1 134.061 1 133C1 131.939 1.42143 130.922 2.17157 130.172C2.92172 129.421 3.93913 129 5 129H9M9 137V129M9 137H17M9 129H17M17 129V137M17 129H21C22.0609 129 23.0783 129.421 23.8284 130.172C24.5786 130.922 25 131.939 25 133C25 134.061 24.5786 135.078 23.8284 135.828C23.0783 136.579 22.0609 137 21 137H17M49 137H57M57 129V137M57 129H65M57 137H65M65 129V137M65 137H73M65 137V145M73 137H81M73 137V145M81 137H89M81 137V145M137 137H129M137 137H145M137 137V145M129 137V145M145 137H153M153 137H161M161 137H169M161 137V145M169 137H177M169 137V145M177 137V145M201 137H193M201 137V145M193 137V145M193 137H189C187.939 137 186.922 137.421 186.172 138.172C185.421 138.922 185 139.939 185 141C185 142.061 185.421 143.078 186.172 143.828C186.922 144.579 187.939 145 189 145H193M73 145H65M73 145H81M73 145V153M65 145V153M81 145C81 147.122 80.1571 149.157 78.6569 150.657C77.1566 152.157 75.1217 153 73 153M137 145H129M137 145V153M129 145H121M129 145V153M169 145H161M169 145H177M169 145V153M161 145V153M177 145V153M193 145H201M193 145V149C193 150.061 193.421 151.078 194.172 151.828C194.922 152.579 195.939 153 197 153C198.061 153 199.078 152.579 199.828 151.828C200.579 151.078 201 150.061 201 149V145M1 153C1 150.878 1.84285 148.843 3.34315 147.343C4.84344 145.843 6.87827 145 9 145M1 153H9M1 153V161M9 145V153M9 145H17M9 153H17M9 153V161M17 145V153M17 145H25M17 153H25M25 145V153M25 145H33M25 153H33M33 145V153M33 145H41M33 153H41M41 145V153M41 145H49M41 153H49M49 145V153M49 145C51.1217 145 53.1566 145.843 54.6569 147.343C56.1571 148.843 57 150.878 57 153M49 153H57M49 153V161M57 153V161M73 153H65M73 153V157C73 158.061 72.5786 159.078 71.8284 159.828C71.0783 160.579 70.0609 161 69 161C67.9391 161 66.9217 160.579 66.1716 159.828C65.4214 159.078 65 158.061 65 157V153M113 153C113 150.878 113.843 148.843 115.343 147.343C116.843 145.843 118.878 145 121 145M113 153H121M113 153H105M113 153V161M121 145V153M121 153H129M121 153V161M129 153H137M129 153V161M137 153V161M169 153H161M169 153H177M169 153V161M161 153V161M177 153V161M9 161H1M9 161V169M1 161V169M57 161H49M57 161V169M49 161V169M105 161H101C99.9391 161 98.9217 160.579 98.1716 159.828C97.4214 159.078 97 158.061 97 157C97 155.939 97.4214 154.922 98.1716 154.172C98.9217 153.421 99.9391 153 101 153H105M105 161V153M105 161H113M113 161H121M113 161C113 163.122 113.843 165.157 115.343 166.657C116.843 168.157 118.878 169 121 169M121 161V169M121 161H129M137 161H129M137 161V169M137 161H145M129 161V169M169 161H161M169 161H177M169 161V169M161 161H153M161 161V169M177 161C177 163.122 176.157 165.157 174.657 166.657C173.157 168.157 171.122 169 169 169M9 169H1M9 169V177M1 169V177M17 169C17 166.878 17.8429 164.843 19.3431 163.343C20.8434 161.843 22.8783 161 25 161M17 169H25M17 169V177M25 161V169M25 161H33M25 169H33M25 169V177M33 161V169M33 161C35.1217 161 37.1566 161.843 38.6569 163.343C40.1571 164.843 41 166.878 41 169M33 169H41M33 169V177M41 169V177M57 169H49M57 169V177M49 169V177M81 169C81 166.878 81.8429 164.843 83.3431 163.343C84.8434 161.843 86.8783 161 89 161M81 169H89M81 169C78.8783 169 76.8434 169.843 75.3431 171.343C73.8429 172.843 73 174.878 73 177M81 169V177M89 161V169M89 161H93C94.0609 161 95.0783 161.421 95.8284 162.172C96.5786 162.922 97 163.939 97 165C97 166.061 96.5786 167.078 95.8284 167.828C95.0783 168.579 94.0609 169 93 169H89M89 169C89 171.122 88.1571 173.157 86.6569 174.657C85.1566 176.157 83.1217 177 81 177M121 169H129M121 169V173C121 174.061 121.421 175.078 122.172 175.828C122.922 176.579 123.939 177 125 177C126.061 177 127.078 176.579 127.828 175.828C128.579 175.078 129 174.061 129 173V169M129 169H137M137 169H145M137 169V177M145 161V169M145 161H153M145 169H153M145 169V177M153 161V169M153 169H161M161 169H169M161 169V177M169 169V177M9 177H1M9 177V185M1 177V185M25 177H17M25 177H33M25 177V185M17 177C17 179.122 17.8429 181.157 19.3431 182.657C20.8434 184.157 22.8783 185 25 185M33 177H41M33 177V185M41 177C41 179.122 40.1571 181.157 38.6569 182.657C37.1566 184.157 35.1217 185 33 185M57 177H49M57 177V185M49 177V185M73 177H81M73 177V185M73 177H69C67.9391 177 66.9217 177.421 66.1716 178.172C65.4214 178.922 65 179.939 65 181C65 182.061 65.4214 183.078 66.1716 183.828C66.9217 184.579 67.9391 185 69 185H73M81 177V185M145 177H137M145 177V185M137 177V185M169 177H161M169 177V185M161 177V185M185 177V173C185 171.939 184.579 170.922 183.828 170.172C183.078 169.421 182.061 169 181 169C179.939 169 178.922 169.421 178.172 170.172C177.421 170.922 177 171.939 177 173V177M185 177H177M185 177V185M185 177H193M177 177C177 179.122 177.843 181.157 179.343 182.657C180.843 184.157 182.878 185 185 185M9 185H1M9 185V193M1 185V193M25 185H33M57 185H49M57 185V193M49 185V193M73 185H81M73 185V189C73 190.061 73.4214 191.078 74.1716 191.828C74.9217 192.579 75.9391 193 77 193C78.0609 193 79.0783 192.579 79.8284 191.828C80.5786 191.078 81 190.061 81 189V185M113 185H109C107.939 185 106.922 184.579 106.172 183.828C105.421 183.078 105 182.061 105 181C105 179.939 105.421 178.922 106.172 178.172C106.922 177.421 107.939 177 109 177H113M113 185V177M113 185H121M113 185V193M113 177C115.122 177 117.157 177.843 118.657 179.343C120.157 180.843 121 182.878 121 185M121 185V193M145 185H137M145 185V193M145 185H153M137 185C134.878 185 132.843 185.843 131.343 187.343C129.843 188.843 129 190.878 129 193M137 185V193M169 185H161M169 185V193M169 185C171.122 185 173.157 185.843 174.657 187.343C176.157 188.843 177 190.878 177 193M161 185H153M161 185V193M185 185H193M193 177V185M193 177H197C198.061 177 199.078 177.421 199.828 178.172C200.579 178.922 201 179.939 201 181C201 182.061 200.579 183.078 199.828 183.828C199.078 184.579 198.061 185 197 185H193M9 193H1M9 193V201M9 193H17M1 193C1 195.122 1.84285 197.157 3.34315 198.657C4.84344 200.157 6.87827 201 9 201M57 193H49M57 193C57 195.122 56.1571 197.157 54.6569 198.657C53.1566 200.157 51.1217 201 49 201M49 193H41M49 193V201M121 193H113M121 193C121 195.122 120.157 197.157 118.657 198.657C117.157 200.157 115.122 201 113 201M113 193V201M113 193H109C107.939 193 106.922 193.421 106.172 194.172C105.421 194.922 105 195.939 105 197C105 198.061 105.421 199.078 106.172 199.828C106.922 200.579 107.939 201 109 201H113M129 193H137M129 193V197C129 198.061 129.421 199.078 130.172 199.828C130.922 200.579 131.939 201 133 201C134.061 201 135.078 200.579 135.828 199.828C136.579 199.078 137 198.061 137 197V193M137 193H145M145 193H153M153 185V193M153 193H161M161 193H169M161 193C161 195.122 161.843 197.157 163.343 198.657C164.843 200.157 166.878 201 169 201M169 193H177M169 193V201M177 193C177 195.122 176.157 197.157 174.657 198.657C173.157 200.157 171.122 201 169 201M9 201H17M17 193V201M17 193H25M17 201H25M25 193V201M25 193H33M25 201H33M33 193V201M33 193H41M33 201H41M41 193V201M41 201H49M125 1C126.061 1 127.078 1.42143 127.828 2.17157C128.579 2.92172 129 3.93913 129 5C129 6.06087 128.579 7.07828 127.828 7.82843C127.078 8.57857 126.061 9 125 9C123.939 9 122.922 8.57857 122.172 7.82843C121.421 7.07828 121 6.06087 121 5C121 3.93913 121.421 2.92172 122.172 2.17157C122.922 1.42143 123.939 1 125 1ZM133 9C134.061 9 135.078 9.42143 135.828 10.1716C136.579 10.9217 137 11.9391 137 13C137 14.0609 136.579 15.0783 135.828 15.8284C135.078 16.5786 134.061 17 133 17C131.939 17 130.922 16.5786 130.172 15.8284C129.421 15.0783 129 14.0609 129 13C129 11.9391 129.421 10.9217 130.172 10.1716C130.922 9.42143 131.939 9 133 9ZM117 33C118.061 33 119.078 33.4214 119.828 34.1716C120.579 34.9217 121 35.9391 121 37C121 38.0609 120.579 39.0783 119.828 39.8284C119.078 40.5786 118.061 41 117 41C115.939 41 114.922 40.5786 114.172 39.8284C113.421 39.0783 113 38.0609 113 37C113 35.9391 113.421 34.9217 114.172 34.1716C114.922 33.4214 115.939 33 117 33ZM109 41C110.061 41 111.078 41.4214 111.828 42.1716C112.579 42.9217 113 43.9391 113 45C113 46.0609 112.579 47.0783 111.828 47.8284C111.078 48.5786 110.061 49 109 49C107.939 49 106.922 48.5786 106.172 47.8284C105.421 47.0783 105 46.0609 105 45C105 43.9391 105.421 42.9217 106.172 42.1716C106.922 41.4214 107.939 41 109 41ZM85 49C86.0609 49 87.0783 49.4214 87.8284 50.1716C88.5786 50.9217 89 51.9391 89 53C89 54.0609 88.5786 55.0783 87.8284 55.8284C87.0783 56.5786 86.0609 57 85 57C83.9391 57 82.9217 56.5786 82.1716 55.8284C81.4214 55.0783 81 54.0609 81 53C81 51.9391 81.4214 50.9217 82.1716 50.1716C82.9217 49.4214 83.9391 49 85 49ZM101 49C102.061 49 103.078 49.4214 103.828 50.1716C104.579 50.9217 105 51.9391 105 53C105 54.0609 104.579 55.0783 103.828 55.8284C103.078 56.5786 102.061 57 101 57C99.9391 57 98.9217 56.5786 98.1716 55.8284C97.4214 55.0783 97 54.0609 97 53C97 51.9391 97.4214 50.9217 98.1716 50.1716C98.9217 49.4214 99.9391 49 101 49ZM133 49C134.061 49 135.078 49.4214 135.828 50.1716C136.579 50.9217 137 51.9391 137 53C137 54.0609 136.579 55.0783 135.828 55.8284C135.078 56.5786 134.061 57 133 57C131.939 57 130.922 56.5786 130.172 55.8284C129.421 55.0783 129 54.0609 129 53C129 51.9391 129.421 50.9217 130.172 50.1716C130.922 49.4214 131.939 49 133 49ZM77 57C78.0609 57 79.0783 57.4214 79.8284 58.1716C80.5786 58.9217 81 59.9391 81 61C81 62.0609 80.5786 63.0783 79.8284 63.8284C79.0783 64.5786 78.0609 65 77 65C75.9391 65 74.9217 64.5786 74.1716 63.8284C73.4214 63.0783 73 62.0609 73 61C73 59.9391 73.4214 58.9217 74.1716 58.1716C74.9217 57.4214 75.9391 57 77 57ZM21 65C22.0609 65 23.0783 65.4214 23.8284 66.1716C24.5786 66.9217 25 67.9391 25 69C25 70.0609 24.5786 71.0783 23.8284 71.8284C23.0783 72.5786 22.0609 73 21 73C19.9391 73 18.9217 72.5786 18.1716 71.8284C17.4214 71.0783 17 70.0609 17 69C17 67.9391 17.4214 66.9217 18.1716 66.1716C18.9217 65.4214 19.9391 65 21 65ZM13 73C14.0609 73 15.0783 73.4214 15.8284 74.1716C16.5786 74.9217 17 75.9391 17 77C17 78.0609 16.5786 79.0783 15.8284 79.8284C15.0783 80.5786 14.0609 81 13 81C11.9391 81 10.9217 80.5786 10.1716 79.8284C9.42143 79.0783 9 78.0609 9 77C9 75.9391 9.42143 74.9217 10.1716 74.1716C10.9217 73.4214 11.9391 73 13 73ZM117 73C118.061 73 119.078 73.4214 119.828 74.1716C120.579 74.9217 121 75.9391 121 77C121 78.0609 120.579 79.0783 119.828 79.8284C119.078 80.5786 118.061 81 117 81C115.939 81 114.922 80.5786 114.172 79.8284C113.421 79.0783 113 78.0609 113 77C113 75.9391 113.421 74.9217 114.172 74.1716C114.922 73.4214 115.939 73 117 73ZM149 73C150.061 73 151.078 73.4214 151.828 74.1716C152.579 74.9217 153 75.9391 153 77C153 78.0609 152.579 79.0783 151.828 79.8284C151.078 80.5786 150.061 81 149 81C147.939 81 146.922 80.5786 146.172 79.8284C145.421 79.0783 145 78.0609 145 77C145 75.9391 145.421 74.9217 146.172 74.1716C146.922 73.4214 147.939 73 149 73ZM5 81C6.06087 81 7.07828 81.4214 7.82843 82.1716C8.57857 82.9217 9 83.9391 9 85C9 86.0609 8.57857 87.0783 7.82843 87.8284C7.07828 88.5786 6.06087 89 5 89C3.93913 89 2.92172 88.5786 2.17157 87.8284C1.42143 87.0783 1 86.0609 1 85C1 83.9391 1.42143 82.9217 2.17157 82.1716C2.92172 81.4214 3.93913 81 5 81ZM165 81C166.061 81 167.078 81.4214 167.828 82.1716C168.579 82.9217 169 83.9391 169 85C169 86.0609 168.579 87.0783 167.828 87.8284C167.078 88.5786 166.061 89 165 89C163.939 89 162.922 88.5786 162.172 87.8284C161.421 87.0783 161 86.0609 161 85C161 83.9391 161.421 82.9217 162.172 82.1716C162.922 81.4214 163.939 81 165 81ZM45 89C46.0609 89 47.0783 89.4214 47.8284 90.1716C48.5786 90.9217 49 91.9391 49 93C49 94.0609 48.5786 95.0783 47.8284 95.8284C47.0783 96.5786 46.0609 97 45 97C43.9391 97 42.9217 96.5786 42.1716 95.8284C41.4214 95.0783 41 94.0609 41 93C41 91.9391 41.4214 90.9217 42.1716 90.1716C42.9217 89.4214 43.9391 89 45 89ZM53 97C54.0609 97 55.0783 97.4214 55.8284 98.1716C56.5786 98.9217 57 99.9391 57 101C57 102.061 56.5786 103.078 55.8284 103.828C55.0783 104.579 54.0609 105 53 105C51.9391 105 50.9217 104.579 50.1716 103.828C49.4214 103.078 49 102.061 49 101C49 99.9391 49.4214 98.9217 50.1716 98.1716C50.9217 97.4214 51.9391 97 53 97ZM21 105C22.0609 105 23.0783 105.421 23.8284 106.172C24.5786 106.922 25 107.939 25 109C25 110.061 24.5786 111.078 23.8284 111.828C23.0783 112.579 22.0609 113 21 113C19.9391 113 18.9217 112.579 18.1716 111.828C17.4214 111.078 17 110.061 17 109C17 107.939 17.4214 106.922 18.1716 106.172C18.9217 105.421 19.9391 105 21 105ZM29 113C30.0609 113 31.0783 113.421 31.8284 114.172C32.5786 114.922 33 115.939 33 117C33 118.061 32.5786 119.078 31.8284 119.828C31.0783 120.579 30.0609 121 29 121C27.9391 121 26.9217 120.579 26.1716 119.828C25.4214 119.078 25 118.061 25 117C25 115.939 25.4214 114.922 26.1716 114.172C26.9217 113.421 27.9391 113 29 113ZM93 145C94.0609 145 95.0783 145.421 95.8284 146.172C96.5786 146.922 97 147.939 97 149C97 150.061 96.5786 151.078 95.8284 151.828C95.0783 152.579 94.0609 153 93 153C91.9391 153 90.9217 152.579 90.1716 151.828C89.4214 151.078 89 150.061 89 149C89 147.939 89.4214 146.922 90.1716 146.172C90.9217 145.421 91.9391 145 93 145ZM149 145C150.061 145 151.078 145.421 151.828 146.172C152.579 146.922 153 147.939 153 149C153 150.061 152.579 151.078 151.828 151.828C151.078 152.579 150.061 153 149 153C147.939 153 146.922 152.579 146.172 151.828C145.421 151.078 145 150.061 145 149C145 147.939 145.421 146.922 146.172 146.172C146.922 145.421 147.939 145 149 145ZM189 153C190.061 153 191.078 153.421 191.828 154.172C192.579 154.922 193 155.939 193 157C193 158.061 192.579 159.078 191.828 159.828C191.078 160.579 190.061 161 189 161C187.939 161 186.922 160.579 186.172 159.828C185.421 159.078 185 158.061 185 157C185 155.939 185.421 154.922 186.172 154.172C186.922 153.421 187.939 153 189 153ZM101 169C102.061 169 103.078 169.421 103.828 170.172C104.579 170.922 105 171.939 105 173C105 174.061 104.579 175.078 103.828 175.828C103.078 176.579 102.061 177 101 177C99.9391 177 98.9217 176.579 98.1716 175.828C97.4214 175.078 97 174.061 97 173C97 171.939 97.4214 170.922 98.1716 170.172C98.9217 169.421 99.9391 169 101 169ZM101 185C102.061 185 103.078 185.421 103.828 186.172C104.579 186.922 105 187.939 105 189C105 190.061 104.579 191.078 103.828 191.828C103.078 192.579 102.061 193 101 193C99.9391 193 98.9217 192.579 98.1716 191.828C97.4214 191.078 97 190.061 97 189C97 187.939 97.4214 186.922 98.1716 186.172C98.9217 185.421 99.9391 185 101 185ZM85 193C86.0609 193 87.0783 193.421 87.8284 194.172C88.5786 194.922 89 195.939 89 197C89 198.061 88.5786 199.078 87.8284 199.828C87.0783 200.579 86.0609 201 85 201C83.9391 201 82.9217 200.579 82.1716 199.828C81.4214 199.078 81 198.061 81 197C81 195.939 81.4214 194.922 82.1716 194.172C82.9217 193.421 83.9391 193 85 193ZM197 193C198.061 193 199.078 193.421 199.828 194.172C200.579 194.922 201 195.939 201 197C201 198.061 200.579 199.078 199.828 199.828C199.078 200.579 198.061 201 197 201C195.939 201 194.922 200.579 194.172 199.828C193.421 199.078 193 198.061 193 197C193 195.939 193.421 194.922 194.172 194.172C194.922 193.421 195.939 193 197 193Z" stroke="#232323" stroke-width="0.5"/>
</svg>
