<svg width="40" height="38" viewBox="0 0 40 38" fill="none" xmlns="http://www.w3.org/2000/svg">
<path d="M38.3048 17.6591L30.5532 24.4241L32.8752 34.4959C32.9981 35.0225 32.9631 35.5735 32.7744 36.0802C32.5858 36.5869 32.252 37.0268 31.8148 37.3448C31.3775 37.6629 30.8562 37.845 30.3161 37.8683C29.7759 37.8917 29.2408 37.7553 28.7777 37.4762L19.9932 32.1481L11.2276 37.4762C10.7645 37.7553 10.2294 37.8917 9.68926 37.8683C9.14909 37.845 8.62779 37.6629 8.19055 37.3448C7.7533 37.0268 7.4195 36.5869 7.23089 36.0802C7.04227 35.5735 7.00721 35.0225 7.13009 34.4959L9.44868 24.4344L1.6954 17.6591C1.28532 17.3054 0.988791 16.8385 0.842996 16.317C0.697201 15.7954 0.70863 15.2425 0.875851 14.7274C1.04307 14.2123 1.35864 13.7581 1.78298 13.4217C2.20733 13.0852 2.72155 12.8816 3.26118 12.8362L13.4809 11.9511L17.4701 2.43609C17.6784 1.93682 18.0298 1.51035 18.48 1.21037C18.9302 0.9104 19.4591 0.750336 20.0001 0.750336C20.5411 0.750336 21.07 0.9104 21.5202 1.21037C21.9704 1.51035 22.3218 1.93682 22.5301 2.43609L26.5313 11.9511L36.7476 12.8362C37.2872 12.8816 37.8014 13.0852 38.2258 13.4217C38.6501 13.7581 38.9657 14.2123 39.1329 14.7274C39.3001 15.2425 39.3116 15.7954 39.1658 16.317C39.02 16.8385 38.7234 17.3054 38.3134 17.6591H38.3048Z" fill="#EF9545"/>
</svg>
