<svg width="46" height="50" viewBox="0 0 46 50" fill="none" xmlns="http://www.w3.org/2000/svg">
<path d="M43.625 8.25H34.25V6.375C34.25 4.88316 33.6574 3.45242 32.6025 2.39752C31.5476 1.34263 30.1168 0.75 28.625 0.75H17.375C15.8832 0.75 14.4524 1.34263 13.3975 2.39752C12.3426 3.45242 11.75 4.88316 11.75 6.375V8.25H2.375C1.87772 8.25 1.40081 8.44754 1.04918 8.79918C0.697544 9.15081 0.5 9.62772 0.5 10.125C0.5 10.6223 0.697544 11.0992 1.04918 11.4508C1.40081 11.8025 1.87772 12 2.375 12H4.25V45.75C4.25 46.7446 4.64509 47.6984 5.34835 48.4016C6.05161 49.1049 7.00544 49.5 8 49.5H38C38.9946 49.5 39.9484 49.1049 40.6516 48.4016C41.3549 47.6984 41.75 46.7446 41.75 45.75V12H43.625C44.1223 12 44.5992 11.8025 44.9508 11.4508C45.3025 11.0992 45.5 10.6223 45.5 10.125C45.5 9.62772 45.3025 9.15081 44.9508 8.79918C44.5992 8.44754 44.1223 8.25 43.625 8.25ZM15.5 6.375C15.5 5.87772 15.6975 5.40081 16.0492 5.04918C16.4008 4.69754 16.8777 4.5 17.375 4.5H28.625C29.1223 4.5 29.5992 4.69754 29.9508 5.04918C30.3025 5.40081 30.5 5.87772 30.5 6.375V8.25H15.5V6.375ZM38 45.75H8V12H38V45.75ZM19.25 21.375V36.375C19.25 36.8723 19.0525 37.3492 18.7008 37.7008C18.3492 38.0525 17.8723 38.25 17.375 38.25C16.8777 38.25 16.4008 38.0525 16.0492 37.7008C15.6975 37.3492 15.5 36.8723 15.5 36.375V21.375C15.5 20.8777 15.6975 20.4008 16.0492 20.0492C16.4008 19.6975 16.8777 19.5 17.375 19.5C17.8723 19.5 18.3492 19.6975 18.7008 20.0492C19.0525 20.4008 19.25 20.8777 19.25 21.375ZM30.5 21.375V36.375C30.5 36.8723 30.3025 37.3492 29.9508 37.7008C29.5992 38.0525 29.1223 38.25 28.625 38.25C28.1277 38.25 27.6508 38.0525 27.2992 37.7008C26.9475 37.3492 26.75 36.8723 26.75 36.375V21.375C26.75 20.8777 26.9475 20.4008 27.2992 20.0492C27.6508 19.6975 28.1277 19.5 28.625 19.5C29.1223 19.5 29.5992 19.6975 29.9508 20.0492C30.3025 20.4008 30.5 20.8777 30.5 21.375Z" fill="white"/>
</svg>
