<svg width="32" height="32" viewBox="0 0 30 30" fill="none" xmlns="http://www.w3.org/2000/svg">
<g clip-path="url(#clip0_810_65251)">
<rect x="1" y="1" width="28" height="28" rx="14" fill="white"/>
<path fill-rule="evenodd" clip-rule="evenodd" d="M-8.33301 19.6667H29.0003V29H-8.33301V19.6667Z" fill="#14DC5A"/>
<path fill-rule="evenodd" clip-rule="evenodd" d="M-8.33301 1H29.0003V12.6667H-8.33301V1Z" fill="#0099B5"/>
<path d="M-10.6665 12.1667H-11.1665V12.6667V19.6667V20.1667H-10.6665H31.3335H31.8335V19.6667V12.6667V12.1667H31.3335H-10.6665Z" fill="#F7FCFF" stroke="#C51918"/>
<path fill-rule="evenodd" clip-rule="evenodd" d="M15.7042 6.06496L15.1655 6.36426L15.3194 5.75597L14.8034 5.30897H15.4773L15.7034 4.73334L15.9684 5.30897H16.5429L16.0915 5.75597L16.3086 6.36426L15.7042 6.06496ZM12.8159 7.89825L13.3545 7.59895L13.9589 7.89825L13.7419 7.28996L14.1933 6.84296H13.6187L13.3537 6.26732L13.1277 6.84296H12.4537L12.9697 7.28996L12.8159 7.89825ZM10.8115 9.23046L10.2729 9.52976L10.4267 8.92147L9.91074 8.47447H10.5847L10.8107 7.89883L11.0758 8.47447H11.6503L11.1989 8.92147L11.4159 9.52976L10.8115 9.23046ZM13.3545 9.23046L12.8159 9.52976L12.9697 8.92147L12.4537 8.47447H13.1277L13.3537 7.89883L13.6187 8.47447H14.1933L13.7419 8.92147L13.9589 9.52976L13.3545 9.23046ZM15.7407 9.23046L15.2021 9.52976L15.3559 8.92147L14.8399 8.47447H15.5139L15.7399 7.89883L16.0049 8.47447H16.5795L16.128 8.92147L16.3451 9.52976L15.7407 9.23046ZM15.2021 7.89825L15.7407 7.59895L16.3451 7.89825L16.128 7.28996L16.5795 6.84296H16.0049L15.7399 6.26732L15.5139 6.84296H14.8399L15.3559 7.28996L15.2021 7.89825ZM17.601 9.52976L18.1397 9.23046L18.7441 9.52976L18.527 8.92147L18.9784 8.47447H18.4039L18.1389 7.89883L17.9128 8.47447H17.2389L17.7549 8.92147L17.601 9.52976ZM18.1397 7.59895L17.601 7.89825L17.7549 7.28996L17.2389 6.84296H17.9128L18.1389 6.26732L18.4039 6.84296H18.9784L18.527 7.28996L18.7441 7.89825L18.1397 7.59895ZM17.5664 6.36426L18.105 6.06496L18.7094 6.36426L18.4924 5.75597L18.9438 5.30897H18.3693L18.1042 4.73334L17.8782 5.30897H17.2042L17.7202 5.75597L17.5664 6.36426ZM20.566 9.23046L20.0273 9.52976L20.1812 8.92147L19.6652 8.47447H20.3391L20.5652 7.89883L20.8302 8.47447H21.4047L20.9533 8.92147L21.1704 9.52976L20.566 9.23046ZM20.0273 7.89825L20.566 7.59895L21.1704 7.89825L20.9533 7.28996L21.4047 6.84296H20.8302L20.5652 6.26732L20.3391 6.84296H19.6652L20.1812 7.28996L20.0273 7.89825ZM20.5295 6.06496L19.9909 6.36426L20.1447 5.75597L19.6287 5.30897H20.3027L20.5287 4.73334L20.7937 5.30897H21.3683L20.9169 5.75597L21.1339 6.36426L20.5295 6.06496ZM8.77621 10.2538C8.77621 10.2538 6.84273 9.72941 6.87913 7.78982C6.91554 5.85023 8.86832 5.34665 8.86832 5.34665C8.07041 5.04449 5.71113 5.44994 5.66758 7.77016C5.62402 10.0904 8.03272 10.5475 8.77621 10.2538Z" fill="#F7FCFF"/>
</g>
<rect x="0.5" y="0.5" width="29" height="29" rx="14.5" stroke="#F2F2F2"/>
<defs>
<clipPath id="clip0_810_65251">
<rect x="1" y="1" width="28" height="28" rx="14" fill="white"/>
</clipPath>
</defs>
</svg>
